0
SECTION
2
HEADER
9
$INSUNITS
70
4
9
$ACADVER
1
AC1014
9
$HANDSEED
5
FFFF
0
ENDSEC
0
SECTION
2
TABLES
0
TABLE
2
VPORT
5
8
100
AcDbSymbolTable
0
ENDTAB
0
TABLE
2
LTYPE
5
5
100
AcDbSymbolTable
0
LTYPE
5
14
100
AcDbSymbolTableRecord
100
AcDbLinetypeTableRecord
2
BYBLOCK
70
0
0
LTYPE
5
15
100
AcDbSymbolTableRecord
100
AcDbLinetypeTableRecord
2
BYLAYER
70
0
0
ENDTAB
0
TABLE
2
LAYER
5
2
100
AcDbSymbolTable
70
2
0
LAYER
5
50
100
AcDbSymbolTableRecord
100
AcDbLayerTableRecord
2
0
70
0
6
CONTINUOUS
0
ENDTAB
0
TABLE
2
STYLE
5
3
100
AcDbSymbolTable
70
1
0
STYLE
5
11
100
AcDbSymbolTableRecord
100
AcDbTextStyleTableRecord
2
STANDARD
70
0
0
ENDTAB
0
TABLE
2
VIEW
5
6
100
AcDbSymbolTable
70
0
0
ENDTAB
0
TABLE
2
UCS
5
7
100
AcDbSymbolTable
70
0
0
ENDTAB
0
TABLE
2
APPID
5
9
100
AcDbSymbolTable
70
2
0
APPID
5
12
100
AcDbSymbolTableRecord
100
AcDbRegAppTableRecord
2
ACAD
70
0
0
ENDTAB
0
TABLE
2
DIMSTYLE
5
A
100
AcDbSymbolTable
70
1
0
ENDTAB
0
TABLE
2
BLOCK_RECORD
5
1
100
AcDbSymbolTable
70
1
0
BLOCK_RECORD
5
1F
100
AcDbSymbolTableRecord
100
AcDbBlockTableRecord
2
*MODEL_SPACE
0
BLOCK_RECORD
5
1B
100
AcDbSymbolTableRecord
100
AcDbBlockTableRecord
2
*PAPER_SPACE
0
ENDTAB
0
ENDSEC
0
SECTION
2
BLOCKS
0
BLOCK
5
20
100
AcDbEntity
100
AcDbBlockBegin
2
*MODEL_SPACE
0
ENDBLK
5
21
100
AcDbEntity
100
AcDbBlockEnd
0
BLOCK
5
1C
100
AcDbEntity
100
AcDbBlockBegin
2
*PAPER_SPACE
0
ENDBLK
5
1D
100
AcDbEntity
100
AcDbBlockEnd
0
ENDSEC
0
SECTION
2
ENTITIES
0
LWPOLYLINE
5
100
100
AcDbEntity
8
0
100
AcDbPolyline
90
28
70
1
43
0.0
10
-4.9508654108055827
20
-13.747363206385748
42
0.13665971621357725
10
-5.6601902659821928
20
-16.334988612557066
10
-5.6491088861834893
20
-19.046301802472236
42
0.36281353947221368
10
-3.9964219456090455
20
-21.007743197672614
10
46.651013275623683
20
-29.938252530860147
42
0.41421356237309764
10
48.967925136981961
20
-28.315933380169589
10
57.988338983282176
20
22.841375671780764
42
-0.36397023426620301
10
59.957954489306587
20
24.494079316446911
10
70.236569889750982
20
24.494079316446911
42
0.41421356237309115
10
72.236569889750967
20
26.494079316446914
10
72.236569889750982
20
42.22333258418228
42
-0.46630765815499764
10
74.583866245084835
20
44.192948090206698
10
77.366595883012025
20
43.702277775023042
42
0.41421356237309354
10
79.683507744370303
20
45.324596925713607
10
87.238125351750554
20
88.168962416611478
42
0.46630765815501068
10
85.268509845726129
20
90.51625877194536
10
11.355981825558779
20
90.516258771945374
42
0.31788280651851408
10
9.4702534203612068
20
89.182613318587784
10
8.4246409834428668
20
86.223616365599511
42
0.12995262078818362
10
8.2172936563280139
20
83.676151443236435
42
-0.26436983572867689
10
6.8177176402730275
20
79.715466756673493
42
0.12995262078818509
10
5.3785049484996588
20
77.603302636021326
10
-2.7897465075423855
20
54.487824743557816
42
0.041308087051116354
10
-2.9994642596094829
20
53.690179265286432
10
-5.8018805148284747
20
37.796886906061104
42
0.044684703404996348
10
-5.8777999895381825
20
36.908210740666419
10
-5.6992764425814526
20
-6.7716609329723232
42
0.13665971621357709
10
-4.9688239243782153
20
-9.353401840090056
42
-0.27852105773169195
0
LWPOLYLINE
5
101
100
AcDbEntity
8
0
100
AcDbPolyline
90
8
70
1
43
0.0
10
-3.4121906367997621
20
-19.587619022561707
10
9.3903101523589463
20
-21.845045332231795
42
0.41421356237309498
10
9.9695381176985158
20
-21.439465544559159
10
12.226964427368603
20
-8.6369647554004487
42
0.41421356237309481
10
11.821384639695969
20
-8.0577367900608792
10
-0.9811161494627425
20
-5.800310480390789
42
0.41421356237309481
10
-1.5603441148023136
20
-6.2058902680634294
10
-3.817770424472402
20
-19.008391057222134
42
0.41421356237309387
0
LWPOLYLINE
5
102
100
AcDbEntity
8
0
100
AcDbPolyline
90
4
70
1
43
0.0
10
-3.3253665479662962
20
-19.095215146055601
10
-1.0679402382962069
20
-6.2927143568968944
10
11.734560550862502
20
-8.5501406665669837
10
9.4771342411924113
20
-21.352641455725696
0
LINE
5
103
100
AcDbEntity
8
0
100
AcDbLine
10
-3.3253665479662962
20
-19.095215146055601
30
6.6613381477509392e-15
11
11.734560550862502
21
-8.5501406665669837
31
4.4408920985006262e-15
0
LINE
5
104
100
AcDbEntity
8
0
100
AcDbLine
10
-1.0679402382962069
20
-6.2927143568968944
30
2.2204460492503131e-15
11
9.4771342411924113
21
-21.352641455725696
31
6.6613381477509392e-15
0
LINE
5
105
100
AcDbEntity
8
0
100
AcDbLine
10
4.2045970014481027
20
-13.822677906311295
30
4.4408920985006262e-15
11
-2.1966533931312515
21
-12.693964751476248
31
4.4408920985006262e-15
0
LINE
5
106
100
AcDbEntity
8
0
100
AcDbLine
10
4.2045970014481027
20
-13.822677906311295
30
4.4408920985006262e-15
11
5.3333101562831491
21
-7.4214275117319399
31
3.3306690738754696e-15
0
LINE
5
107
100
AcDbEntity
8
0
100
AcDbLine
10
4.2045970014481027
20
-13.822677906311295
30
4.4408920985006262e-15
11
3.0758838466130567
21
-20.223928300890645
31
6.6613381477509392e-15
0
LINE
5
108
100
AcDbEntity
8
0
100
AcDbLine
10
4.2045970014481027
20
-13.822677906311295
30
4.4408920985006262e-15
11
10.605847396027457
21
-14.951391061146339
31
5.5511151231257827e-15
0
ENDSEC
0
SECTION
2
OBJECTS
0
DICTIONARY
5
C
100
AcDbDictionary
3
ACAD_GROUP
350
D
3
ACAD_MLINESTYLE
350
17
0
DICTIONARY
5
D
100
AcDbDictionary
0
DICTIONARY
5
1A
330
C
100
AcDbDictionary
0
DICTIONARY
5
17
100
AcDbDictionary
0
ENDSEC
0
EOF
