M48
; DRILL file {KiCad 7.0.8} date Wed Nov  1 12:08:11 2023
; FORMAT={-:-/ absolute / inch / decimal}
; #@! TF.CreationDate,2023-11-01T12:08:11-07:00
; #@! TF.GenerationSoftware,Kicad,Pcbnew,7.0.8
; #@! TF.FileFunction,Plated,1,2,PTH
FMAT,2
INCH
; #@! TA.AperFunction,Plated,PTH,ViaDrill
T1C0.0118
; #@! TA.AperFunction,Plated,PTH,ComponentDrill
T2C0.0118
; #@! TA.AperFunction,Plated,PTH,ComponentDrill
T3C0.0197
; #@! TA.AperFunction,Plated,PTH,ComponentDrill
T4C0.0500
; #@! TA.AperFunction,Plated,PTH,ComponentDrill
T5C0.0579
; #@! TA.AperFunction,Plated,PTH,ComponentDrill
T6C0.0709
%
G90
G05
T1
X2.8191Y-3.0881
X3.5364Y-3.3605
X3.5584Y-3.2146
X3.8827Y-2.5483
X3.907Y-3.0514
X3.9541Y-3.1803
X3.9935Y-3.1873
X4.0048Y-2.4391
X4.0253Y-2.7765
X4.0329Y-3.1942
X4.0398Y-2.9822
X4.0565Y-2.5993
X4.0722Y-3.2012
X4.1116Y-3.2081
X4.1295Y-2.7035
X4.151Y-3.215
X4.1827Y-3.1001
X4.1904Y-3.222
X4.206Y-2.7881
X4.2072Y-3.0117
X4.2338Y-2.6305
X4.2597Y-2.4333
X4.2682Y-3.5077
X4.305Y-2.572
X4.3067Y-2.3895
X4.34Y-2.03
X4.3575Y-2.8656
X4.36Y-2.49
X4.388Y-2.8398
X4.4Y-2.36
X4.4205Y-2.817
X4.69Y-2.7597
X4.7081Y-2.7855
X4.7261Y-2.8113
X4.7792Y-3.6622
X4.8221Y-3.6494
X4.8655Y-3.6331
X4.9093Y-3.6153
X5.8133Y-2.0241
X5.8311Y-3.5644
X5.8322Y-3.8587
X5.8432Y-3.9786
X5.8443Y-3.9276
X5.8571Y-3.5395
X5.8832Y-3.5146
X5.9093Y-3.4897
X5.9354Y-3.4648
X5.9748Y-2.7673
X6.0327Y-3.4984
X6.0657Y-3.5129
X6.1676Y-3.5152
X6.1891Y-3.6369
X6.9123Y-3.3763
X6.9387Y-3.5113
X7.6527Y-3.2559
T2
X4.4999Y-2.1734
X4.4999Y-2.2049
X4.5137Y-2.1892
X4.5275Y-2.1734
X4.5275Y-2.2049
X4.744Y-2.1734
X4.744Y-2.2049
X4.7578Y-2.1892
X4.7716Y-2.1734
X4.7716Y-2.2049
T3
X5.0601Y-3.2146
X5.0601Y-3.249
X5.0601Y-4.0659
X5.0601Y-4.1004
X5.0995Y-3.2146
X5.0995Y-4.1004
X5.1389Y-3.2146
X5.1389Y-3.249
X5.1389Y-4.0659
X5.1389Y-4.1004
X5.6073Y-3.2146
X5.6073Y-3.249
X5.6073Y-4.0659
X5.6073Y-4.1004
X5.6467Y-3.2146
X5.6467Y-4.1004
X5.6861Y-3.2146
X5.6861Y-3.249
X5.6861Y-4.0659
X5.6861Y-4.1004
T4
X2.7367Y-3.4055
X2.7367Y-3.9764
X2.8351Y-3.9764
X2.9335Y-3.4055
X2.9335Y-3.9764
X7.8133Y-3.4055
X7.8133Y-3.9764
X7.9117Y-3.9764
X8.0101Y-3.4055
X8.0101Y-3.9764
T5
X0.6011Y-2.7097
X0.7313Y-1.9711
X0.8616Y-1.2325
X0.8647Y-2.6546
X0.9949Y-1.916
X1.1251Y-1.1774
X1.3668Y-2.686
X1.4971Y-1.9474
X1.6273Y-1.2088
X1.6304Y-2.631
X1.7606Y-1.8924
X1.8909Y-1.1538
X2.1272Y-2.6932
X2.2574Y-1.9546
X2.3876Y-1.216
X2.3907Y-2.6381
X2.521Y-1.8995
X2.6512Y-1.1609
X2.6851Y-3.5811
X2.8875Y-2.7003
X2.9351Y-3.4811
X3.0177Y-1.9617
X3.1479Y-1.2231
X3.151Y-2.6452
X3.2813Y-1.9066
X3.4115Y-1.168
X3.4977Y-3.9185
X3.6044Y-2.9536
X3.7346Y-2.215
X3.7613Y-3.8635
X3.8648Y-1.4764
X3.8679Y-2.8986
X3.9593Y-3.9999
X3.9982Y-2.16
X4.1284Y-1.4214
X4.2229Y-3.9449
X4.3213Y-3.207
X4.3286Y-4.0651
X4.4515Y-2.4684
X4.5817Y-1.7298
X4.5848Y-3.1519
X4.5922Y-4.01
X4.7151Y-2.4133
X4.8453Y-1.6747
X5.8696Y-1.7819
X5.9999Y-2.5205
X6.0985Y-1.64
X6.1227Y-4.1171
X6.1301Y-3.2591
X6.2287Y-2.3786
X6.3516Y-3.9753
X6.3589Y-3.1172
X6.492Y-4.052
X6.5865Y-1.5285
X6.7168Y-2.2671
X6.7209Y-3.9101
X6.8154Y-1.3866
X6.847Y-3.0057
X6.9456Y-2.1252
X6.9537Y-3.9706
X7.0758Y-2.8639
X7.1825Y-3.8287
X7.3034Y-1.2752
X7.4337Y-2.0138
X7.5323Y-1.1333
X7.5639Y-2.7524
X7.6625Y-1.8719
X7.7617Y-3.5811
X7.7927Y-2.6105
X8.0117Y-3.4811
X8.0637Y-1.2681
X8.194Y-2.0067
X8.2926Y-1.1262
X8.3242Y-2.7453
X8.4228Y-1.8648
X8.553Y-2.6034
X8.824Y-1.2609
X8.9543Y-1.9995
X9.0529Y-1.119
X9.0845Y-2.7381
X9.1831Y-1.8576
X9.3134Y-2.5962
X9.5898Y-1.2846
X9.72Y-2.0232
X9.8186Y-1.1427
X9.8503Y-2.7618
X9.9489Y-1.8813
X10.0791Y-2.6199
T6
G00X2.589Y-3.6595
M15
G01X2.589Y-3.7028
M16
G05
G00X3.0812Y-3.6595
M15
G01X3.0812Y-3.7028
M16
G05
G00X7.6656Y-3.6595
M15
G01X7.6656Y-3.7028
M16
G05
G00X8.1578Y-3.6595
M15
G01X8.1578Y-3.7028
M16
G05
T0
M30
