%TF.GenerationSoftware,KiCad,Pcbnew,7.0.8*%
%TF.CreationDate,2023-11-01T12:08:13-07:00*%
%TF.ProjectId,Redwood,52656477-6f6f-4642-9e6b-696361645f70,rev?*%
%TF.SameCoordinates,Original*%
%TF.FileFunction,Legend,Bot*%
%TF.FilePolarity,Positive*%
%FSLAX46Y46*%
G04 Gerber Fmt 4.6, Leading zero omitted, Abs format (unit mm)*
G04 Created by KiCad (PCBNEW 7.0.8) date 2023-11-01 12:08:13*
%MOMM*%
%LPD*%
G01*
G04 APERTURE LIST*
%ADD10C,0.200000*%
%ADD11C,0.150000*%
%ADD12C,0.250000*%
%ADD13C,0.120000*%
G04 APERTURE END LIST*
D10*
X139278112Y-92566650D02*
X139992397Y-92566650D01*
X139992397Y-92566650D02*
X140135254Y-92519031D01*
X140135254Y-92519031D02*
X140230493Y-92423793D01*
X140230493Y-92423793D02*
X140278112Y-92280936D01*
X140278112Y-92280936D02*
X140278112Y-92185698D01*
X139373350Y-92995222D02*
X139325731Y-93042841D01*
X139325731Y-93042841D02*
X139278112Y-93138079D01*
X139278112Y-93138079D02*
X139278112Y-93376174D01*
X139278112Y-93376174D02*
X139325731Y-93471412D01*
X139325731Y-93471412D02*
X139373350Y-93519031D01*
X139373350Y-93519031D02*
X139468588Y-93566650D01*
X139468588Y-93566650D02*
X139563826Y-93566650D01*
X139563826Y-93566650D02*
X139706683Y-93519031D01*
X139706683Y-93519031D02*
X140278112Y-92947603D01*
X140278112Y-92947603D02*
X140278112Y-93566650D01*
D11*
X80992747Y-104411835D02*
X81166395Y-103427028D01*
X81166395Y-103427028D02*
X80931917Y-103385683D01*
X80931917Y-103385683D02*
X80782961Y-103407772D01*
X80782961Y-103407772D02*
X80672632Y-103485025D01*
X80672632Y-103485025D02*
X80609199Y-103570547D01*
X80609199Y-103570547D02*
X80529227Y-103749861D01*
X80529227Y-103749861D02*
X80504420Y-103890547D01*
X80504420Y-103890547D02*
X80518240Y-104086399D01*
X80518240Y-104086399D02*
X80548598Y-104188459D01*
X80548598Y-104188459D02*
X80625851Y-104298788D01*
X80625851Y-104298788D02*
X80758269Y-104370491D01*
X80758269Y-104370491D02*
X80992747Y-104411835D01*
X79701644Y-103507228D02*
X79585879Y-104163767D01*
X80002274Y-103173408D02*
X80112718Y-103918187D01*
X80112718Y-103918187D02*
X79503075Y-103810690D01*
X79056093Y-103054924D02*
X78962302Y-103038386D01*
X78962302Y-103038386D02*
X78860241Y-103068744D01*
X78860241Y-103068744D02*
X78805077Y-103107371D01*
X78805077Y-103107371D02*
X78741643Y-103192893D01*
X78741643Y-103192893D02*
X78661672Y-103372206D01*
X78661672Y-103372206D02*
X78620327Y-103606685D01*
X78620327Y-103606685D02*
X78634147Y-103802536D01*
X78634147Y-103802536D02*
X78664505Y-103904596D01*
X78664505Y-103904596D02*
X78703131Y-103959761D01*
X78703131Y-103959761D02*
X78788653Y-104023194D01*
X78788653Y-104023194D02*
X78882445Y-104039732D01*
X78882445Y-104039732D02*
X78984505Y-104009374D01*
X78984505Y-104009374D02*
X79039669Y-103970748D01*
X79039669Y-103970748D02*
X79103103Y-103885226D01*
X79103103Y-103885226D02*
X79183074Y-103705912D01*
X79183074Y-103705912D02*
X79224419Y-103471434D01*
X79224419Y-103471434D02*
X79210599Y-103275583D01*
X79210599Y-103275583D02*
X79180242Y-103173522D01*
X79180242Y-103173522D02*
X79141615Y-103118358D01*
X79141615Y-103118358D02*
X79056093Y-103054924D01*
X131368156Y-58056184D02*
X131261014Y-58091898D01*
X131261014Y-58091898D02*
X131082442Y-58091898D01*
X131082442Y-58091898D02*
X131011014Y-58056184D01*
X131011014Y-58056184D02*
X130975299Y-58020469D01*
X130975299Y-58020469D02*
X130939585Y-57949041D01*
X130939585Y-57949041D02*
X130939585Y-57877612D01*
X130939585Y-57877612D02*
X130975299Y-57806184D01*
X130975299Y-57806184D02*
X131011014Y-57770469D01*
X131011014Y-57770469D02*
X131082442Y-57734755D01*
X131082442Y-57734755D02*
X131225299Y-57699041D01*
X131225299Y-57699041D02*
X131296728Y-57663326D01*
X131296728Y-57663326D02*
X131332442Y-57627612D01*
X131332442Y-57627612D02*
X131368156Y-57556184D01*
X131368156Y-57556184D02*
X131368156Y-57484755D01*
X131368156Y-57484755D02*
X131332442Y-57413326D01*
X131332442Y-57413326D02*
X131296728Y-57377612D01*
X131296728Y-57377612D02*
X131225299Y-57341898D01*
X131225299Y-57341898D02*
X131046728Y-57341898D01*
X131046728Y-57341898D02*
X130939585Y-57377612D01*
X130689585Y-57341898D02*
X130511013Y-58091898D01*
X130511013Y-58091898D02*
X130368156Y-57556184D01*
X130368156Y-57556184D02*
X130225299Y-58091898D01*
X130225299Y-58091898D02*
X130046728Y-57341898D01*
X129368156Y-58091898D02*
X129796727Y-58091898D01*
X129582442Y-58091898D02*
X129582442Y-57341898D01*
X129582442Y-57341898D02*
X129653870Y-57449041D01*
X129653870Y-57449041D02*
X129725299Y-57520469D01*
X129725299Y-57520469D02*
X129796727Y-57556184D01*
D12*
X133961528Y-63253591D02*
X134009147Y-63396448D01*
X134009147Y-63396448D02*
X134056766Y-63444067D01*
X134056766Y-63444067D02*
X134152004Y-63491686D01*
X134152004Y-63491686D02*
X134294861Y-63491686D01*
X134294861Y-63491686D02*
X134390099Y-63444067D01*
X134390099Y-63444067D02*
X134437719Y-63396448D01*
X134437719Y-63396448D02*
X134485338Y-63301210D01*
X134485338Y-63301210D02*
X134485338Y-62920258D01*
X134485338Y-62920258D02*
X133485338Y-62920258D01*
X133485338Y-62920258D02*
X133485338Y-63253591D01*
X133485338Y-63253591D02*
X133532957Y-63348829D01*
X133532957Y-63348829D02*
X133580576Y-63396448D01*
X133580576Y-63396448D02*
X133675814Y-63444067D01*
X133675814Y-63444067D02*
X133771052Y-63444067D01*
X133771052Y-63444067D02*
X133866290Y-63396448D01*
X133866290Y-63396448D02*
X133913909Y-63348829D01*
X133913909Y-63348829D02*
X133961528Y-63253591D01*
X133961528Y-63253591D02*
X133961528Y-62920258D01*
X133485338Y-64110734D02*
X133485338Y-64301210D01*
X133485338Y-64301210D02*
X133532957Y-64396448D01*
X133532957Y-64396448D02*
X133628195Y-64491686D01*
X133628195Y-64491686D02*
X133818671Y-64539305D01*
X133818671Y-64539305D02*
X134152004Y-64539305D01*
X134152004Y-64539305D02*
X134342480Y-64491686D01*
X134342480Y-64491686D02*
X134437719Y-64396448D01*
X134437719Y-64396448D02*
X134485338Y-64301210D01*
X134485338Y-64301210D02*
X134485338Y-64110734D01*
X134485338Y-64110734D02*
X134437719Y-64015496D01*
X134437719Y-64015496D02*
X134342480Y-63920258D01*
X134342480Y-63920258D02*
X134152004Y-63872639D01*
X134152004Y-63872639D02*
X133818671Y-63872639D01*
X133818671Y-63872639D02*
X133628195Y-63920258D01*
X133628195Y-63920258D02*
X133532957Y-64015496D01*
X133532957Y-64015496D02*
X133485338Y-64110734D01*
X133485338Y-65158353D02*
X133485338Y-65348829D01*
X133485338Y-65348829D02*
X133532957Y-65444067D01*
X133532957Y-65444067D02*
X133628195Y-65539305D01*
X133628195Y-65539305D02*
X133818671Y-65586924D01*
X133818671Y-65586924D02*
X134152004Y-65586924D01*
X134152004Y-65586924D02*
X134342480Y-65539305D01*
X134342480Y-65539305D02*
X134437719Y-65444067D01*
X134437719Y-65444067D02*
X134485338Y-65348829D01*
X134485338Y-65348829D02*
X134485338Y-65158353D01*
X134485338Y-65158353D02*
X134437719Y-65063115D01*
X134437719Y-65063115D02*
X134342480Y-64967877D01*
X134342480Y-64967877D02*
X134152004Y-64920258D01*
X134152004Y-64920258D02*
X133818671Y-64920258D01*
X133818671Y-64920258D02*
X133628195Y-64967877D01*
X133628195Y-64967877D02*
X133532957Y-65063115D01*
X133532957Y-65063115D02*
X133485338Y-65158353D01*
X133485338Y-65872639D02*
X133485338Y-66444067D01*
X134485338Y-66158353D02*
X133485338Y-66158353D01*
D11*
X109489126Y-61099684D02*
X109527753Y-61154848D01*
X109527753Y-61154848D02*
X109660171Y-61226551D01*
X109660171Y-61226551D02*
X109753962Y-61243089D01*
X109753962Y-61243089D02*
X109902918Y-61221000D01*
X109902918Y-61221000D02*
X110013247Y-61143747D01*
X110013247Y-61143747D02*
X110076680Y-61058225D01*
X110076680Y-61058225D02*
X110156652Y-60878911D01*
X110156652Y-60878911D02*
X110181459Y-60738224D01*
X110181459Y-60738224D02*
X110167639Y-60542373D01*
X110167639Y-60542373D02*
X110137281Y-60440313D01*
X110137281Y-60440313D02*
X110060028Y-60329984D01*
X110060028Y-60329984D02*
X109927610Y-60258281D01*
X109927610Y-60258281D02*
X109833819Y-60241743D01*
X109833819Y-60241743D02*
X109684863Y-60263832D01*
X109684863Y-60263832D02*
X109629698Y-60302459D01*
X109317967Y-60150785D02*
X108661429Y-60035019D01*
X108661429Y-60035019D02*
X108909841Y-61094248D01*
X204214566Y-54700176D02*
X204040918Y-53715369D01*
X204040918Y-53715369D02*
X203806440Y-53756713D01*
X203806440Y-53756713D02*
X203674022Y-53828416D01*
X203674022Y-53828416D02*
X203596769Y-53938745D01*
X203596769Y-53938745D02*
X203566411Y-54040805D01*
X203566411Y-54040805D02*
X203552591Y-54236657D01*
X203552591Y-54236657D02*
X203577398Y-54377343D01*
X203577398Y-54377343D02*
X203657370Y-54556657D01*
X203657370Y-54556657D02*
X203720803Y-54642179D01*
X203720803Y-54642179D02*
X203831132Y-54719432D01*
X203831132Y-54719432D02*
X203980088Y-54741521D01*
X203980088Y-54741521D02*
X204214566Y-54700176D01*
X203119544Y-53974539D02*
X203064379Y-53935912D01*
X203064379Y-53935912D02*
X202962319Y-53905555D01*
X202962319Y-53905555D02*
X202727841Y-53946899D01*
X202727841Y-53946899D02*
X202642319Y-54010333D01*
X202642319Y-54010333D02*
X202603692Y-54065498D01*
X202603692Y-54065498D02*
X202573334Y-54167558D01*
X202573334Y-54167558D02*
X202589872Y-54261349D01*
X202589872Y-54261349D02*
X202661575Y-54393767D01*
X202661575Y-54393767D02*
X203323549Y-54857287D01*
X203323549Y-54857287D02*
X202713907Y-54964783D01*
X202211989Y-54037858D02*
X201555451Y-54153623D01*
X201555451Y-54153623D02*
X202151159Y-55064011D01*
X98717114Y-65900454D02*
X98772278Y-65861827D01*
X98772278Y-65861827D02*
X98843981Y-65729409D01*
X98843981Y-65729409D02*
X98860519Y-65635618D01*
X98860519Y-65635618D02*
X98838430Y-65486662D01*
X98838430Y-65486662D02*
X98761177Y-65376333D01*
X98761177Y-65376333D02*
X98675655Y-65312900D01*
X98675655Y-65312900D02*
X98496341Y-65232928D01*
X98496341Y-65232928D02*
X98355654Y-65208121D01*
X98355654Y-65208121D02*
X98159803Y-65221941D01*
X98159803Y-65221941D02*
X98057743Y-65252299D01*
X98057743Y-65252299D02*
X97947414Y-65329552D01*
X97947414Y-65329552D02*
X97875711Y-65461970D01*
X97875711Y-65461970D02*
X97859173Y-65555761D01*
X97859173Y-65555761D02*
X97881262Y-65704717D01*
X97881262Y-65704717D02*
X97919889Y-65759882D01*
X97853737Y-66135046D02*
X97798572Y-66173673D01*
X97798572Y-66173673D02*
X97735139Y-66259195D01*
X97735139Y-66259195D02*
X97693794Y-66493673D01*
X97693794Y-66493673D02*
X97724152Y-66595734D01*
X97724152Y-66595734D02*
X97762778Y-66650898D01*
X97762778Y-66650898D02*
X97848301Y-66714332D01*
X97848301Y-66714332D02*
X97942092Y-66730870D01*
X97942092Y-66730870D02*
X98091048Y-66708781D01*
X98091048Y-66708781D02*
X98753022Y-66245261D01*
X98753022Y-66245261D02*
X98645526Y-66854904D01*
X67341768Y-77018959D02*
X67515416Y-76034152D01*
X67515416Y-76034152D02*
X67280938Y-75992807D01*
X67280938Y-75992807D02*
X67131982Y-76014896D01*
X67131982Y-76014896D02*
X67021653Y-76092149D01*
X67021653Y-76092149D02*
X66958220Y-76177671D01*
X66958220Y-76177671D02*
X66878248Y-76356985D01*
X66878248Y-76356985D02*
X66853441Y-76497671D01*
X66853441Y-76497671D02*
X66867261Y-76693523D01*
X66867261Y-76693523D02*
X66897619Y-76795583D01*
X66897619Y-76795583D02*
X66974872Y-76905912D01*
X66974872Y-76905912D02*
X67107290Y-76977615D01*
X67107290Y-76977615D02*
X67341768Y-77018959D01*
X65841109Y-76754353D02*
X66403856Y-76853580D01*
X66122482Y-76803966D02*
X66296130Y-75819159D01*
X66296130Y-75819159D02*
X66365115Y-75976383D01*
X66365115Y-75976383D02*
X66442368Y-76086712D01*
X66442368Y-76086712D02*
X66527890Y-76150146D01*
X65123740Y-75612435D02*
X65592696Y-75695124D01*
X65592696Y-75695124D02*
X65556902Y-76172349D01*
X65556902Y-76172349D02*
X65518276Y-76117185D01*
X65518276Y-76117185D02*
X65432753Y-76053751D01*
X65432753Y-76053751D02*
X65198275Y-76012406D01*
X65198275Y-76012406D02*
X65096215Y-76042764D01*
X65096215Y-76042764D02*
X65041051Y-76081391D01*
X65041051Y-76081391D02*
X64977617Y-76166913D01*
X64977617Y-76166913D02*
X64936272Y-76401391D01*
X64936272Y-76401391D02*
X64966630Y-76503451D01*
X64966630Y-76503451D02*
X65005257Y-76558616D01*
X65005257Y-76558616D02*
X65090779Y-76622049D01*
X65090779Y-76622049D02*
X65325257Y-76663394D01*
X65325257Y-76663394D02*
X65427317Y-76633036D01*
X65427317Y-76633036D02*
X65482482Y-76594410D01*
X220218489Y-35758355D02*
X220044841Y-34773548D01*
X220044841Y-34773548D02*
X219810363Y-34814892D01*
X219810363Y-34814892D02*
X219677945Y-34886595D01*
X219677945Y-34886595D02*
X219600692Y-34996924D01*
X219600692Y-34996924D02*
X219570334Y-35098984D01*
X219570334Y-35098984D02*
X219556514Y-35294836D01*
X219556514Y-35294836D02*
X219581321Y-35435522D01*
X219581321Y-35435522D02*
X219661293Y-35614836D01*
X219661293Y-35614836D02*
X219724726Y-35700358D01*
X219724726Y-35700358D02*
X219835055Y-35777611D01*
X219835055Y-35777611D02*
X219984011Y-35799700D01*
X219984011Y-35799700D02*
X220218489Y-35758355D01*
X219123467Y-35032718D02*
X219068302Y-34994091D01*
X219068302Y-34994091D02*
X218966242Y-34963734D01*
X218966242Y-34963734D02*
X218731764Y-35005078D01*
X218731764Y-35005078D02*
X218646242Y-35068512D01*
X218646242Y-35068512D02*
X218607615Y-35123677D01*
X218607615Y-35123677D02*
X218577257Y-35225737D01*
X218577257Y-35225737D02*
X218593795Y-35319528D01*
X218593795Y-35319528D02*
X218665498Y-35451946D01*
X218665498Y-35451946D02*
X219327472Y-35915466D01*
X219327472Y-35915466D02*
X218717830Y-36022962D01*
X218185554Y-35198097D02*
X218130390Y-35159471D01*
X218130390Y-35159471D02*
X218028330Y-35129113D01*
X218028330Y-35129113D02*
X217793852Y-35170458D01*
X217793852Y-35170458D02*
X217708329Y-35233891D01*
X217708329Y-35233891D02*
X217669703Y-35289056D01*
X217669703Y-35289056D02*
X217639345Y-35391116D01*
X217639345Y-35391116D02*
X217655883Y-35484907D01*
X217655883Y-35484907D02*
X217727585Y-35617325D01*
X217727585Y-35617325D02*
X218389560Y-36080845D01*
X218389560Y-36080845D02*
X217779917Y-36188341D01*
D10*
X118081302Y-48907204D02*
X118081302Y-49621489D01*
X118081302Y-49621489D02*
X118128921Y-49764346D01*
X118128921Y-49764346D02*
X118224159Y-49859585D01*
X118224159Y-49859585D02*
X118367016Y-49907204D01*
X118367016Y-49907204D02*
X118462254Y-49907204D01*
X117081302Y-49907204D02*
X117652730Y-49907204D01*
X117367016Y-49907204D02*
X117367016Y-48907204D01*
X117367016Y-48907204D02*
X117462254Y-49050061D01*
X117462254Y-49050061D02*
X117557492Y-49145299D01*
X117557492Y-49145299D02*
X117652730Y-49192918D01*
D11*
X73488806Y-39415094D02*
X73662455Y-38430286D01*
X73662455Y-38430286D02*
X73427977Y-38388941D01*
X73427977Y-38388941D02*
X73279021Y-38411030D01*
X73279021Y-38411030D02*
X73168692Y-38488283D01*
X73168692Y-38488283D02*
X73105258Y-38573805D01*
X73105258Y-38573805D02*
X73025287Y-38753119D01*
X73025287Y-38753119D02*
X73000480Y-38893806D01*
X73000480Y-38893806D02*
X73014300Y-39089657D01*
X73014300Y-39089657D02*
X73044657Y-39191717D01*
X73044657Y-39191717D02*
X73121911Y-39302046D01*
X73121911Y-39302046D02*
X73254328Y-39373749D01*
X73254328Y-39373749D02*
X73488806Y-39415094D01*
X72771438Y-38273176D02*
X72161795Y-38165679D01*
X72161795Y-38165679D02*
X72423913Y-38598727D01*
X72423913Y-38598727D02*
X72283226Y-38573920D01*
X72283226Y-38573920D02*
X72181166Y-38604278D01*
X72181166Y-38604278D02*
X72126001Y-38642904D01*
X72126001Y-38642904D02*
X72062568Y-38728426D01*
X72062568Y-38728426D02*
X72021223Y-38962904D01*
X72021223Y-38962904D02*
X72051581Y-39064965D01*
X72051581Y-39064965D02*
X72090207Y-39120129D01*
X72090207Y-39120129D02*
X72175729Y-39183563D01*
X72175729Y-39183563D02*
X72457103Y-39233176D01*
X72457103Y-39233176D02*
X72559163Y-39202819D01*
X72559163Y-39202819D02*
X72614328Y-39164192D01*
X108959153Y-62642592D02*
X108997780Y-62697756D01*
X108997780Y-62697756D02*
X109130198Y-62769459D01*
X109130198Y-62769459D02*
X109223989Y-62785997D01*
X109223989Y-62785997D02*
X109372945Y-62763908D01*
X109372945Y-62763908D02*
X109483274Y-62686655D01*
X109483274Y-62686655D02*
X109546707Y-62601133D01*
X109546707Y-62601133D02*
X109626679Y-62421819D01*
X109626679Y-62421819D02*
X109651486Y-62281132D01*
X109651486Y-62281132D02*
X109637666Y-62085281D01*
X109637666Y-62085281D02*
X109607308Y-61983221D01*
X109607308Y-61983221D02*
X109530055Y-61872892D01*
X109530055Y-61872892D02*
X109397637Y-61801189D01*
X109397637Y-61801189D02*
X109303846Y-61784651D01*
X109303846Y-61784651D02*
X109154890Y-61806740D01*
X109154890Y-61806740D02*
X109099725Y-61845367D01*
X108225247Y-61594465D02*
X108694203Y-61677155D01*
X108694203Y-61677155D02*
X108658409Y-62154380D01*
X108658409Y-62154380D02*
X108619782Y-62099215D01*
X108619782Y-62099215D02*
X108534260Y-62035782D01*
X108534260Y-62035782D02*
X108299782Y-61994437D01*
X108299782Y-61994437D02*
X108197722Y-62024795D01*
X108197722Y-62024795D02*
X108142557Y-62063421D01*
X108142557Y-62063421D02*
X108079124Y-62148943D01*
X108079124Y-62148943D02*
X108037779Y-62383421D01*
X108037779Y-62383421D02*
X108068137Y-62485482D01*
X108068137Y-62485482D02*
X108106763Y-62540646D01*
X108106763Y-62540646D02*
X108192285Y-62604080D01*
X108192285Y-62604080D02*
X108426763Y-62645425D01*
X108426763Y-62645425D02*
X108528824Y-62615067D01*
X108528824Y-62615067D02*
X108583988Y-62576440D01*
X223526487Y-54518941D02*
X223352839Y-53534134D01*
X223352839Y-53534134D02*
X223118361Y-53575478D01*
X223118361Y-53575478D02*
X222985943Y-53647181D01*
X222985943Y-53647181D02*
X222908690Y-53757510D01*
X222908690Y-53757510D02*
X222878332Y-53859570D01*
X222878332Y-53859570D02*
X222864512Y-54055422D01*
X222864512Y-54055422D02*
X222889319Y-54196108D01*
X222889319Y-54196108D02*
X222969291Y-54375422D01*
X222969291Y-54375422D02*
X223032724Y-54460944D01*
X223032724Y-54460944D02*
X223143053Y-54538197D01*
X223143053Y-54538197D02*
X223292009Y-54560286D01*
X223292009Y-54560286D02*
X223526487Y-54518941D01*
X222431465Y-53793304D02*
X222376300Y-53754677D01*
X222376300Y-53754677D02*
X222274240Y-53724320D01*
X222274240Y-53724320D02*
X222039762Y-53765664D01*
X222039762Y-53765664D02*
X221954240Y-53829098D01*
X221954240Y-53829098D02*
X221915613Y-53884263D01*
X221915613Y-53884263D02*
X221885255Y-53986323D01*
X221885255Y-53986323D02*
X221901793Y-54080114D01*
X221901793Y-54080114D02*
X221973496Y-54212532D01*
X221973496Y-54212532D02*
X222635470Y-54676052D01*
X222635470Y-54676052D02*
X222025828Y-54783548D01*
X221363853Y-54320028D02*
X221449375Y-54256595D01*
X221449375Y-54256595D02*
X221488002Y-54201430D01*
X221488002Y-54201430D02*
X221518359Y-54099370D01*
X221518359Y-54099370D02*
X221510090Y-54052474D01*
X221510090Y-54052474D02*
X221446657Y-53966952D01*
X221446657Y-53966952D02*
X221391492Y-53928326D01*
X221391492Y-53928326D02*
X221289432Y-53897968D01*
X221289432Y-53897968D02*
X221101850Y-53931044D01*
X221101850Y-53931044D02*
X221016327Y-53994477D01*
X221016327Y-53994477D02*
X220977701Y-54049642D01*
X220977701Y-54049642D02*
X220947343Y-54151702D01*
X220947343Y-54151702D02*
X220955612Y-54198598D01*
X220955612Y-54198598D02*
X221019046Y-54284120D01*
X221019046Y-54284120D02*
X221074210Y-54322746D01*
X221074210Y-54322746D02*
X221176270Y-54353104D01*
X221176270Y-54353104D02*
X221363853Y-54320028D01*
X221363853Y-54320028D02*
X221465913Y-54350386D01*
X221465913Y-54350386D02*
X221521077Y-54389013D01*
X221521077Y-54389013D02*
X221584511Y-54474535D01*
X221584511Y-54474535D02*
X221617587Y-54662117D01*
X221617587Y-54662117D02*
X221587229Y-54764178D01*
X221587229Y-54764178D02*
X221548603Y-54819342D01*
X221548603Y-54819342D02*
X221463080Y-54882776D01*
X221463080Y-54882776D02*
X221275498Y-54915851D01*
X221275498Y-54915851D02*
X221173438Y-54885494D01*
X221173438Y-54885494D02*
X221118273Y-54846867D01*
X221118273Y-54846867D02*
X221054840Y-54761345D01*
X221054840Y-54761345D02*
X221021764Y-54573762D01*
X221021764Y-54573762D02*
X221052121Y-54471702D01*
X221052121Y-54471702D02*
X221090748Y-54416538D01*
X221090748Y-54416538D02*
X221176270Y-54353104D01*
X54176886Y-39233861D02*
X54350535Y-38249053D01*
X54350535Y-38249053D02*
X54116057Y-38207708D01*
X54116057Y-38207708D02*
X53967101Y-38229797D01*
X53967101Y-38229797D02*
X53856772Y-38307050D01*
X53856772Y-38307050D02*
X53793338Y-38392572D01*
X53793338Y-38392572D02*
X53713367Y-38571886D01*
X53713367Y-38571886D02*
X53688560Y-38712573D01*
X53688560Y-38712573D02*
X53702380Y-38908424D01*
X53702380Y-38908424D02*
X53732737Y-39010484D01*
X53732737Y-39010484D02*
X53809991Y-39120813D01*
X53809991Y-39120813D02*
X53942408Y-39192516D01*
X53942408Y-39192516D02*
X54176886Y-39233861D01*
X53396085Y-38177465D02*
X53357458Y-38122300D01*
X53357458Y-38122300D02*
X53271936Y-38058867D01*
X53271936Y-38058867D02*
X53037458Y-38017522D01*
X53037458Y-38017522D02*
X52935397Y-38047880D01*
X52935397Y-38047880D02*
X52880233Y-38086506D01*
X52880233Y-38086506D02*
X52816799Y-38172029D01*
X52816799Y-38172029D02*
X52800261Y-38265820D01*
X52800261Y-38265820D02*
X52822350Y-38414776D01*
X52822350Y-38414776D02*
X53285870Y-39076750D01*
X53285870Y-39076750D02*
X52676227Y-38969254D01*
X91525069Y-58715268D02*
X91698717Y-57730461D01*
X91698717Y-57730461D02*
X91464239Y-57689116D01*
X91464239Y-57689116D02*
X91315283Y-57711205D01*
X91315283Y-57711205D02*
X91204954Y-57788458D01*
X91204954Y-57788458D02*
X91141521Y-57873980D01*
X91141521Y-57873980D02*
X91061549Y-58053294D01*
X91061549Y-58053294D02*
X91036742Y-58193980D01*
X91036742Y-58193980D02*
X91050562Y-58389832D01*
X91050562Y-58389832D02*
X91080920Y-58491892D01*
X91080920Y-58491892D02*
X91158173Y-58602221D01*
X91158173Y-58602221D02*
X91290591Y-58673924D01*
X91290591Y-58673924D02*
X91525069Y-58715268D01*
X90024410Y-58450662D02*
X90587157Y-58549889D01*
X90305783Y-58500275D02*
X90479431Y-57515468D01*
X90479431Y-57515468D02*
X90548416Y-57672692D01*
X90548416Y-57672692D02*
X90625669Y-57783021D01*
X90625669Y-57783021D02*
X90711191Y-57846455D01*
X89086497Y-58285282D02*
X89649245Y-58384510D01*
X89367871Y-58334896D02*
X89541519Y-57350088D01*
X89541519Y-57350088D02*
X89610504Y-57507313D01*
X89610504Y-57507313D02*
X89687757Y-57617642D01*
X89687757Y-57617642D02*
X89773279Y-57681076D01*
X241275025Y-54613376D02*
X241101377Y-53628569D01*
X241101377Y-53628569D02*
X240866899Y-53669913D01*
X240866899Y-53669913D02*
X240734481Y-53741616D01*
X240734481Y-53741616D02*
X240657228Y-53851945D01*
X240657228Y-53851945D02*
X240626870Y-53954005D01*
X240626870Y-53954005D02*
X240613050Y-54149857D01*
X240613050Y-54149857D02*
X240637857Y-54290543D01*
X240637857Y-54290543D02*
X240717829Y-54469857D01*
X240717829Y-54469857D02*
X240781262Y-54555379D01*
X240781262Y-54555379D02*
X240891591Y-54632632D01*
X240891591Y-54632632D02*
X241040547Y-54654721D01*
X241040547Y-54654721D02*
X241275025Y-54613376D01*
X240180003Y-53887739D02*
X240124838Y-53849112D01*
X240124838Y-53849112D02*
X240022778Y-53818755D01*
X240022778Y-53818755D02*
X239788300Y-53860099D01*
X239788300Y-53860099D02*
X239702778Y-53923533D01*
X239702778Y-53923533D02*
X239664151Y-53978698D01*
X239664151Y-53978698D02*
X239633793Y-54080758D01*
X239633793Y-54080758D02*
X239650331Y-54174549D01*
X239650331Y-54174549D02*
X239722034Y-54306967D01*
X239722034Y-54306967D02*
X240384008Y-54770487D01*
X240384008Y-54770487D02*
X239774366Y-54877983D01*
X239305409Y-54960673D02*
X239117827Y-54993749D01*
X239117827Y-54993749D02*
X239015767Y-54963391D01*
X239015767Y-54963391D02*
X238960602Y-54924764D01*
X238960602Y-54924764D02*
X238842004Y-54800615D01*
X238842004Y-54800615D02*
X238762033Y-54621302D01*
X238762033Y-54621302D02*
X238695881Y-54246137D01*
X238695881Y-54246137D02*
X238726239Y-54144077D01*
X238726239Y-54144077D02*
X238764865Y-54088912D01*
X238764865Y-54088912D02*
X238850388Y-54025479D01*
X238850388Y-54025479D02*
X239037970Y-53992403D01*
X239037970Y-53992403D02*
X239140030Y-54022761D01*
X239140030Y-54022761D02*
X239195195Y-54061387D01*
X239195195Y-54061387D02*
X239258628Y-54146909D01*
X239258628Y-54146909D02*
X239299973Y-54381387D01*
X239299973Y-54381387D02*
X239269615Y-54483448D01*
X239269615Y-54483448D02*
X239230989Y-54538612D01*
X239230989Y-54538612D02*
X239145467Y-54602046D01*
X239145467Y-54602046D02*
X238957884Y-54635122D01*
X238957884Y-54635122D02*
X238855824Y-54604764D01*
X238855824Y-54604764D02*
X238800659Y-54566137D01*
X238800659Y-54566137D02*
X238737226Y-54480615D01*
X131368156Y-67675259D02*
X131261014Y-67710973D01*
X131261014Y-67710973D02*
X131082442Y-67710973D01*
X131082442Y-67710973D02*
X131011014Y-67675259D01*
X131011014Y-67675259D02*
X130975299Y-67639544D01*
X130975299Y-67639544D02*
X130939585Y-67568116D01*
X130939585Y-67568116D02*
X130939585Y-67496687D01*
X130939585Y-67496687D02*
X130975299Y-67425259D01*
X130975299Y-67425259D02*
X131011014Y-67389544D01*
X131011014Y-67389544D02*
X131082442Y-67353830D01*
X131082442Y-67353830D02*
X131225299Y-67318116D01*
X131225299Y-67318116D02*
X131296728Y-67282401D01*
X131296728Y-67282401D02*
X131332442Y-67246687D01*
X131332442Y-67246687D02*
X131368156Y-67175259D01*
X131368156Y-67175259D02*
X131368156Y-67103830D01*
X131368156Y-67103830D02*
X131332442Y-67032401D01*
X131332442Y-67032401D02*
X131296728Y-66996687D01*
X131296728Y-66996687D02*
X131225299Y-66960973D01*
X131225299Y-66960973D02*
X131046728Y-66960973D01*
X131046728Y-66960973D02*
X130939585Y-66996687D01*
X130689585Y-66960973D02*
X130511013Y-67710973D01*
X130511013Y-67710973D02*
X130368156Y-67175259D01*
X130368156Y-67175259D02*
X130225299Y-67710973D01*
X130225299Y-67710973D02*
X130046728Y-66960973D01*
X129796727Y-67032401D02*
X129761013Y-66996687D01*
X129761013Y-66996687D02*
X129689585Y-66960973D01*
X129689585Y-66960973D02*
X129511013Y-66960973D01*
X129511013Y-66960973D02*
X129439585Y-66996687D01*
X129439585Y-66996687D02*
X129403870Y-67032401D01*
X129403870Y-67032401D02*
X129368156Y-67103830D01*
X129368156Y-67103830D02*
X129368156Y-67175259D01*
X129368156Y-67175259D02*
X129403870Y-67282401D01*
X129403870Y-67282401D02*
X129832442Y-67710973D01*
X129832442Y-67710973D02*
X129368156Y-67710973D01*
D12*
X134445776Y-72661927D02*
X133969585Y-72328594D01*
X134445776Y-72090499D02*
X133445776Y-72090499D01*
X133445776Y-72090499D02*
X133445776Y-72471451D01*
X133445776Y-72471451D02*
X133493395Y-72566689D01*
X133493395Y-72566689D02*
X133541014Y-72614308D01*
X133541014Y-72614308D02*
X133636252Y-72661927D01*
X133636252Y-72661927D02*
X133779109Y-72661927D01*
X133779109Y-72661927D02*
X133874347Y-72614308D01*
X133874347Y-72614308D02*
X133921966Y-72566689D01*
X133921966Y-72566689D02*
X133969585Y-72471451D01*
X133969585Y-72471451D02*
X133969585Y-72090499D01*
X133921966Y-73090499D02*
X133921966Y-73423832D01*
X134445776Y-73566689D02*
X134445776Y-73090499D01*
X134445776Y-73090499D02*
X133445776Y-73090499D01*
X133445776Y-73090499D02*
X133445776Y-73566689D01*
X134398157Y-73947642D02*
X134445776Y-74090499D01*
X134445776Y-74090499D02*
X134445776Y-74328594D01*
X134445776Y-74328594D02*
X134398157Y-74423832D01*
X134398157Y-74423832D02*
X134350537Y-74471451D01*
X134350537Y-74471451D02*
X134255299Y-74519070D01*
X134255299Y-74519070D02*
X134160061Y-74519070D01*
X134160061Y-74519070D02*
X134064823Y-74471451D01*
X134064823Y-74471451D02*
X134017204Y-74423832D01*
X134017204Y-74423832D02*
X133969585Y-74328594D01*
X133969585Y-74328594D02*
X133921966Y-74138118D01*
X133921966Y-74138118D02*
X133874347Y-74042880D01*
X133874347Y-74042880D02*
X133826728Y-73995261D01*
X133826728Y-73995261D02*
X133731490Y-73947642D01*
X133731490Y-73947642D02*
X133636252Y-73947642D01*
X133636252Y-73947642D02*
X133541014Y-73995261D01*
X133541014Y-73995261D02*
X133493395Y-74042880D01*
X133493395Y-74042880D02*
X133445776Y-74138118D01*
X133445776Y-74138118D02*
X133445776Y-74376213D01*
X133445776Y-74376213D02*
X133493395Y-74519070D01*
X133921966Y-74947642D02*
X133921966Y-75280975D01*
X134445776Y-75423832D02*
X134445776Y-74947642D01*
X134445776Y-74947642D02*
X133445776Y-74947642D01*
X133445776Y-74947642D02*
X133445776Y-75423832D01*
X133445776Y-75709547D02*
X133445776Y-76280975D01*
X134445776Y-75995261D02*
X133445776Y-75995261D01*
D11*
X171104055Y-86330289D02*
X170930407Y-85345482D01*
X170930407Y-85345482D02*
X170695929Y-85386826D01*
X170695929Y-85386826D02*
X170563511Y-85458529D01*
X170563511Y-85458529D02*
X170486258Y-85568858D01*
X170486258Y-85568858D02*
X170455900Y-85670918D01*
X170455900Y-85670918D02*
X170442080Y-85866770D01*
X170442080Y-85866770D02*
X170466887Y-86007456D01*
X170466887Y-86007456D02*
X170546859Y-86186770D01*
X170546859Y-86186770D02*
X170610292Y-86272292D01*
X170610292Y-86272292D02*
X170720621Y-86349545D01*
X170720621Y-86349545D02*
X170869577Y-86371634D01*
X170869577Y-86371634D02*
X171104055Y-86330289D01*
X170039390Y-85502592D02*
X169429747Y-85610088D01*
X169429747Y-85610088D02*
X169824168Y-85927370D01*
X169824168Y-85927370D02*
X169683482Y-85952177D01*
X169683482Y-85952177D02*
X169597959Y-86015611D01*
X169597959Y-86015611D02*
X169559333Y-86070775D01*
X169559333Y-86070775D02*
X169528975Y-86172836D01*
X169528975Y-86172836D02*
X169570320Y-86407314D01*
X169570320Y-86407314D02*
X169633753Y-86492836D01*
X169633753Y-86492836D02*
X169688918Y-86531463D01*
X169688918Y-86531463D02*
X169790978Y-86561820D01*
X169790978Y-86561820D02*
X170072352Y-86512206D01*
X170072352Y-86512206D02*
X170157874Y-86448773D01*
X170157874Y-86448773D02*
X170196501Y-86393608D01*
X168665483Y-86760275D02*
X169228231Y-86661048D01*
X168946857Y-86710662D02*
X168773209Y-85725854D01*
X168773209Y-85725854D02*
X168891807Y-85850003D01*
X168891807Y-85850003D02*
X169002136Y-85927256D01*
X169002136Y-85927256D02*
X169104196Y-85957614D01*
X191241067Y-104541452D02*
X191067419Y-103556645D01*
X191067419Y-103556645D02*
X190832941Y-103597989D01*
X190832941Y-103597989D02*
X190700523Y-103669692D01*
X190700523Y-103669692D02*
X190623270Y-103780021D01*
X190623270Y-103780021D02*
X190592912Y-103882081D01*
X190592912Y-103882081D02*
X190579092Y-104077933D01*
X190579092Y-104077933D02*
X190603899Y-104218619D01*
X190603899Y-104218619D02*
X190683871Y-104397933D01*
X190683871Y-104397933D02*
X190747304Y-104483455D01*
X190747304Y-104483455D02*
X190857633Y-104560708D01*
X190857633Y-104560708D02*
X191006589Y-104582797D01*
X191006589Y-104582797D02*
X191241067Y-104541452D01*
X190176402Y-103713755D02*
X189566759Y-103821251D01*
X189566759Y-103821251D02*
X189961180Y-104138533D01*
X189961180Y-104138533D02*
X189820494Y-104163340D01*
X189820494Y-104163340D02*
X189734971Y-104226774D01*
X189734971Y-104226774D02*
X189696345Y-104281938D01*
X189696345Y-104281938D02*
X189665987Y-104383999D01*
X189665987Y-104383999D02*
X189707332Y-104618477D01*
X189707332Y-104618477D02*
X189770765Y-104703999D01*
X189770765Y-104703999D02*
X189825930Y-104742626D01*
X189825930Y-104742626D02*
X189927990Y-104772983D01*
X189927990Y-104772983D02*
X190209364Y-104723369D01*
X190209364Y-104723369D02*
X190294886Y-104659936D01*
X190294886Y-104659936D02*
X190333513Y-104604771D01*
X189078433Y-104342539D02*
X189163955Y-104279106D01*
X189163955Y-104279106D02*
X189202582Y-104223941D01*
X189202582Y-104223941D02*
X189232939Y-104121881D01*
X189232939Y-104121881D02*
X189224670Y-104074985D01*
X189224670Y-104074985D02*
X189161237Y-103989463D01*
X189161237Y-103989463D02*
X189106072Y-103950837D01*
X189106072Y-103950837D02*
X189004012Y-103920479D01*
X189004012Y-103920479D02*
X188816430Y-103953555D01*
X188816430Y-103953555D02*
X188730907Y-104016988D01*
X188730907Y-104016988D02*
X188692281Y-104072153D01*
X188692281Y-104072153D02*
X188661923Y-104174213D01*
X188661923Y-104174213D02*
X188670192Y-104221109D01*
X188670192Y-104221109D02*
X188733626Y-104306631D01*
X188733626Y-104306631D02*
X188788790Y-104345257D01*
X188788790Y-104345257D02*
X188890850Y-104375615D01*
X188890850Y-104375615D02*
X189078433Y-104342539D01*
X189078433Y-104342539D02*
X189180493Y-104372897D01*
X189180493Y-104372897D02*
X189235657Y-104411524D01*
X189235657Y-104411524D02*
X189299091Y-104497046D01*
X189299091Y-104497046D02*
X189332167Y-104684628D01*
X189332167Y-104684628D02*
X189301809Y-104786689D01*
X189301809Y-104786689D02*
X189263183Y-104841853D01*
X189263183Y-104841853D02*
X189177660Y-104905287D01*
X189177660Y-104905287D02*
X188990078Y-104938362D01*
X188990078Y-104938362D02*
X188888018Y-104908005D01*
X188888018Y-104908005D02*
X188832853Y-104869378D01*
X188832853Y-104869378D02*
X188769420Y-104783856D01*
X188769420Y-104783856D02*
X188736344Y-104596273D01*
X188736344Y-104596273D02*
X188766701Y-104494213D01*
X188766701Y-104494213D02*
X188805328Y-104439049D01*
X188805328Y-104439049D02*
X188890850Y-104375615D01*
X244583023Y-73373963D02*
X244409375Y-72389156D01*
X244409375Y-72389156D02*
X244174897Y-72430500D01*
X244174897Y-72430500D02*
X244042479Y-72502203D01*
X244042479Y-72502203D02*
X243965226Y-72612532D01*
X243965226Y-72612532D02*
X243934868Y-72714592D01*
X243934868Y-72714592D02*
X243921048Y-72910444D01*
X243921048Y-72910444D02*
X243945855Y-73051130D01*
X243945855Y-73051130D02*
X244025827Y-73230444D01*
X244025827Y-73230444D02*
X244089260Y-73315966D01*
X244089260Y-73315966D02*
X244199589Y-73393219D01*
X244199589Y-73393219D02*
X244348545Y-73415308D01*
X244348545Y-73415308D02*
X244583023Y-73373963D01*
X243518358Y-72546266D02*
X242908715Y-72653762D01*
X242908715Y-72653762D02*
X243303136Y-72971044D01*
X243303136Y-72971044D02*
X243162450Y-72995851D01*
X243162450Y-72995851D02*
X243076927Y-73059285D01*
X243076927Y-73059285D02*
X243038301Y-73114449D01*
X243038301Y-73114449D02*
X243007943Y-73216510D01*
X243007943Y-73216510D02*
X243049288Y-73450988D01*
X243049288Y-73450988D02*
X243112721Y-73536510D01*
X243112721Y-73536510D02*
X243167886Y-73575137D01*
X243167886Y-73575137D02*
X243269946Y-73605494D01*
X243269946Y-73605494D02*
X243551320Y-73555880D01*
X243551320Y-73555880D02*
X243636842Y-73492447D01*
X243636842Y-73492447D02*
X243675469Y-73437282D01*
X242017699Y-72810873D02*
X242486655Y-72728183D01*
X242486655Y-72728183D02*
X242616240Y-73188870D01*
X242616240Y-73188870D02*
X242561076Y-73150243D01*
X242561076Y-73150243D02*
X242459015Y-73119886D01*
X242459015Y-73119886D02*
X242224537Y-73161231D01*
X242224537Y-73161231D02*
X242139015Y-73224664D01*
X242139015Y-73224664D02*
X242100388Y-73279829D01*
X242100388Y-73279829D02*
X242070031Y-73381889D01*
X242070031Y-73381889D02*
X242111376Y-73616367D01*
X242111376Y-73616367D02*
X242174809Y-73701889D01*
X242174809Y-73701889D02*
X242229974Y-73740516D01*
X242229974Y-73740516D02*
X242332034Y-73770873D01*
X242332034Y-73770873D02*
X242566512Y-73729529D01*
X242566512Y-73729529D02*
X242652034Y-73666095D01*
X242652034Y-73666095D02*
X242690661Y-73610931D01*
X111360616Y-53250162D02*
X111399243Y-53305326D01*
X111399243Y-53305326D02*
X111531661Y-53377029D01*
X111531661Y-53377029D02*
X111625452Y-53393567D01*
X111625452Y-53393567D02*
X111774408Y-53371478D01*
X111774408Y-53371478D02*
X111884737Y-53294225D01*
X111884737Y-53294225D02*
X111948170Y-53208703D01*
X111948170Y-53208703D02*
X112028142Y-53029389D01*
X112028142Y-53029389D02*
X112052949Y-52888702D01*
X112052949Y-52888702D02*
X112039129Y-52692851D01*
X112039129Y-52692851D02*
X112008771Y-52590791D01*
X112008771Y-52590791D02*
X111931518Y-52480462D01*
X111931518Y-52480462D02*
X111799100Y-52408759D01*
X111799100Y-52408759D02*
X111705309Y-52392221D01*
X111705309Y-52392221D02*
X111556353Y-52414310D01*
X111556353Y-52414310D02*
X111501188Y-52452937D01*
X110673605Y-52210304D02*
X110861188Y-52243380D01*
X110861188Y-52243380D02*
X110946710Y-52306813D01*
X110946710Y-52306813D02*
X110985337Y-52361978D01*
X110985337Y-52361978D02*
X111054321Y-52519203D01*
X111054321Y-52519203D02*
X111068141Y-52715054D01*
X111068141Y-52715054D02*
X111001989Y-53090219D01*
X111001989Y-53090219D02*
X110938556Y-53175741D01*
X110938556Y-53175741D02*
X110883391Y-53214368D01*
X110883391Y-53214368D02*
X110781331Y-53244726D01*
X110781331Y-53244726D02*
X110593748Y-53211650D01*
X110593748Y-53211650D02*
X110508226Y-53148216D01*
X110508226Y-53148216D02*
X110469600Y-53093052D01*
X110469600Y-53093052D02*
X110439242Y-52990991D01*
X110439242Y-52990991D02*
X110480587Y-52756513D01*
X110480587Y-52756513D02*
X110544020Y-52670991D01*
X110544020Y-52670991D02*
X110599185Y-52632365D01*
X110599185Y-52632365D02*
X110701245Y-52602007D01*
X110701245Y-52602007D02*
X110888827Y-52635083D01*
X110888827Y-52635083D02*
X110974350Y-52698516D01*
X110974350Y-52698516D02*
X111012976Y-52753681D01*
X111012976Y-52753681D02*
X111043334Y-52855741D01*
X126273301Y-68807816D02*
X126684260Y-68396743D01*
X126836048Y-68907044D02*
X127009697Y-67922236D01*
X127009697Y-67922236D02*
X126634532Y-67856084D01*
X126634532Y-67856084D02*
X126532472Y-67886442D01*
X126532472Y-67886442D02*
X126477307Y-67925069D01*
X126477307Y-67925069D02*
X126413873Y-68010591D01*
X126413873Y-68010591D02*
X126389067Y-68151278D01*
X126389067Y-68151278D02*
X126419424Y-68253338D01*
X126419424Y-68253338D02*
X126458051Y-68308502D01*
X126458051Y-68308502D02*
X126543573Y-68371936D01*
X126543573Y-68371936D02*
X126918738Y-68438088D01*
X125335389Y-68642437D02*
X125898136Y-68741664D01*
X125616763Y-68692051D02*
X125790411Y-67707243D01*
X125790411Y-67707243D02*
X125859395Y-67864468D01*
X125859395Y-67864468D02*
X125936648Y-67974797D01*
X125936648Y-67974797D02*
X126022171Y-68038230D01*
X92800727Y-39596327D02*
X92974376Y-38611519D01*
X92974376Y-38611519D02*
X92739898Y-38570174D01*
X92739898Y-38570174D02*
X92590942Y-38592263D01*
X92590942Y-38592263D02*
X92480613Y-38669516D01*
X92480613Y-38669516D02*
X92417179Y-38755038D01*
X92417179Y-38755038D02*
X92337208Y-38934352D01*
X92337208Y-38934352D02*
X92312401Y-39075039D01*
X92312401Y-39075039D02*
X92326221Y-39270890D01*
X92326221Y-39270890D02*
X92356578Y-39372950D01*
X92356578Y-39372950D02*
X92433832Y-39483279D01*
X92433832Y-39483279D02*
X92566249Y-39554982D01*
X92566249Y-39554982D02*
X92800727Y-39596327D01*
X91509625Y-38691719D02*
X91393859Y-39348258D01*
X91810254Y-38357899D02*
X91920698Y-39102678D01*
X91920698Y-39102678D02*
X91311055Y-38995182D01*
X107439736Y-77110551D02*
X107478363Y-77165715D01*
X107478363Y-77165715D02*
X107610781Y-77237418D01*
X107610781Y-77237418D02*
X107704572Y-77253956D01*
X107704572Y-77253956D02*
X107853528Y-77231867D01*
X107853528Y-77231867D02*
X107963857Y-77154614D01*
X107963857Y-77154614D02*
X108027290Y-77069092D01*
X108027290Y-77069092D02*
X108107262Y-76889778D01*
X108107262Y-76889778D02*
X108132069Y-76749091D01*
X108132069Y-76749091D02*
X108118249Y-76553240D01*
X108118249Y-76553240D02*
X108087891Y-76451180D01*
X108087891Y-76451180D02*
X108010638Y-76340851D01*
X108010638Y-76340851D02*
X107878220Y-76269148D01*
X107878220Y-76269148D02*
X107784429Y-76252610D01*
X107784429Y-76252610D02*
X107635473Y-76274699D01*
X107635473Y-76274699D02*
X107580308Y-76313326D01*
X107268577Y-76161652D02*
X106658934Y-76054155D01*
X106658934Y-76054155D02*
X106921052Y-76487203D01*
X106921052Y-76487203D02*
X106780365Y-76462396D01*
X106780365Y-76462396D02*
X106678305Y-76492754D01*
X106678305Y-76492754D02*
X106623140Y-76531380D01*
X106623140Y-76531380D02*
X106559707Y-76616902D01*
X106559707Y-76616902D02*
X106518362Y-76851380D01*
X106518362Y-76851380D02*
X106548720Y-76953441D01*
X106548720Y-76953441D02*
X106587346Y-77008605D01*
X106587346Y-77008605D02*
X106672868Y-77072039D01*
X106672868Y-77072039D02*
X106954242Y-77121652D01*
X106954242Y-77121652D02*
X107056302Y-77091295D01*
X107056302Y-77091295D02*
X107111467Y-77052668D01*
X194367830Y-103990118D02*
X194194182Y-103005311D01*
X194194182Y-103005311D02*
X193959704Y-103046655D01*
X193959704Y-103046655D02*
X193827286Y-103118358D01*
X193827286Y-103118358D02*
X193750033Y-103228687D01*
X193750033Y-103228687D02*
X193719675Y-103330747D01*
X193719675Y-103330747D02*
X193705855Y-103526599D01*
X193705855Y-103526599D02*
X193730662Y-103667285D01*
X193730662Y-103667285D02*
X193810634Y-103846599D01*
X193810634Y-103846599D02*
X193874067Y-103932121D01*
X193874067Y-103932121D02*
X193984396Y-104009374D01*
X193984396Y-104009374D02*
X194133352Y-104031463D01*
X194133352Y-104031463D02*
X194367830Y-103990118D01*
X193303165Y-103162421D02*
X192693522Y-103269917D01*
X192693522Y-103269917D02*
X193087943Y-103587199D01*
X193087943Y-103587199D02*
X192947257Y-103612006D01*
X192947257Y-103612006D02*
X192861734Y-103675440D01*
X192861734Y-103675440D02*
X192823108Y-103730604D01*
X192823108Y-103730604D02*
X192792750Y-103832665D01*
X192792750Y-103832665D02*
X192834095Y-104067143D01*
X192834095Y-104067143D02*
X192897528Y-104152665D01*
X192897528Y-104152665D02*
X192952693Y-104191292D01*
X192952693Y-104191292D02*
X193054753Y-104221649D01*
X193054753Y-104221649D02*
X193336127Y-104172035D01*
X193336127Y-104172035D02*
X193421649Y-104108602D01*
X193421649Y-104108602D02*
X193460276Y-104053437D01*
X192398214Y-104337415D02*
X192210632Y-104370491D01*
X192210632Y-104370491D02*
X192108572Y-104340133D01*
X192108572Y-104340133D02*
X192053407Y-104301506D01*
X192053407Y-104301506D02*
X191934809Y-104177357D01*
X191934809Y-104177357D02*
X191854838Y-103998044D01*
X191854838Y-103998044D02*
X191788686Y-103622879D01*
X191788686Y-103622879D02*
X191819044Y-103520819D01*
X191819044Y-103520819D02*
X191857670Y-103465654D01*
X191857670Y-103465654D02*
X191943193Y-103402221D01*
X191943193Y-103402221D02*
X192130775Y-103369145D01*
X192130775Y-103369145D02*
X192232835Y-103399503D01*
X192232835Y-103399503D02*
X192288000Y-103438129D01*
X192288000Y-103438129D02*
X192351433Y-103523651D01*
X192351433Y-103523651D02*
X192392778Y-103758129D01*
X192392778Y-103758129D02*
X192362420Y-103860190D01*
X192362420Y-103860190D02*
X192323794Y-103915354D01*
X192323794Y-103915354D02*
X192238272Y-103978788D01*
X192238272Y-103978788D02*
X192050689Y-104011864D01*
X192050689Y-104011864D02*
X191948629Y-103981506D01*
X191948629Y-103981506D02*
X191893464Y-103942879D01*
X191893464Y-103942879D02*
X191830031Y-103857357D01*
X121508816Y-89794050D02*
X121682464Y-88809243D01*
X121682464Y-88809243D02*
X121447986Y-88767898D01*
X121447986Y-88767898D02*
X121299030Y-88789987D01*
X121299030Y-88789987D02*
X121188701Y-88867240D01*
X121188701Y-88867240D02*
X121125268Y-88952762D01*
X121125268Y-88952762D02*
X121045296Y-89132076D01*
X121045296Y-89132076D02*
X121020489Y-89272762D01*
X121020489Y-89272762D02*
X121034309Y-89468614D01*
X121034309Y-89468614D02*
X121064667Y-89570674D01*
X121064667Y-89570674D02*
X121141920Y-89681003D01*
X121141920Y-89681003D02*
X121274338Y-89752706D01*
X121274338Y-89752706D02*
X121508816Y-89794050D01*
X120008157Y-89529444D02*
X120570904Y-89628671D01*
X120289530Y-89579057D02*
X120463178Y-88594250D01*
X120463178Y-88594250D02*
X120532163Y-88751474D01*
X120532163Y-88751474D02*
X120609416Y-88861803D01*
X120609416Y-88861803D02*
X120694938Y-88925237D01*
X119544637Y-88867469D02*
X119646697Y-88837111D01*
X119646697Y-88837111D02*
X119701862Y-88798484D01*
X119701862Y-88798484D02*
X119765295Y-88712962D01*
X119765295Y-88712962D02*
X119773564Y-88666067D01*
X119773564Y-88666067D02*
X119743206Y-88564006D01*
X119743206Y-88564006D02*
X119704580Y-88508842D01*
X119704580Y-88508842D02*
X119619057Y-88445408D01*
X119619057Y-88445408D02*
X119431475Y-88412332D01*
X119431475Y-88412332D02*
X119329415Y-88442690D01*
X119329415Y-88442690D02*
X119274250Y-88481317D01*
X119274250Y-88481317D02*
X119210817Y-88566839D01*
X119210817Y-88566839D02*
X119202548Y-88613735D01*
X119202548Y-88613735D02*
X119232905Y-88715795D01*
X119232905Y-88715795D02*
X119271532Y-88770959D01*
X119271532Y-88770959D02*
X119357054Y-88834393D01*
X119357054Y-88834393D02*
X119544637Y-88867469D01*
X119544637Y-88867469D02*
X119630159Y-88930902D01*
X119630159Y-88930902D02*
X119668786Y-88986067D01*
X119668786Y-88986067D02*
X119699143Y-89088127D01*
X119699143Y-89088127D02*
X119666068Y-89275709D01*
X119666068Y-89275709D02*
X119602634Y-89361232D01*
X119602634Y-89361232D02*
X119547469Y-89399858D01*
X119547469Y-89399858D02*
X119445409Y-89430216D01*
X119445409Y-89430216D02*
X119257827Y-89397140D01*
X119257827Y-89397140D02*
X119172305Y-89333707D01*
X119172305Y-89333707D02*
X119133678Y-89278542D01*
X119133678Y-89278542D02*
X119103320Y-89176482D01*
X119103320Y-89176482D02*
X119136396Y-88988900D01*
X119136396Y-88988900D02*
X119199830Y-88903377D01*
X119199830Y-88903377D02*
X119254994Y-88864751D01*
X119254994Y-88864751D02*
X119357054Y-88834393D01*
X182697314Y-42374351D02*
X182523666Y-41389544D01*
X182523666Y-41389544D02*
X182289188Y-41430888D01*
X182289188Y-41430888D02*
X182156770Y-41502591D01*
X182156770Y-41502591D02*
X182079517Y-41612920D01*
X182079517Y-41612920D02*
X182049159Y-41714980D01*
X182049159Y-41714980D02*
X182035339Y-41910832D01*
X182035339Y-41910832D02*
X182060146Y-42051518D01*
X182060146Y-42051518D02*
X182140118Y-42230832D01*
X182140118Y-42230832D02*
X182203551Y-42316354D01*
X182203551Y-42316354D02*
X182313880Y-42393607D01*
X182313880Y-42393607D02*
X182462836Y-42415696D01*
X182462836Y-42415696D02*
X182697314Y-42374351D01*
X181602292Y-41648714D02*
X181547127Y-41610087D01*
X181547127Y-41610087D02*
X181445067Y-41579730D01*
X181445067Y-41579730D02*
X181210589Y-41621074D01*
X181210589Y-41621074D02*
X181125067Y-41684508D01*
X181125067Y-41684508D02*
X181086440Y-41739673D01*
X181086440Y-41739673D02*
X181056082Y-41841733D01*
X181056082Y-41841733D02*
X181072620Y-41935524D01*
X181072620Y-41935524D02*
X181144323Y-42067942D01*
X181144323Y-42067942D02*
X181806297Y-42531462D01*
X181806297Y-42531462D02*
X181196655Y-42638958D01*
X180413363Y-41761647D02*
X180319572Y-41778185D01*
X180319572Y-41778185D02*
X180234050Y-41841618D01*
X180234050Y-41841618D02*
X180195423Y-41896783D01*
X180195423Y-41896783D02*
X180165066Y-41998843D01*
X180165066Y-41998843D02*
X180151246Y-42194694D01*
X180151246Y-42194694D02*
X180192591Y-42429172D01*
X180192591Y-42429172D02*
X180272562Y-42608486D01*
X180272562Y-42608486D02*
X180335996Y-42694008D01*
X180335996Y-42694008D02*
X180391160Y-42732635D01*
X180391160Y-42732635D02*
X180493220Y-42762992D01*
X180493220Y-42762992D02*
X180587012Y-42746455D01*
X180587012Y-42746455D02*
X180672534Y-42683021D01*
X180672534Y-42683021D02*
X180711161Y-42627856D01*
X180711161Y-42627856D02*
X180741518Y-42525796D01*
X180741518Y-42525796D02*
X180755338Y-42329945D01*
X180755338Y-42329945D02*
X180713993Y-42095467D01*
X180713993Y-42095467D02*
X180634022Y-41916153D01*
X180634022Y-41916153D02*
X180570588Y-41830631D01*
X180570588Y-41830631D02*
X180515424Y-41792004D01*
X180515424Y-41792004D02*
X180413363Y-41761647D01*
X85090305Y-76924525D02*
X85263953Y-75939718D01*
X85263953Y-75939718D02*
X85029475Y-75898373D01*
X85029475Y-75898373D02*
X84880519Y-75920462D01*
X84880519Y-75920462D02*
X84770190Y-75997715D01*
X84770190Y-75997715D02*
X84706757Y-76083237D01*
X84706757Y-76083237D02*
X84626785Y-76262551D01*
X84626785Y-76262551D02*
X84601978Y-76403237D01*
X84601978Y-76403237D02*
X84615798Y-76599089D01*
X84615798Y-76599089D02*
X84646156Y-76701149D01*
X84646156Y-76701149D02*
X84723409Y-76811478D01*
X84723409Y-76811478D02*
X84855827Y-76883181D01*
X84855827Y-76883181D02*
X85090305Y-76924525D01*
X83589646Y-76659919D02*
X84152393Y-76759146D01*
X83871019Y-76709532D02*
X84044667Y-75724725D01*
X84044667Y-75724725D02*
X84113652Y-75881949D01*
X84113652Y-75881949D02*
X84190905Y-75992278D01*
X84190905Y-75992278D02*
X84276427Y-76055712D01*
X82919173Y-75526270D02*
X83106755Y-75559345D01*
X83106755Y-75559345D02*
X83192277Y-75622779D01*
X83192277Y-75622779D02*
X83230904Y-75677943D01*
X83230904Y-75677943D02*
X83299888Y-75835168D01*
X83299888Y-75835168D02*
X83313708Y-76031020D01*
X83313708Y-76031020D02*
X83247557Y-76406184D01*
X83247557Y-76406184D02*
X83184123Y-76491707D01*
X83184123Y-76491707D02*
X83128958Y-76530333D01*
X83128958Y-76530333D02*
X83026898Y-76560691D01*
X83026898Y-76560691D02*
X82839316Y-76527615D01*
X82839316Y-76527615D02*
X82753794Y-76464182D01*
X82753794Y-76464182D02*
X82715167Y-76409017D01*
X82715167Y-76409017D02*
X82684809Y-76306957D01*
X82684809Y-76306957D02*
X82726154Y-76072479D01*
X82726154Y-76072479D02*
X82789588Y-75986957D01*
X82789588Y-75986957D02*
X82844752Y-75948330D01*
X82844752Y-75948330D02*
X82946812Y-75917972D01*
X82946812Y-75917972D02*
X83134395Y-75951048D01*
X83134395Y-75951048D02*
X83219917Y-76014482D01*
X83219917Y-76014482D02*
X83258544Y-76069646D01*
X83258544Y-76069646D02*
X83288901Y-76171706D01*
X50868888Y-57994449D02*
X51042537Y-57009641D01*
X51042537Y-57009641D02*
X50808059Y-56968296D01*
X50808059Y-56968296D02*
X50659103Y-56990385D01*
X50659103Y-56990385D02*
X50548774Y-57067638D01*
X50548774Y-57067638D02*
X50485340Y-57153160D01*
X50485340Y-57153160D02*
X50405369Y-57332474D01*
X50405369Y-57332474D02*
X50380562Y-57473161D01*
X50380562Y-57473161D02*
X50394382Y-57669012D01*
X50394382Y-57669012D02*
X50424739Y-57771072D01*
X50424739Y-57771072D02*
X50501993Y-57881401D01*
X50501993Y-57881401D02*
X50634410Y-57953104D01*
X50634410Y-57953104D02*
X50868888Y-57994449D01*
X49842621Y-57233246D02*
X49944682Y-57202889D01*
X49944682Y-57202889D02*
X49999846Y-57164262D01*
X49999846Y-57164262D02*
X50063280Y-57078740D01*
X50063280Y-57078740D02*
X50071549Y-57031844D01*
X50071549Y-57031844D02*
X50041191Y-56929784D01*
X50041191Y-56929784D02*
X50002564Y-56874619D01*
X50002564Y-56874619D02*
X49917042Y-56811186D01*
X49917042Y-56811186D02*
X49729460Y-56778110D01*
X49729460Y-56778110D02*
X49627399Y-56808468D01*
X49627399Y-56808468D02*
X49572235Y-56847094D01*
X49572235Y-56847094D02*
X49508801Y-56932617D01*
X49508801Y-56932617D02*
X49500532Y-56979512D01*
X49500532Y-56979512D02*
X49530890Y-57081572D01*
X49530890Y-57081572D02*
X49569517Y-57136737D01*
X49569517Y-57136737D02*
X49655039Y-57200170D01*
X49655039Y-57200170D02*
X49842621Y-57233246D01*
X49842621Y-57233246D02*
X49928144Y-57296680D01*
X49928144Y-57296680D02*
X49966770Y-57351844D01*
X49966770Y-57351844D02*
X49997128Y-57453905D01*
X49997128Y-57453905D02*
X49964052Y-57641487D01*
X49964052Y-57641487D02*
X49900619Y-57727009D01*
X49900619Y-57727009D02*
X49845454Y-57765636D01*
X49845454Y-57765636D02*
X49743394Y-57795994D01*
X49743394Y-57795994D02*
X49555811Y-57762918D01*
X49555811Y-57762918D02*
X49470289Y-57699484D01*
X49470289Y-57699484D02*
X49431663Y-57644320D01*
X49431663Y-57644320D02*
X49401305Y-57542259D01*
X49401305Y-57542259D02*
X49434381Y-57354677D01*
X49434381Y-57354677D02*
X49497814Y-57269155D01*
X49497814Y-57269155D02*
X49552979Y-57230528D01*
X49552979Y-57230528D02*
X49655039Y-57200170D01*
X241093792Y-35301455D02*
X240920144Y-34316648D01*
X240920144Y-34316648D02*
X240685666Y-34357992D01*
X240685666Y-34357992D02*
X240553248Y-34429695D01*
X240553248Y-34429695D02*
X240475995Y-34540024D01*
X240475995Y-34540024D02*
X240445637Y-34642084D01*
X240445637Y-34642084D02*
X240431817Y-34837936D01*
X240431817Y-34837936D02*
X240456624Y-34978622D01*
X240456624Y-34978622D02*
X240536596Y-35157936D01*
X240536596Y-35157936D02*
X240600029Y-35243458D01*
X240600029Y-35243458D02*
X240710358Y-35320711D01*
X240710358Y-35320711D02*
X240859314Y-35342800D01*
X240859314Y-35342800D02*
X241093792Y-35301455D01*
X239998770Y-34575818D02*
X239943605Y-34537191D01*
X239943605Y-34537191D02*
X239841545Y-34506834D01*
X239841545Y-34506834D02*
X239607067Y-34548178D01*
X239607067Y-34548178D02*
X239521545Y-34611612D01*
X239521545Y-34611612D02*
X239482918Y-34666777D01*
X239482918Y-34666777D02*
X239452560Y-34768837D01*
X239452560Y-34768837D02*
X239469098Y-34862628D01*
X239469098Y-34862628D02*
X239540801Y-34995046D01*
X239540801Y-34995046D02*
X240202775Y-35458566D01*
X240202775Y-35458566D02*
X239593133Y-35566062D01*
X238633246Y-35058365D02*
X238749012Y-35714903D01*
X238801573Y-34641855D02*
X239160085Y-35303945D01*
X239160085Y-35303945D02*
X238550442Y-35411441D01*
X48029846Y-76837725D02*
X48203494Y-75852918D01*
X48203494Y-75852918D02*
X47969016Y-75811573D01*
X47969016Y-75811573D02*
X47820060Y-75833662D01*
X47820060Y-75833662D02*
X47709731Y-75910915D01*
X47709731Y-75910915D02*
X47646298Y-75996437D01*
X47646298Y-75996437D02*
X47566326Y-76175751D01*
X47566326Y-76175751D02*
X47541519Y-76316437D01*
X47541519Y-76316437D02*
X47555339Y-76512289D01*
X47555339Y-76512289D02*
X47585697Y-76614349D01*
X47585697Y-76614349D02*
X47662950Y-76724678D01*
X47662950Y-76724678D02*
X47795368Y-76796381D01*
X47795368Y-76796381D02*
X48029846Y-76837725D01*
X46529187Y-76573119D02*
X47091934Y-76672346D01*
X46810560Y-76622732D02*
X46984208Y-75637925D01*
X46984208Y-75637925D02*
X47053193Y-75795149D01*
X47053193Y-75795149D02*
X47130446Y-75905478D01*
X47130446Y-75905478D02*
X47215968Y-75968912D01*
X45800831Y-75767739D02*
X45685066Y-76424277D01*
X46101461Y-75433919D02*
X46211904Y-76178698D01*
X46211904Y-76178698D02*
X45602262Y-76071201D01*
X200906568Y-35939588D02*
X200732920Y-34954781D01*
X200732920Y-34954781D02*
X200498442Y-34996125D01*
X200498442Y-34996125D02*
X200366024Y-35067828D01*
X200366024Y-35067828D02*
X200288771Y-35178157D01*
X200288771Y-35178157D02*
X200258413Y-35280217D01*
X200258413Y-35280217D02*
X200244593Y-35476069D01*
X200244593Y-35476069D02*
X200269400Y-35616755D01*
X200269400Y-35616755D02*
X200349372Y-35796069D01*
X200349372Y-35796069D02*
X200412805Y-35881591D01*
X200412805Y-35881591D02*
X200523134Y-35958844D01*
X200523134Y-35958844D02*
X200672090Y-35980933D01*
X200672090Y-35980933D02*
X200906568Y-35939588D01*
X199811546Y-35213951D02*
X199756381Y-35175324D01*
X199756381Y-35175324D02*
X199654321Y-35144967D01*
X199654321Y-35144967D02*
X199419843Y-35186311D01*
X199419843Y-35186311D02*
X199334321Y-35249745D01*
X199334321Y-35249745D02*
X199295694Y-35304910D01*
X199295694Y-35304910D02*
X199265336Y-35406970D01*
X199265336Y-35406970D02*
X199281874Y-35500761D01*
X199281874Y-35500761D02*
X199353577Y-35633179D01*
X199353577Y-35633179D02*
X200015551Y-36096699D01*
X200015551Y-36096699D02*
X199405909Y-36204195D01*
X198467996Y-36369574D02*
X199030744Y-36270347D01*
X198749370Y-36319961D02*
X198575722Y-35335153D01*
X198575722Y-35335153D02*
X198694320Y-35459302D01*
X198694320Y-35459302D02*
X198804649Y-35536555D01*
X198804649Y-35536555D02*
X198906709Y-35566913D01*
X237967027Y-35852788D02*
X237793379Y-34867981D01*
X237793379Y-34867981D02*
X237558901Y-34909325D01*
X237558901Y-34909325D02*
X237426483Y-34981028D01*
X237426483Y-34981028D02*
X237349230Y-35091357D01*
X237349230Y-35091357D02*
X237318872Y-35193417D01*
X237318872Y-35193417D02*
X237305052Y-35389269D01*
X237305052Y-35389269D02*
X237329859Y-35529955D01*
X237329859Y-35529955D02*
X237409831Y-35709269D01*
X237409831Y-35709269D02*
X237473264Y-35794791D01*
X237473264Y-35794791D02*
X237583593Y-35872044D01*
X237583593Y-35872044D02*
X237732549Y-35894133D01*
X237732549Y-35894133D02*
X237967027Y-35852788D01*
X236872005Y-35127151D02*
X236816840Y-35088524D01*
X236816840Y-35088524D02*
X236714780Y-35058167D01*
X236714780Y-35058167D02*
X236480302Y-35099511D01*
X236480302Y-35099511D02*
X236394780Y-35162945D01*
X236394780Y-35162945D02*
X236356153Y-35218110D01*
X236356153Y-35218110D02*
X236325795Y-35320170D01*
X236325795Y-35320170D02*
X236342333Y-35413961D01*
X236342333Y-35413961D02*
X236414036Y-35546379D01*
X236414036Y-35546379D02*
X237076010Y-36009899D01*
X237076010Y-36009899D02*
X236466368Y-36117395D01*
X235964450Y-35190470D02*
X235354807Y-35297967D01*
X235354807Y-35297967D02*
X235749228Y-35615249D01*
X235749228Y-35615249D02*
X235608541Y-35640056D01*
X235608541Y-35640056D02*
X235523019Y-35703489D01*
X235523019Y-35703489D02*
X235484392Y-35758654D01*
X235484392Y-35758654D02*
X235454035Y-35860714D01*
X235454035Y-35860714D02*
X235495380Y-36095192D01*
X235495380Y-36095192D02*
X235558813Y-36180714D01*
X235558813Y-36180714D02*
X235613978Y-36219341D01*
X235613978Y-36219341D02*
X235716038Y-36249698D01*
X235716038Y-36249698D02*
X235997411Y-36200085D01*
X235997411Y-36200085D02*
X236082934Y-36136651D01*
X236082934Y-36136651D02*
X236121560Y-36081487D01*
X109446599Y-45755423D02*
X109620248Y-44770615D01*
X109620248Y-44770615D02*
X109385770Y-44729270D01*
X109385770Y-44729270D02*
X109236814Y-44751359D01*
X109236814Y-44751359D02*
X109126485Y-44828612D01*
X109126485Y-44828612D02*
X109063051Y-44914134D01*
X109063051Y-44914134D02*
X108983080Y-45093448D01*
X108983080Y-45093448D02*
X108958273Y-45234135D01*
X108958273Y-45234135D02*
X108972093Y-45429986D01*
X108972093Y-45429986D02*
X109002450Y-45532046D01*
X109002450Y-45532046D02*
X109079704Y-45642375D01*
X109079704Y-45642375D02*
X109212121Y-45714078D01*
X109212121Y-45714078D02*
X109446599Y-45755423D01*
X108166484Y-44514277D02*
X108635440Y-44596967D01*
X108635440Y-44596967D02*
X108599646Y-45074192D01*
X108599646Y-45074192D02*
X108561019Y-45019027D01*
X108561019Y-45019027D02*
X108475497Y-44955594D01*
X108475497Y-44955594D02*
X108241019Y-44914249D01*
X108241019Y-44914249D02*
X108138959Y-44944607D01*
X108138959Y-44944607D02*
X108083794Y-44983233D01*
X108083794Y-44983233D02*
X108020361Y-45068755D01*
X108020361Y-45068755D02*
X107979016Y-45303233D01*
X107979016Y-45303233D02*
X108009374Y-45405294D01*
X108009374Y-45405294D02*
X108048000Y-45460458D01*
X108048000Y-45460458D02*
X108133522Y-45523892D01*
X108133522Y-45523892D02*
X108368000Y-45565237D01*
X108368000Y-45565237D02*
X108470061Y-45534879D01*
X108470061Y-45534879D02*
X108525225Y-45496252D01*
X125481527Y-76000362D02*
X125536691Y-75961735D01*
X125536691Y-75961735D02*
X125608394Y-75829317D01*
X125608394Y-75829317D02*
X125624932Y-75735526D01*
X125624932Y-75735526D02*
X125602843Y-75586570D01*
X125602843Y-75586570D02*
X125525590Y-75476241D01*
X125525590Y-75476241D02*
X125440068Y-75412808D01*
X125440068Y-75412808D02*
X125260754Y-75332836D01*
X125260754Y-75332836D02*
X125120067Y-75308029D01*
X125120067Y-75308029D02*
X124924216Y-75321849D01*
X124924216Y-75321849D02*
X124822156Y-75352207D01*
X124822156Y-75352207D02*
X124711827Y-75429460D01*
X124711827Y-75429460D02*
X124640124Y-75561878D01*
X124640124Y-75561878D02*
X124623586Y-75655669D01*
X124623586Y-75655669D02*
X124645675Y-75804625D01*
X124645675Y-75804625D02*
X124684302Y-75859790D01*
X124913343Y-76480420D02*
X124882986Y-76378359D01*
X124882986Y-76378359D02*
X124844359Y-76323195D01*
X124844359Y-76323195D02*
X124758837Y-76259761D01*
X124758837Y-76259761D02*
X124711941Y-76251492D01*
X124711941Y-76251492D02*
X124609881Y-76281850D01*
X124609881Y-76281850D02*
X124554716Y-76320477D01*
X124554716Y-76320477D02*
X124491283Y-76405999D01*
X124491283Y-76405999D02*
X124458207Y-76593581D01*
X124458207Y-76593581D02*
X124488565Y-76695642D01*
X124488565Y-76695642D02*
X124527191Y-76750806D01*
X124527191Y-76750806D02*
X124612714Y-76814240D01*
X124612714Y-76814240D02*
X124659609Y-76822509D01*
X124659609Y-76822509D02*
X124761669Y-76792151D01*
X124761669Y-76792151D02*
X124816834Y-76753524D01*
X124816834Y-76753524D02*
X124880267Y-76668002D01*
X124880267Y-76668002D02*
X124913343Y-76480420D01*
X124913343Y-76480420D02*
X124976777Y-76394897D01*
X124976777Y-76394897D02*
X125031941Y-76356271D01*
X125031941Y-76356271D02*
X125134002Y-76325913D01*
X125134002Y-76325913D02*
X125321584Y-76358989D01*
X125321584Y-76358989D02*
X125407106Y-76422422D01*
X125407106Y-76422422D02*
X125445733Y-76477587D01*
X125445733Y-76477587D02*
X125476091Y-76579647D01*
X125476091Y-76579647D02*
X125443015Y-76767230D01*
X125443015Y-76767230D02*
X125379581Y-76852752D01*
X125379581Y-76852752D02*
X125324417Y-76891378D01*
X125324417Y-76891378D02*
X125222356Y-76921736D01*
X125222356Y-76921736D02*
X125034774Y-76888660D01*
X125034774Y-76888660D02*
X124949252Y-76825227D01*
X124949252Y-76825227D02*
X124910625Y-76770062D01*
X124910625Y-76770062D02*
X124880267Y-76668002D01*
X152938199Y-111295279D02*
X152764551Y-110310472D01*
X152764551Y-110310472D02*
X152530073Y-110351816D01*
X152530073Y-110351816D02*
X152397655Y-110423519D01*
X152397655Y-110423519D02*
X152320402Y-110533848D01*
X152320402Y-110533848D02*
X152290044Y-110635908D01*
X152290044Y-110635908D02*
X152276224Y-110831760D01*
X152276224Y-110831760D02*
X152301031Y-110972446D01*
X152301031Y-110972446D02*
X152381003Y-111151760D01*
X152381003Y-111151760D02*
X152444436Y-111237282D01*
X152444436Y-111237282D02*
X152554765Y-111314535D01*
X152554765Y-111314535D02*
X152703721Y-111336624D01*
X152703721Y-111336624D02*
X152938199Y-111295279D01*
X151873534Y-110467582D02*
X151263891Y-110575078D01*
X151263891Y-110575078D02*
X151658312Y-110892360D01*
X151658312Y-110892360D02*
X151517626Y-110917167D01*
X151517626Y-110917167D02*
X151432103Y-110980601D01*
X151432103Y-110980601D02*
X151393477Y-111035765D01*
X151393477Y-111035765D02*
X151363119Y-111137826D01*
X151363119Y-111137826D02*
X151404464Y-111372304D01*
X151404464Y-111372304D02*
X151467897Y-111457826D01*
X151467897Y-111457826D02*
X151523062Y-111496453D01*
X151523062Y-111496453D02*
X151625122Y-111526810D01*
X151625122Y-111526810D02*
X151906496Y-111477196D01*
X151906496Y-111477196D02*
X151992018Y-111413763D01*
X151992018Y-111413763D02*
X152030645Y-111358598D01*
X150935622Y-110632961D02*
X150279084Y-110748726D01*
X150279084Y-110748726D02*
X150874792Y-111659114D01*
X28580092Y-77438183D02*
X28753740Y-76453376D01*
X28753740Y-76453376D02*
X28519262Y-76412031D01*
X28519262Y-76412031D02*
X28370306Y-76434120D01*
X28370306Y-76434120D02*
X28259977Y-76511373D01*
X28259977Y-76511373D02*
X28196544Y-76596895D01*
X28196544Y-76596895D02*
X28116572Y-76776209D01*
X28116572Y-76776209D02*
X28091765Y-76916895D01*
X28091765Y-76916895D02*
X28105585Y-77112747D01*
X28105585Y-77112747D02*
X28135943Y-77214807D01*
X28135943Y-77214807D02*
X28213196Y-77325136D01*
X28213196Y-77325136D02*
X28345614Y-77396839D01*
X28345614Y-77396839D02*
X28580092Y-77438183D01*
X27079433Y-77173577D02*
X27642180Y-77272804D01*
X27360806Y-77223190D02*
X27534454Y-76238383D01*
X27534454Y-76238383D02*
X27603439Y-76395607D01*
X27603439Y-76395607D02*
X27680692Y-76505936D01*
X27680692Y-76505936D02*
X27766214Y-76569370D01*
X26924811Y-76130886D02*
X26315169Y-76023390D01*
X26315169Y-76023390D02*
X26577286Y-76456437D01*
X26577286Y-76456437D02*
X26436599Y-76431630D01*
X26436599Y-76431630D02*
X26334539Y-76461988D01*
X26334539Y-76461988D02*
X26279375Y-76500615D01*
X26279375Y-76500615D02*
X26215941Y-76586137D01*
X26215941Y-76586137D02*
X26174596Y-76820615D01*
X26174596Y-76820615D02*
X26204954Y-76922675D01*
X26204954Y-76922675D02*
X26243581Y-76977840D01*
X26243581Y-76977840D02*
X26329103Y-77041273D01*
X26329103Y-77041273D02*
X26610476Y-77090887D01*
X26610476Y-77090887D02*
X26712537Y-77060529D01*
X26712537Y-77060529D02*
X26767701Y-77021903D01*
X34727132Y-39834319D02*
X34900781Y-38849511D01*
X34900781Y-38849511D02*
X34666303Y-38808166D01*
X34666303Y-38808166D02*
X34517347Y-38830255D01*
X34517347Y-38830255D02*
X34407018Y-38907508D01*
X34407018Y-38907508D02*
X34343584Y-38993030D01*
X34343584Y-38993030D02*
X34263613Y-39172344D01*
X34263613Y-39172344D02*
X34238806Y-39313031D01*
X34238806Y-39313031D02*
X34252626Y-39508882D01*
X34252626Y-39508882D02*
X34282983Y-39610942D01*
X34282983Y-39610942D02*
X34360237Y-39721271D01*
X34360237Y-39721271D02*
X34492654Y-39792974D01*
X34492654Y-39792974D02*
X34727132Y-39834319D01*
X33226473Y-39569712D02*
X33789220Y-39668939D01*
X33507847Y-39619326D02*
X33681495Y-38634518D01*
X33681495Y-38634518D02*
X33750479Y-38791743D01*
X33750479Y-38791743D02*
X33827732Y-38902072D01*
X33827732Y-38902072D02*
X33913255Y-38965505D01*
X109222352Y-73133429D02*
X109277516Y-73094802D01*
X109277516Y-73094802D02*
X109349219Y-72962384D01*
X109349219Y-72962384D02*
X109365757Y-72868593D01*
X109365757Y-72868593D02*
X109343668Y-72719637D01*
X109343668Y-72719637D02*
X109266415Y-72609308D01*
X109266415Y-72609308D02*
X109180893Y-72545875D01*
X109180893Y-72545875D02*
X109001579Y-72465903D01*
X109001579Y-72465903D02*
X108860892Y-72441096D01*
X108860892Y-72441096D02*
X108665041Y-72454916D01*
X108665041Y-72454916D02*
X108562981Y-72485274D01*
X108562981Y-72485274D02*
X108452652Y-72562527D01*
X108452652Y-72562527D02*
X108380949Y-72694945D01*
X108380949Y-72694945D02*
X108364411Y-72788736D01*
X108364411Y-72788736D02*
X108386500Y-72937692D01*
X108386500Y-72937692D02*
X108425127Y-72992857D01*
X109150764Y-74087879D02*
X109249991Y-73525132D01*
X109200378Y-73806505D02*
X108215570Y-73632857D01*
X108215570Y-73632857D02*
X108372795Y-73563873D01*
X108372795Y-73563873D02*
X108483124Y-73486620D01*
X108483124Y-73486620D02*
X108546557Y-73401097D01*
X88398304Y-58163936D02*
X88571952Y-57179129D01*
X88571952Y-57179129D02*
X88337474Y-57137784D01*
X88337474Y-57137784D02*
X88188518Y-57159873D01*
X88188518Y-57159873D02*
X88078189Y-57237126D01*
X88078189Y-57237126D02*
X88014756Y-57322648D01*
X88014756Y-57322648D02*
X87934784Y-57501962D01*
X87934784Y-57501962D02*
X87909977Y-57642648D01*
X87909977Y-57642648D02*
X87923797Y-57838500D01*
X87923797Y-57838500D02*
X87954155Y-57940560D01*
X87954155Y-57940560D02*
X88031408Y-58050889D01*
X88031408Y-58050889D02*
X88163826Y-58122592D01*
X88163826Y-58122592D02*
X88398304Y-58163936D01*
X86897645Y-57899330D02*
X87460392Y-57998557D01*
X87179018Y-57948943D02*
X87352666Y-56964136D01*
X87352666Y-56964136D02*
X87421651Y-57121360D01*
X87421651Y-57121360D02*
X87498904Y-57231689D01*
X87498904Y-57231689D02*
X87584426Y-57295123D01*
X86461650Y-56807025D02*
X86367859Y-56790487D01*
X86367859Y-56790487D02*
X86265798Y-56820845D01*
X86265798Y-56820845D02*
X86210634Y-56859472D01*
X86210634Y-56859472D02*
X86147200Y-56944994D01*
X86147200Y-56944994D02*
X86067229Y-57124307D01*
X86067229Y-57124307D02*
X86025884Y-57358786D01*
X86025884Y-57358786D02*
X86039704Y-57554637D01*
X86039704Y-57554637D02*
X86070062Y-57656697D01*
X86070062Y-57656697D02*
X86108688Y-57711862D01*
X86108688Y-57711862D02*
X86194210Y-57775295D01*
X86194210Y-57775295D02*
X86288002Y-57791833D01*
X86288002Y-57791833D02*
X86390062Y-57761475D01*
X86390062Y-57761475D02*
X86445226Y-57722849D01*
X86445226Y-57722849D02*
X86508660Y-57637327D01*
X86508660Y-57637327D02*
X86588631Y-57458013D01*
X86588631Y-57458013D02*
X86629976Y-57223535D01*
X86629976Y-57223535D02*
X86616156Y-57027684D01*
X86616156Y-57027684D02*
X86585799Y-56925623D01*
X86585799Y-56925623D02*
X86547172Y-56870459D01*
X86547172Y-56870459D02*
X86461650Y-56807025D01*
X84119509Y-104963167D02*
X84293157Y-103978360D01*
X84293157Y-103978360D02*
X84058679Y-103937015D01*
X84058679Y-103937015D02*
X83909723Y-103959104D01*
X83909723Y-103959104D02*
X83799394Y-104036357D01*
X83799394Y-104036357D02*
X83735961Y-104121879D01*
X83735961Y-104121879D02*
X83655989Y-104301193D01*
X83655989Y-104301193D02*
X83631182Y-104441879D01*
X83631182Y-104441879D02*
X83645002Y-104637731D01*
X83645002Y-104637731D02*
X83675360Y-104739791D01*
X83675360Y-104739791D02*
X83752613Y-104850120D01*
X83752613Y-104850120D02*
X83885031Y-104921823D01*
X83885031Y-104921823D02*
X84119509Y-104963167D01*
X82828406Y-104058560D02*
X82712641Y-104715099D01*
X83129036Y-103724740D02*
X83239480Y-104469519D01*
X83239480Y-104469519D02*
X82629837Y-104362022D01*
X81680937Y-104533181D02*
X82243685Y-104632409D01*
X81962311Y-104582795D02*
X82135959Y-103597987D01*
X82135959Y-103597987D02*
X82204944Y-103755212D01*
X82204944Y-103755212D02*
X82282197Y-103865541D01*
X82282197Y-103865541D02*
X82367719Y-103928975D01*
X186005312Y-61134938D02*
X185831664Y-60150131D01*
X185831664Y-60150131D02*
X185597186Y-60191475D01*
X185597186Y-60191475D02*
X185464768Y-60263178D01*
X185464768Y-60263178D02*
X185387515Y-60373507D01*
X185387515Y-60373507D02*
X185357157Y-60475567D01*
X185357157Y-60475567D02*
X185343337Y-60671419D01*
X185343337Y-60671419D02*
X185368144Y-60812105D01*
X185368144Y-60812105D02*
X185448116Y-60991419D01*
X185448116Y-60991419D02*
X185511549Y-61076941D01*
X185511549Y-61076941D02*
X185621878Y-61154194D01*
X185621878Y-61154194D02*
X185770834Y-61176283D01*
X185770834Y-61176283D02*
X186005312Y-61134938D01*
X184910290Y-60409301D02*
X184855125Y-60370674D01*
X184855125Y-60370674D02*
X184753065Y-60340317D01*
X184753065Y-60340317D02*
X184518587Y-60381661D01*
X184518587Y-60381661D02*
X184433065Y-60445095D01*
X184433065Y-60445095D02*
X184394438Y-60500260D01*
X184394438Y-60500260D02*
X184364080Y-60602320D01*
X184364080Y-60602320D02*
X184380618Y-60696111D01*
X184380618Y-60696111D02*
X184452321Y-60828529D01*
X184452321Y-60828529D02*
X185114295Y-61292049D01*
X185114295Y-61292049D02*
X184504653Y-61399545D01*
X183486883Y-60563579D02*
X183674466Y-60530503D01*
X183674466Y-60530503D02*
X183776526Y-60560860D01*
X183776526Y-60560860D02*
X183831691Y-60599487D01*
X183831691Y-60599487D02*
X183950289Y-60723636D01*
X183950289Y-60723636D02*
X184030260Y-60902949D01*
X184030260Y-60902949D02*
X184096412Y-61278114D01*
X184096412Y-61278114D02*
X184066054Y-61380175D01*
X184066054Y-61380175D02*
X184027428Y-61435339D01*
X184027428Y-61435339D02*
X183941905Y-61498773D01*
X183941905Y-61498773D02*
X183754323Y-61531848D01*
X183754323Y-61531848D02*
X183652263Y-61501491D01*
X183652263Y-61501491D02*
X183597098Y-61462864D01*
X183597098Y-61462864D02*
X183533665Y-61377342D01*
X183533665Y-61377342D02*
X183492320Y-61142864D01*
X183492320Y-61142864D02*
X183522677Y-61040804D01*
X183522677Y-61040804D02*
X183561304Y-60985639D01*
X183561304Y-60985639D02*
X183646826Y-60922206D01*
X183646826Y-60922206D02*
X183834409Y-60889130D01*
X183834409Y-60889130D02*
X183936469Y-60919487D01*
X183936469Y-60919487D02*
X183991634Y-60958114D01*
X183991634Y-60958114D02*
X184055067Y-61043636D01*
X207522564Y-73460763D02*
X207348916Y-72475956D01*
X207348916Y-72475956D02*
X207114438Y-72517300D01*
X207114438Y-72517300D02*
X206982020Y-72589003D01*
X206982020Y-72589003D02*
X206904767Y-72699332D01*
X206904767Y-72699332D02*
X206874409Y-72801392D01*
X206874409Y-72801392D02*
X206860589Y-72997244D01*
X206860589Y-72997244D02*
X206885396Y-73137930D01*
X206885396Y-73137930D02*
X206965368Y-73317244D01*
X206965368Y-73317244D02*
X207028801Y-73402766D01*
X207028801Y-73402766D02*
X207139130Y-73480019D01*
X207139130Y-73480019D02*
X207288086Y-73502108D01*
X207288086Y-73502108D02*
X207522564Y-73460763D01*
X206457899Y-72633066D02*
X205848256Y-72740562D01*
X205848256Y-72740562D02*
X206242677Y-73057844D01*
X206242677Y-73057844D02*
X206101991Y-73082651D01*
X206101991Y-73082651D02*
X206016468Y-73146085D01*
X206016468Y-73146085D02*
X205977842Y-73201249D01*
X205977842Y-73201249D02*
X205947484Y-73303310D01*
X205947484Y-73303310D02*
X205988829Y-73537788D01*
X205988829Y-73537788D02*
X206052262Y-73623310D01*
X206052262Y-73623310D02*
X206107427Y-73661937D01*
X206107427Y-73661937D02*
X206209487Y-73692294D01*
X206209487Y-73692294D02*
X206490861Y-73642680D01*
X206490861Y-73642680D02*
X206576383Y-73579247D01*
X206576383Y-73579247D02*
X206615010Y-73524082D01*
X205519987Y-72798445D02*
X204910344Y-72905942D01*
X204910344Y-72905942D02*
X205304765Y-73223224D01*
X205304765Y-73223224D02*
X205164078Y-73248031D01*
X205164078Y-73248031D02*
X205078556Y-73311464D01*
X205078556Y-73311464D02*
X205039929Y-73366629D01*
X205039929Y-73366629D02*
X205009572Y-73468689D01*
X205009572Y-73468689D02*
X205050917Y-73703167D01*
X205050917Y-73703167D02*
X205114350Y-73788689D01*
X205114350Y-73788689D02*
X205169515Y-73827316D01*
X205169515Y-73827316D02*
X205271575Y-73857673D01*
X205271575Y-73857673D02*
X205552948Y-73808060D01*
X205552948Y-73808060D02*
X205638471Y-73744626D01*
X205638471Y-73744626D02*
X205677097Y-73689462D01*
X167796057Y-67569700D02*
X167622409Y-66584893D01*
X167622409Y-66584893D02*
X167387931Y-66626237D01*
X167387931Y-66626237D02*
X167255513Y-66697940D01*
X167255513Y-66697940D02*
X167178260Y-66808269D01*
X167178260Y-66808269D02*
X167147902Y-66910329D01*
X167147902Y-66910329D02*
X167134082Y-67106181D01*
X167134082Y-67106181D02*
X167158889Y-67246867D01*
X167158889Y-67246867D02*
X167238861Y-67426181D01*
X167238861Y-67426181D02*
X167302294Y-67511703D01*
X167302294Y-67511703D02*
X167412623Y-67588956D01*
X167412623Y-67588956D02*
X167561579Y-67611045D01*
X167561579Y-67611045D02*
X167796057Y-67569700D01*
X166701035Y-66844063D02*
X166645870Y-66805436D01*
X166645870Y-66805436D02*
X166543810Y-66775079D01*
X166543810Y-66775079D02*
X166309332Y-66816423D01*
X166309332Y-66816423D02*
X166223810Y-66879857D01*
X166223810Y-66879857D02*
X166185183Y-66935022D01*
X166185183Y-66935022D02*
X166154825Y-67037082D01*
X166154825Y-67037082D02*
X166171363Y-67130873D01*
X166171363Y-67130873D02*
X166243066Y-67263291D01*
X166243066Y-67263291D02*
X166905040Y-67726811D01*
X166905040Y-67726811D02*
X166295398Y-67834307D01*
X165230733Y-67006610D02*
X165699689Y-66923920D01*
X165699689Y-66923920D02*
X165829274Y-67384607D01*
X165829274Y-67384607D02*
X165774110Y-67345980D01*
X165774110Y-67345980D02*
X165672049Y-67315623D01*
X165672049Y-67315623D02*
X165437571Y-67356968D01*
X165437571Y-67356968D02*
X165352049Y-67420401D01*
X165352049Y-67420401D02*
X165313422Y-67475566D01*
X165313422Y-67475566D02*
X165283065Y-67577626D01*
X165283065Y-67577626D02*
X165324410Y-67812104D01*
X165324410Y-67812104D02*
X165387843Y-67897626D01*
X165387843Y-67897626D02*
X165443008Y-67936253D01*
X165443008Y-67936253D02*
X165545068Y-67966610D01*
X165545068Y-67966610D02*
X165779546Y-67925266D01*
X165779546Y-67925266D02*
X165865068Y-67861832D01*
X165865068Y-67861832D02*
X165903695Y-67806668D01*
X112573364Y-46306756D02*
X112747013Y-45321948D01*
X112747013Y-45321948D02*
X112512535Y-45280603D01*
X112512535Y-45280603D02*
X112363579Y-45302692D01*
X112363579Y-45302692D02*
X112253250Y-45379945D01*
X112253250Y-45379945D02*
X112189816Y-45465467D01*
X112189816Y-45465467D02*
X112109845Y-45644781D01*
X112109845Y-45644781D02*
X112085038Y-45785468D01*
X112085038Y-45785468D02*
X112098858Y-45981319D01*
X112098858Y-45981319D02*
X112129215Y-46083379D01*
X112129215Y-46083379D02*
X112206469Y-46193708D01*
X112206469Y-46193708D02*
X112338886Y-46265411D01*
X112338886Y-46265411D02*
X112573364Y-46306756D01*
X111340144Y-45073879D02*
X111527727Y-45106955D01*
X111527727Y-45106955D02*
X111613249Y-45170388D01*
X111613249Y-45170388D02*
X111651876Y-45225553D01*
X111651876Y-45225553D02*
X111720860Y-45382778D01*
X111720860Y-45382778D02*
X111734680Y-45578629D01*
X111734680Y-45578629D02*
X111668528Y-45953794D01*
X111668528Y-45953794D02*
X111605095Y-46039316D01*
X111605095Y-46039316D02*
X111549930Y-46077943D01*
X111549930Y-46077943D02*
X111447870Y-46108301D01*
X111447870Y-46108301D02*
X111260287Y-46075225D01*
X111260287Y-46075225D02*
X111174765Y-46011791D01*
X111174765Y-46011791D02*
X111136139Y-45956627D01*
X111136139Y-45956627D02*
X111105781Y-45854566D01*
X111105781Y-45854566D02*
X111147126Y-45620088D01*
X111147126Y-45620088D02*
X111210559Y-45534566D01*
X111210559Y-45534566D02*
X111265724Y-45495940D01*
X111265724Y-45495940D02*
X111367784Y-45465582D01*
X111367784Y-45465582D02*
X111555366Y-45498658D01*
X111555366Y-45498658D02*
X111640889Y-45562091D01*
X111640889Y-45562091D02*
X111679515Y-45617256D01*
X111679515Y-45617256D02*
X111709873Y-45719316D01*
X70180809Y-58175682D02*
X70354458Y-57190874D01*
X70354458Y-57190874D02*
X70119980Y-57149529D01*
X70119980Y-57149529D02*
X69971024Y-57171618D01*
X69971024Y-57171618D02*
X69860695Y-57248871D01*
X69860695Y-57248871D02*
X69797261Y-57334393D01*
X69797261Y-57334393D02*
X69717290Y-57513707D01*
X69717290Y-57513707D02*
X69692483Y-57654394D01*
X69692483Y-57654394D02*
X69706303Y-57850245D01*
X69706303Y-57850245D02*
X69736660Y-57952305D01*
X69736660Y-57952305D02*
X69813914Y-58062634D01*
X69813914Y-58062634D02*
X69946331Y-58134337D01*
X69946331Y-58134337D02*
X70180809Y-58175682D01*
X69149106Y-57993764D02*
X68961524Y-57960689D01*
X68961524Y-57960689D02*
X68876001Y-57897255D01*
X68876001Y-57897255D02*
X68837375Y-57842091D01*
X68837375Y-57842091D02*
X68768390Y-57684866D01*
X68768390Y-57684866D02*
X68754571Y-57489014D01*
X68754571Y-57489014D02*
X68820722Y-57113850D01*
X68820722Y-57113850D02*
X68884156Y-57028327D01*
X68884156Y-57028327D02*
X68939320Y-56989701D01*
X68939320Y-56989701D02*
X69041381Y-56959343D01*
X69041381Y-56959343D02*
X69228963Y-56992419D01*
X69228963Y-56992419D02*
X69314485Y-57055852D01*
X69314485Y-57055852D02*
X69353112Y-57111017D01*
X69353112Y-57111017D02*
X69383470Y-57213077D01*
X69383470Y-57213077D02*
X69342125Y-57447555D01*
X69342125Y-57447555D02*
X69278691Y-57533077D01*
X69278691Y-57533077D02*
X69223527Y-57571704D01*
X69223527Y-57571704D02*
X69121467Y-57602062D01*
X69121467Y-57602062D02*
X68933884Y-57568986D01*
X68933884Y-57568986D02*
X68848362Y-57505552D01*
X68848362Y-57505552D02*
X68809735Y-57450388D01*
X68809735Y-57450388D02*
X68779378Y-57348328D01*
X112055991Y-56263962D02*
X112853217Y-56404534D01*
X112853217Y-56404534D02*
X112938739Y-56467968D01*
X112938739Y-56467968D02*
X112977366Y-56523133D01*
X112977366Y-56523133D02*
X113007723Y-56625193D01*
X113007723Y-56625193D02*
X112974648Y-56812775D01*
X112974648Y-56812775D02*
X112911214Y-56898297D01*
X112911214Y-56898297D02*
X112856049Y-56936924D01*
X112856049Y-56936924D02*
X112753989Y-56967282D01*
X112753989Y-56967282D02*
X111956764Y-56826709D01*
X112767923Y-57985165D02*
X112867151Y-57422418D01*
X112817537Y-57703792D02*
X111832730Y-57530143D01*
X111832730Y-57530143D02*
X111989954Y-57461159D01*
X111989954Y-57461159D02*
X112100283Y-57383906D01*
X112100283Y-57383906D02*
X112163717Y-57298384D01*
X103818553Y-76441056D02*
X103857180Y-76496220D01*
X103857180Y-76496220D02*
X103989598Y-76567923D01*
X103989598Y-76567923D02*
X104083389Y-76584461D01*
X104083389Y-76584461D02*
X104232345Y-76562372D01*
X104232345Y-76562372D02*
X104342674Y-76485119D01*
X104342674Y-76485119D02*
X104406107Y-76399597D01*
X104406107Y-76399597D02*
X104486079Y-76220283D01*
X104486079Y-76220283D02*
X104510886Y-76079596D01*
X104510886Y-76079596D02*
X104497066Y-75883745D01*
X104497066Y-75883745D02*
X104466708Y-75781685D01*
X104466708Y-75781685D02*
X104389455Y-75671356D01*
X104389455Y-75671356D02*
X104257037Y-75599653D01*
X104257037Y-75599653D02*
X104163246Y-75583115D01*
X104163246Y-75583115D02*
X104014290Y-75605204D01*
X104014290Y-75605204D02*
X103959125Y-75643831D01*
X103073660Y-75729467D02*
X102957894Y-76386006D01*
X103374289Y-75395647D02*
X103484733Y-76140426D01*
X103484733Y-76140426D02*
X102875090Y-76032930D01*
X122477464Y-111726708D02*
X122651112Y-110741901D01*
X122651112Y-110741901D02*
X122416634Y-110700556D01*
X122416634Y-110700556D02*
X122267678Y-110722645D01*
X122267678Y-110722645D02*
X122157349Y-110799898D01*
X122157349Y-110799898D02*
X122093916Y-110885420D01*
X122093916Y-110885420D02*
X122013944Y-111064734D01*
X122013944Y-111064734D02*
X121989137Y-111205420D01*
X121989137Y-111205420D02*
X122002957Y-111401272D01*
X122002957Y-111401272D02*
X122033315Y-111503332D01*
X122033315Y-111503332D02*
X122110568Y-111613661D01*
X122110568Y-111613661D02*
X122242986Y-111685364D01*
X122242986Y-111685364D02*
X122477464Y-111726708D01*
X121186361Y-110822101D02*
X121070596Y-111478640D01*
X121486991Y-110488281D02*
X121597435Y-111233060D01*
X121597435Y-111233060D02*
X120987792Y-111125563D01*
X120758750Y-110504933D02*
X120720123Y-110449769D01*
X120720123Y-110449769D02*
X120634601Y-110386335D01*
X120634601Y-110386335D02*
X120400123Y-110344990D01*
X120400123Y-110344990D02*
X120298063Y-110375348D01*
X120298063Y-110375348D02*
X120242898Y-110413975D01*
X120242898Y-110413975D02*
X120179465Y-110499497D01*
X120179465Y-110499497D02*
X120162927Y-110593288D01*
X120162927Y-110593288D02*
X120185016Y-110742244D01*
X120185016Y-110742244D02*
X120648535Y-111404219D01*
X120648535Y-111404219D02*
X120038892Y-111296722D01*
D10*
X133675250Y-93233318D02*
X132960965Y-93233318D01*
X132960965Y-93233318D02*
X132818108Y-93280937D01*
X132818108Y-93280937D02*
X132722870Y-93376175D01*
X132722870Y-93376175D02*
X132675250Y-93519032D01*
X132675250Y-93519032D02*
X132675250Y-93614270D01*
X133675250Y-92852365D02*
X133675250Y-92233318D01*
X133675250Y-92233318D02*
X133294298Y-92566651D01*
X133294298Y-92566651D02*
X133294298Y-92423794D01*
X133294298Y-92423794D02*
X133246679Y-92328556D01*
X133246679Y-92328556D02*
X133199060Y-92280937D01*
X133199060Y-92280937D02*
X133103822Y-92233318D01*
X133103822Y-92233318D02*
X132865727Y-92233318D01*
X132865727Y-92233318D02*
X132770489Y-92280937D01*
X132770489Y-92280937D02*
X132722870Y-92328556D01*
X132722870Y-92328556D02*
X132675250Y-92423794D01*
X132675250Y-92423794D02*
X132675250Y-92709508D01*
X132675250Y-92709508D02*
X132722870Y-92804746D01*
X132722870Y-92804746D02*
X132770489Y-92852365D01*
D11*
X110246551Y-68840828D02*
X111043777Y-68981400D01*
X111043777Y-68981400D02*
X111129299Y-69044834D01*
X111129299Y-69044834D02*
X111167926Y-69099999D01*
X111167926Y-69099999D02*
X111198283Y-69202059D01*
X111198283Y-69202059D02*
X111165208Y-69389641D01*
X111165208Y-69389641D02*
X111101774Y-69475163D01*
X111101774Y-69475163D02*
X111046609Y-69513790D01*
X111046609Y-69513790D02*
X110944549Y-69544148D01*
X110944549Y-69544148D02*
X110147324Y-69403575D01*
X110166694Y-69842174D02*
X110111530Y-69880800D01*
X110111530Y-69880800D02*
X110048096Y-69966323D01*
X110048096Y-69966323D02*
X110006752Y-70200801D01*
X110006752Y-70200801D02*
X110037109Y-70302861D01*
X110037109Y-70302861D02*
X110075736Y-70358025D01*
X110075736Y-70358025D02*
X110161258Y-70421459D01*
X110161258Y-70421459D02*
X110255049Y-70437997D01*
X110255049Y-70437997D02*
X110404005Y-70415908D01*
X110404005Y-70415908D02*
X111065980Y-69952388D01*
X111065980Y-69952388D02*
X110958483Y-70562031D01*
X226834484Y-73279531D02*
X226660836Y-72294724D01*
X226660836Y-72294724D02*
X226426358Y-72336068D01*
X226426358Y-72336068D02*
X226293940Y-72407771D01*
X226293940Y-72407771D02*
X226216687Y-72518100D01*
X226216687Y-72518100D02*
X226186329Y-72620160D01*
X226186329Y-72620160D02*
X226172509Y-72816012D01*
X226172509Y-72816012D02*
X226197316Y-72956698D01*
X226197316Y-72956698D02*
X226277288Y-73136012D01*
X226277288Y-73136012D02*
X226340721Y-73221534D01*
X226340721Y-73221534D02*
X226451050Y-73298787D01*
X226451050Y-73298787D02*
X226600006Y-73320876D01*
X226600006Y-73320876D02*
X226834484Y-73279531D01*
X225769819Y-72451834D02*
X225160176Y-72559330D01*
X225160176Y-72559330D02*
X225554597Y-72876612D01*
X225554597Y-72876612D02*
X225413911Y-72901419D01*
X225413911Y-72901419D02*
X225328388Y-72964853D01*
X225328388Y-72964853D02*
X225289762Y-73020017D01*
X225289762Y-73020017D02*
X225259404Y-73122078D01*
X225259404Y-73122078D02*
X225300749Y-73356556D01*
X225300749Y-73356556D02*
X225364182Y-73442078D01*
X225364182Y-73442078D02*
X225419347Y-73480705D01*
X225419347Y-73480705D02*
X225521407Y-73511062D01*
X225521407Y-73511062D02*
X225802781Y-73461448D01*
X225802781Y-73461448D02*
X225888303Y-73398015D01*
X225888303Y-73398015D02*
X225926930Y-73342850D01*
X224373938Y-73036441D02*
X224489704Y-73692979D01*
X224542265Y-72619931D02*
X224900777Y-73282021D01*
X224900777Y-73282021D02*
X224291134Y-73389517D01*
X164488058Y-48809113D02*
X164314410Y-47824306D01*
X164314410Y-47824306D02*
X164079932Y-47865650D01*
X164079932Y-47865650D02*
X163947514Y-47937353D01*
X163947514Y-47937353D02*
X163870261Y-48047682D01*
X163870261Y-48047682D02*
X163839903Y-48149742D01*
X163839903Y-48149742D02*
X163826083Y-48345594D01*
X163826083Y-48345594D02*
X163850890Y-48486280D01*
X163850890Y-48486280D02*
X163930862Y-48665594D01*
X163930862Y-48665594D02*
X163994295Y-48751116D01*
X163994295Y-48751116D02*
X164104624Y-48828369D01*
X164104624Y-48828369D02*
X164253580Y-48850458D01*
X164253580Y-48850458D02*
X164488058Y-48809113D01*
X162987399Y-49073720D02*
X163550146Y-48974493D01*
X163268772Y-49024106D02*
X163095124Y-48039299D01*
X163095124Y-48039299D02*
X163213722Y-48163447D01*
X163213722Y-48163447D02*
X163324051Y-48240701D01*
X163324051Y-48240701D02*
X163426111Y-48271058D01*
X162518442Y-49156410D02*
X162330860Y-49189486D01*
X162330860Y-49189486D02*
X162228800Y-49159128D01*
X162228800Y-49159128D02*
X162173635Y-49120501D01*
X162173635Y-49120501D02*
X162055037Y-48996352D01*
X162055037Y-48996352D02*
X161975066Y-48817039D01*
X161975066Y-48817039D02*
X161908914Y-48441874D01*
X161908914Y-48441874D02*
X161939272Y-48339814D01*
X161939272Y-48339814D02*
X161977898Y-48284649D01*
X161977898Y-48284649D02*
X162063421Y-48221216D01*
X162063421Y-48221216D02*
X162251003Y-48188140D01*
X162251003Y-48188140D02*
X162353063Y-48218498D01*
X162353063Y-48218498D02*
X162408228Y-48257124D01*
X162408228Y-48257124D02*
X162471661Y-48342646D01*
X162471661Y-48342646D02*
X162513006Y-48577124D01*
X162513006Y-48577124D02*
X162482648Y-48679185D01*
X162482648Y-48679185D02*
X162444022Y-48734349D01*
X162444022Y-48734349D02*
X162358500Y-48797783D01*
X162358500Y-48797783D02*
X162170917Y-48830859D01*
X162170917Y-48830859D02*
X162068857Y-48800501D01*
X162068857Y-48800501D02*
X162013692Y-48761874D01*
X162013692Y-48761874D02*
X161950259Y-48676352D01*
X247709788Y-72822630D02*
X247536140Y-71837823D01*
X247536140Y-71837823D02*
X247301662Y-71879167D01*
X247301662Y-71879167D02*
X247169244Y-71950870D01*
X247169244Y-71950870D02*
X247091991Y-72061199D01*
X247091991Y-72061199D02*
X247061633Y-72163259D01*
X247061633Y-72163259D02*
X247047813Y-72359111D01*
X247047813Y-72359111D02*
X247072620Y-72499797D01*
X247072620Y-72499797D02*
X247152592Y-72679111D01*
X247152592Y-72679111D02*
X247216025Y-72764633D01*
X247216025Y-72764633D02*
X247326354Y-72841886D01*
X247326354Y-72841886D02*
X247475310Y-72863975D01*
X247475310Y-72863975D02*
X247709788Y-72822630D01*
X246645123Y-71994933D02*
X246035480Y-72102429D01*
X246035480Y-72102429D02*
X246429901Y-72419711D01*
X246429901Y-72419711D02*
X246289215Y-72444518D01*
X246289215Y-72444518D02*
X246203692Y-72507952D01*
X246203692Y-72507952D02*
X246165066Y-72563116D01*
X246165066Y-72563116D02*
X246134708Y-72665177D01*
X246134708Y-72665177D02*
X246176053Y-72899655D01*
X246176053Y-72899655D02*
X246239486Y-72985177D01*
X246239486Y-72985177D02*
X246294651Y-73023804D01*
X246294651Y-73023804D02*
X246396711Y-73054161D01*
X246396711Y-73054161D02*
X246678085Y-73004547D01*
X246678085Y-73004547D02*
X246763607Y-72941114D01*
X246763607Y-72941114D02*
X246802234Y-72885949D01*
X245191359Y-72251271D02*
X245378942Y-72218195D01*
X245378942Y-72218195D02*
X245481002Y-72248552D01*
X245481002Y-72248552D02*
X245536167Y-72287179D01*
X245536167Y-72287179D02*
X245654765Y-72411328D01*
X245654765Y-72411328D02*
X245734736Y-72590641D01*
X245734736Y-72590641D02*
X245800888Y-72965806D01*
X245800888Y-72965806D02*
X245770530Y-73067867D01*
X245770530Y-73067867D02*
X245731904Y-73123031D01*
X245731904Y-73123031D02*
X245646381Y-73186465D01*
X245646381Y-73186465D02*
X245458799Y-73219540D01*
X245458799Y-73219540D02*
X245356739Y-73189183D01*
X245356739Y-73189183D02*
X245301574Y-73150556D01*
X245301574Y-73150556D02*
X245238141Y-73065034D01*
X245238141Y-73065034D02*
X245196796Y-72830556D01*
X245196796Y-72830556D02*
X245227153Y-72728496D01*
X245227153Y-72728496D02*
X245265780Y-72673331D01*
X245265780Y-72673331D02*
X245351302Y-72609898D01*
X245351302Y-72609898D02*
X245538885Y-72576822D01*
X245538885Y-72576822D02*
X245640945Y-72607179D01*
X245640945Y-72607179D02*
X245696110Y-72645806D01*
X245696110Y-72645806D02*
X245759543Y-72731328D01*
X31419134Y-58594906D02*
X31592783Y-57610098D01*
X31592783Y-57610098D02*
X31358305Y-57568753D01*
X31358305Y-57568753D02*
X31209349Y-57590842D01*
X31209349Y-57590842D02*
X31099020Y-57668095D01*
X31099020Y-57668095D02*
X31035586Y-57753617D01*
X31035586Y-57753617D02*
X30955615Y-57932931D01*
X30955615Y-57932931D02*
X30930808Y-58073618D01*
X30930808Y-58073618D02*
X30944628Y-58269469D01*
X30944628Y-58269469D02*
X30974985Y-58371529D01*
X30974985Y-58371529D02*
X31052239Y-58481858D01*
X31052239Y-58481858D02*
X31184656Y-58553561D01*
X31184656Y-58553561D02*
X31419134Y-58594906D01*
X30701766Y-57452988D02*
X30045228Y-57337222D01*
X30045228Y-57337222D02*
X30293640Y-58396451D01*
X244401790Y-54062042D02*
X244228142Y-53077235D01*
X244228142Y-53077235D02*
X243993664Y-53118579D01*
X243993664Y-53118579D02*
X243861246Y-53190282D01*
X243861246Y-53190282D02*
X243783993Y-53300611D01*
X243783993Y-53300611D02*
X243753635Y-53402671D01*
X243753635Y-53402671D02*
X243739815Y-53598523D01*
X243739815Y-53598523D02*
X243764622Y-53739209D01*
X243764622Y-53739209D02*
X243844594Y-53918523D01*
X243844594Y-53918523D02*
X243908027Y-54004045D01*
X243908027Y-54004045D02*
X244018356Y-54081298D01*
X244018356Y-54081298D02*
X244167312Y-54103387D01*
X244167312Y-54103387D02*
X244401790Y-54062042D01*
X243337125Y-53234345D02*
X242727482Y-53341841D01*
X242727482Y-53341841D02*
X243121903Y-53659123D01*
X243121903Y-53659123D02*
X242981217Y-53683930D01*
X242981217Y-53683930D02*
X242895694Y-53747364D01*
X242895694Y-53747364D02*
X242857068Y-53802528D01*
X242857068Y-53802528D02*
X242826710Y-53904589D01*
X242826710Y-53904589D02*
X242868055Y-54139067D01*
X242868055Y-54139067D02*
X242931488Y-54224589D01*
X242931488Y-54224589D02*
X242986653Y-54263216D01*
X242986653Y-54263216D02*
X243088713Y-54293573D01*
X243088713Y-54293573D02*
X243370087Y-54243959D01*
X243370087Y-54243959D02*
X243455609Y-54180526D01*
X243455609Y-54180526D02*
X243494236Y-54125361D01*
X242117839Y-53449338D02*
X242024048Y-53465876D01*
X242024048Y-53465876D02*
X241938526Y-53529309D01*
X241938526Y-53529309D02*
X241899899Y-53584474D01*
X241899899Y-53584474D02*
X241869542Y-53686534D01*
X241869542Y-53686534D02*
X241855722Y-53882385D01*
X241855722Y-53882385D02*
X241897067Y-54116863D01*
X241897067Y-54116863D02*
X241977038Y-54296177D01*
X241977038Y-54296177D02*
X242040472Y-54381699D01*
X242040472Y-54381699D02*
X242095636Y-54420326D01*
X242095636Y-54420326D02*
X242197696Y-54450683D01*
X242197696Y-54450683D02*
X242291488Y-54434146D01*
X242291488Y-54434146D02*
X242377010Y-54370712D01*
X242377010Y-54370712D02*
X242415637Y-54315547D01*
X242415637Y-54315547D02*
X242445994Y-54213487D01*
X242445994Y-54213487D02*
X242459814Y-54017636D01*
X242459814Y-54017636D02*
X242418469Y-53783158D01*
X242418469Y-53783158D02*
X242338498Y-53603844D01*
X242338498Y-53603844D02*
X242275064Y-53518322D01*
X242275064Y-53518322D02*
X242219900Y-53479695D01*
X242219900Y-53479695D02*
X242117839Y-53449338D01*
X88217071Y-77475858D02*
X88390719Y-76491051D01*
X88390719Y-76491051D02*
X88156241Y-76449706D01*
X88156241Y-76449706D02*
X88007285Y-76471795D01*
X88007285Y-76471795D02*
X87896956Y-76549048D01*
X87896956Y-76549048D02*
X87833523Y-76634570D01*
X87833523Y-76634570D02*
X87753551Y-76813884D01*
X87753551Y-76813884D02*
X87728744Y-76954570D01*
X87728744Y-76954570D02*
X87742564Y-77150422D01*
X87742564Y-77150422D02*
X87772922Y-77252482D01*
X87772922Y-77252482D02*
X87850175Y-77362811D01*
X87850175Y-77362811D02*
X87982593Y-77434514D01*
X87982593Y-77434514D02*
X88217071Y-77475858D01*
X86716412Y-77211252D02*
X87279159Y-77310479D01*
X86997785Y-77260865D02*
X87171433Y-76276058D01*
X87171433Y-76276058D02*
X87240418Y-76433282D01*
X87240418Y-76433282D02*
X87317671Y-76543611D01*
X87317671Y-76543611D02*
X87403193Y-76607045D01*
X86561790Y-76168561D02*
X85905252Y-76052796D01*
X85905252Y-76052796D02*
X86153664Y-77112024D01*
X124816813Y-71033462D02*
X124990461Y-70048655D01*
X124990461Y-70048655D02*
X124755983Y-70007310D01*
X124755983Y-70007310D02*
X124607027Y-70029399D01*
X124607027Y-70029399D02*
X124496698Y-70106652D01*
X124496698Y-70106652D02*
X124433265Y-70192174D01*
X124433265Y-70192174D02*
X124353293Y-70371488D01*
X124353293Y-70371488D02*
X124328486Y-70512174D01*
X124328486Y-70512174D02*
X124342306Y-70708026D01*
X124342306Y-70708026D02*
X124372664Y-70810086D01*
X124372664Y-70810086D02*
X124449917Y-70920415D01*
X124449917Y-70920415D02*
X124582335Y-70992118D01*
X124582335Y-70992118D02*
X124816813Y-71033462D01*
X123316154Y-70768856D02*
X123878901Y-70868083D01*
X123597527Y-70818469D02*
X123771175Y-69833662D01*
X123771175Y-69833662D02*
X123840160Y-69990886D01*
X123840160Y-69990886D02*
X123917413Y-70101215D01*
X123917413Y-70101215D02*
X124002935Y-70164649D01*
X123098099Y-69811687D02*
X123059472Y-69756523D01*
X123059472Y-69756523D02*
X122973950Y-69693089D01*
X122973950Y-69693089D02*
X122739472Y-69651744D01*
X122739472Y-69651744D02*
X122637412Y-69682102D01*
X122637412Y-69682102D02*
X122582247Y-69720729D01*
X122582247Y-69720729D02*
X122518814Y-69806251D01*
X122518814Y-69806251D02*
X122502276Y-69900042D01*
X122502276Y-69900042D02*
X122524365Y-70048998D01*
X122524365Y-70048998D02*
X122987884Y-70710973D01*
X122987884Y-70710973D02*
X122378241Y-70603476D01*
X189313309Y-79895526D02*
X189139661Y-78910719D01*
X189139661Y-78910719D02*
X188905183Y-78952063D01*
X188905183Y-78952063D02*
X188772765Y-79023766D01*
X188772765Y-79023766D02*
X188695512Y-79134095D01*
X188695512Y-79134095D02*
X188665154Y-79236155D01*
X188665154Y-79236155D02*
X188651334Y-79432007D01*
X188651334Y-79432007D02*
X188676141Y-79572693D01*
X188676141Y-79572693D02*
X188756113Y-79752007D01*
X188756113Y-79752007D02*
X188819546Y-79837529D01*
X188819546Y-79837529D02*
X188929875Y-79914782D01*
X188929875Y-79914782D02*
X189078831Y-79936871D01*
X189078831Y-79936871D02*
X189313309Y-79895526D01*
X188248644Y-79067829D02*
X187639001Y-79175325D01*
X187639001Y-79175325D02*
X188033422Y-79492607D01*
X188033422Y-79492607D02*
X187892736Y-79517414D01*
X187892736Y-79517414D02*
X187807213Y-79580848D01*
X187807213Y-79580848D02*
X187768587Y-79636012D01*
X187768587Y-79636012D02*
X187738229Y-79738073D01*
X187738229Y-79738073D02*
X187779574Y-79972551D01*
X187779574Y-79972551D02*
X187843007Y-80058073D01*
X187843007Y-80058073D02*
X187898172Y-80096700D01*
X187898172Y-80096700D02*
X188000232Y-80127057D01*
X188000232Y-80127057D02*
X188281606Y-80077443D01*
X188281606Y-80077443D02*
X188367128Y-80014010D01*
X188367128Y-80014010D02*
X188405755Y-79958845D01*
X187280374Y-79335268D02*
X187225210Y-79296642D01*
X187225210Y-79296642D02*
X187123150Y-79266284D01*
X187123150Y-79266284D02*
X186888672Y-79307629D01*
X186888672Y-79307629D02*
X186803149Y-79371062D01*
X186803149Y-79371062D02*
X186764523Y-79426227D01*
X186764523Y-79426227D02*
X186734165Y-79528287D01*
X186734165Y-79528287D02*
X186750703Y-79622078D01*
X186750703Y-79622078D02*
X186822405Y-79754496D01*
X186822405Y-79754496D02*
X187484380Y-80218016D01*
X187484380Y-80218016D02*
X186874737Y-80325512D01*
%TO.C,SW3*%
X65811763Y-91100467D02*
X65811763Y-88100467D01*
X65811763Y-98900467D02*
X65811763Y-95900467D01*
X66611763Y-87300467D02*
X68611763Y-87300467D01*
X66611763Y-99700467D02*
X68811763Y-99700467D01*
X77411763Y-87300467D02*
X75211763Y-87300467D01*
X77411763Y-99700467D02*
X75211763Y-99700467D01*
X78211763Y-91100467D02*
X78211763Y-88100467D01*
X78211763Y-98900467D02*
X78211763Y-95900467D01*
X66611763Y-87300467D02*
G75*
G03*
X65811763Y-88100467I1J-800001D01*
G01*
X65811763Y-98900467D02*
G75*
G03*
X66611763Y-99700467I800001J1D01*
G01*
X78211763Y-88100467D02*
G75*
G03*
X77411763Y-87300467I-800000J0D01*
G01*
X77411763Y-99700467D02*
G75*
G03*
X78211763Y-98900467I0J800000D01*
G01*
%TO.C,SW4*%
X194757141Y-91100467D02*
X194757141Y-88100467D01*
X194757141Y-98900467D02*
X194757141Y-95900467D01*
X195557141Y-87300467D02*
X197557141Y-87300467D01*
X195557141Y-99700467D02*
X197757141Y-99700467D01*
X206357141Y-87300467D02*
X204157141Y-87300467D01*
X206357141Y-99700467D02*
X204157141Y-99700467D01*
X207157141Y-91100467D02*
X207157141Y-88100467D01*
X207157141Y-98900467D02*
X207157141Y-95900467D01*
X195557141Y-87300467D02*
G75*
G03*
X194757141Y-88100467I1J-800001D01*
G01*
X194757141Y-98900467D02*
G75*
G03*
X195557141Y-99700467I800001J1D01*
G01*
X207157141Y-88100467D02*
G75*
G03*
X206357141Y-87300467I-800000J0D01*
G01*
X206357141Y-99700467D02*
G75*
G03*
X207157141Y-98900467I0J800000D01*
G01*
D10*
%TO.C,J2*%
X148325893Y-80399984D02*
X146325893Y-80399984D01*
X142325893Y-80399984D02*
X140325893Y-80399984D01*
X140325893Y-80399984D02*
X140325893Y-82399984D01*
X148325893Y-82399984D02*
X148325893Y-80399984D01*
X140325893Y-103399984D02*
X140325893Y-105399984D01*
X148325893Y-105399984D02*
X148325893Y-103399984D01*
X146325893Y-105399984D02*
X148325893Y-105399984D01*
X140325893Y-105399984D02*
X142325893Y-105399984D01*
X148875893Y-100799984D02*
X147875893Y-100399984D01*
X148875893Y-99999984D01*
X148875893Y-100799984D01*
G36*
X148875893Y-100799984D02*
G01*
X147875893Y-100399984D01*
X148875893Y-99999984D01*
X148875893Y-100799984D01*
G37*
D13*
%TO.C,D40*%
X79032607Y-102776802D02*
X79728936Y-98827723D01*
X81002222Y-103124098D02*
X79032607Y-102776802D01*
X81002222Y-103124098D02*
X81698551Y-99175019D01*
%TO.C,SW1*%
X129328157Y-65202310D02*
X131408157Y-65202310D01*
X127648157Y-63932310D02*
X128138157Y-64422310D01*
X127648157Y-63932310D02*
X127648157Y-61032310D01*
X133088157Y-63932310D02*
X132598157Y-64422310D01*
X133088157Y-63932310D02*
X133088157Y-61032310D01*
X127648157Y-61032310D02*
X128138157Y-60542310D01*
X133088157Y-61032310D02*
X132598157Y-60542310D01*
X129328157Y-59762310D02*
X131408157Y-59762310D01*
%TO.C,C7*%
X109545181Y-59200992D02*
X109757576Y-59238443D01*
X109420154Y-59910053D02*
X109632549Y-59947504D01*
%TO.C,D27*%
X201813419Y-53834155D02*
X201117090Y-49885076D01*
X203783034Y-53486859D02*
X201813419Y-53834155D01*
X203783034Y-53486859D02*
X203086705Y-49537780D01*
%TO.C,C2*%
X99916714Y-65305430D02*
X99879263Y-65517825D01*
X99207653Y-65180403D02*
X99170202Y-65392798D01*
%TO.C,D15*%
X65326539Y-75374212D02*
X66022868Y-71425133D01*
X67296154Y-75721508D02*
X65326539Y-75374212D01*
X67296154Y-75721508D02*
X67992483Y-71772429D01*
%TO.C,D22*%
X217828193Y-34953885D02*
X217131864Y-31004806D01*
X219797808Y-34606589D02*
X217828193Y-34953885D01*
X219797808Y-34606589D02*
X219101479Y-30657510D01*
%TO.C,J1*%
X121847969Y-56604985D02*
X121847969Y-55604985D01*
X121847969Y-56604985D02*
X121147969Y-56604985D01*
X121147969Y-51554985D02*
X121147969Y-52554985D01*
X121147969Y-51554985D02*
X120447969Y-51554985D01*
X115047969Y-51554985D02*
X114347969Y-51554985D01*
X114347969Y-56604985D02*
X113647969Y-56604985D01*
X114347969Y-51554985D02*
X114347969Y-52554985D01*
X113647969Y-56604985D02*
X113647969Y-55604985D01*
X119547969Y-51054985D02*
X119147969Y-50454985D01*
X119947969Y-50454985D01*
X119547969Y-51054985D01*
G36*
X119547969Y-51054985D02*
G01*
X119147969Y-50454985D01*
X119947969Y-50454985D01*
X119547969Y-51054985D01*
G37*
%TO.C,D3*%
X71942533Y-37853036D02*
X72638862Y-33903957D01*
X73912148Y-38200332D02*
X71942533Y-37853036D01*
X73912148Y-38200332D02*
X74608477Y-34251253D01*
%TO.C,C5*%
X108699712Y-63775166D02*
X108487317Y-63737715D01*
X108824739Y-63066105D02*
X108612344Y-63028654D01*
%TO.C,D28*%
X221125338Y-53652921D02*
X220429009Y-49703842D01*
X223094953Y-53305625D02*
X221125338Y-53652921D01*
X223094953Y-53305625D02*
X222398624Y-49356546D01*
%TO.C,D2*%
X52630614Y-37671803D02*
X53326943Y-33722724D01*
X54600229Y-38019099D02*
X52630614Y-37671803D01*
X54600229Y-38019099D02*
X55296558Y-34070020D01*
%TO.C,D11*%
X89509839Y-57070521D02*
X90206168Y-53121442D01*
X91479454Y-57417817D02*
X89509839Y-57070521D01*
X91479454Y-57417817D02*
X92175783Y-53468738D01*
%TO.C,D29*%
X238873878Y-53747355D02*
X238177549Y-49798276D01*
X240843493Y-53400059D02*
X238873878Y-53747355D01*
X240843493Y-53400059D02*
X240147164Y-49450980D01*
%TO.C,SW2*%
X131408157Y-69414309D02*
X129328157Y-69414309D01*
X133088157Y-70684309D02*
X132598157Y-70194309D01*
X133088157Y-70684309D02*
X133088157Y-73584309D01*
X127648157Y-70684309D02*
X128138157Y-70194309D01*
X127648157Y-70684309D02*
X127648157Y-73584309D01*
X133088157Y-73584309D02*
X132598157Y-74074309D01*
X127648157Y-73584309D02*
X128138157Y-74074309D01*
X131408157Y-74854309D02*
X129328157Y-74854309D01*
%TO.C,D31*%
X168702908Y-85464268D02*
X168006579Y-81515189D01*
X170672523Y-85116972D02*
X168702908Y-85464268D01*
X170672523Y-85116972D02*
X169976194Y-81167893D01*
%TO.C,D38*%
X188839920Y-103675432D02*
X188143591Y-99726353D01*
X190809535Y-103328136D02*
X188839920Y-103675432D01*
X190809535Y-103328136D02*
X190113206Y-99379057D01*
%TO.C,D35*%
X242181875Y-72507943D02*
X241485546Y-68558864D01*
X244151490Y-72160647D02*
X242181875Y-72507943D01*
X244151490Y-72160647D02*
X243455161Y-68211568D01*
%TO.C,C6*%
X111011246Y-53650750D02*
X111223641Y-53688201D01*
X110886219Y-54359811D02*
X111098614Y-54397262D01*
%TO.C,R1*%
X126015146Y-66618804D02*
X126068505Y-66316190D01*
X126763599Y-66750776D02*
X126816958Y-66448162D01*
%TO.C,D4*%
X91254454Y-38034269D02*
X91950783Y-34085190D01*
X93224069Y-38381565D02*
X91254454Y-38034269D01*
X93224069Y-38381565D02*
X93920398Y-34432486D01*
%TO.C,C3*%
X107495791Y-75211859D02*
X107708186Y-75249310D01*
X107370764Y-75920920D02*
X107583159Y-75958371D01*
%TO.C,D39*%
X191966681Y-103124098D02*
X191270352Y-99175019D01*
X193936296Y-102776802D02*
X191966681Y-103124098D01*
X193936296Y-102776802D02*
X193239967Y-98827723D01*
%TO.C,D18*%
X119493587Y-88149303D02*
X120189916Y-84200224D01*
X121463202Y-88496599D02*
X119493587Y-88149303D01*
X121463202Y-88496599D02*
X122159531Y-84547520D01*
%TO.C,D20*%
X180296167Y-41508330D02*
X179599838Y-37559251D01*
X182265782Y-41161034D02*
X180296167Y-41508330D01*
X182265782Y-41161034D02*
X181569453Y-37211955D01*
%TO.C,D16*%
X83075075Y-75279778D02*
X83771404Y-71330699D01*
X85044690Y-75627074D02*
X83075075Y-75279778D01*
X85044690Y-75627074D02*
X85741019Y-71677995D01*
%TO.C,D8*%
X49322615Y-56432391D02*
X50018944Y-52483312D01*
X51292230Y-56779687D02*
X49322615Y-56432391D01*
X51292230Y-56779687D02*
X51988559Y-52830608D01*
%TO.C,D24*%
X238692644Y-34435435D02*
X237996315Y-30486356D01*
X240662259Y-34088139D02*
X238692644Y-34435435D01*
X240662259Y-34088139D02*
X239965930Y-30139060D01*
%TO.C,D14*%
X46014616Y-75192978D02*
X46710945Y-71243899D01*
X47984231Y-75540274D02*
X46014616Y-75192978D01*
X47984231Y-75540274D02*
X48680560Y-71591195D01*
%TO.C,D21*%
X198505421Y-35073567D02*
X197809092Y-31124488D01*
X200475036Y-34726271D02*
X198505421Y-35073567D01*
X200475036Y-34726271D02*
X199778707Y-30777192D01*
%TO.C,D23*%
X235565880Y-34986767D02*
X234869551Y-31037688D01*
X237535495Y-34639471D02*
X235565880Y-34986767D01*
X237535495Y-34639471D02*
X236839166Y-30690392D01*
%TO.C,D5*%
X107900326Y-44193365D02*
X108596655Y-40244286D01*
X109869941Y-44540661D02*
X107900326Y-44193365D01*
X109869941Y-44540661D02*
X110566270Y-40591582D01*
%TO.C,C8*%
X126614101Y-76259804D02*
X126576650Y-76472199D01*
X125905040Y-76134777D02*
X125867589Y-76347172D01*
%TO.C,D37*%
X150537052Y-110429258D02*
X149840723Y-106480179D01*
X152506667Y-110081962D02*
X150537052Y-110429258D01*
X152506667Y-110081962D02*
X151810338Y-106132883D01*
%TO.C,D13*%
X26564862Y-75793436D02*
X27261191Y-71844357D01*
X28534477Y-76140732D02*
X26564862Y-75793436D01*
X28534477Y-76140732D02*
X29230806Y-72191653D01*
%TO.C,D1*%
X33180860Y-38272261D02*
X33877189Y-34323182D01*
X35150475Y-38619557D02*
X33180860Y-38272261D01*
X35150475Y-38619557D02*
X35846804Y-34670478D01*
%TO.C,C1*%
X110354926Y-73392871D02*
X110317475Y-73605266D01*
X109645865Y-73267844D02*
X109608414Y-73480239D01*
%TO.C,D10*%
X86383074Y-56519189D02*
X87079403Y-52570110D01*
X88352689Y-56866485D02*
X86383074Y-56519189D01*
X88352689Y-56866485D02*
X89049018Y-52917406D01*
%TO.C,D41*%
X82159366Y-103328134D02*
X82855695Y-99379055D01*
X84128981Y-103675430D02*
X82159366Y-103328134D01*
X84128981Y-103675430D02*
X84825310Y-99726351D01*
%TO.C,D26*%
X183604165Y-60268917D02*
X182907836Y-56319838D01*
X185573780Y-59921621D02*
X183604165Y-60268917D01*
X185573780Y-59921621D02*
X184877451Y-55972542D01*
%TO.C,D33*%
X205121415Y-72594743D02*
X204425086Y-68645664D01*
X207091030Y-72247447D02*
X205121415Y-72594743D01*
X207091030Y-72247447D02*
X206394701Y-68298368D01*
%TO.C,D25*%
X165394910Y-66703679D02*
X164698581Y-62754600D01*
X167364525Y-66356383D02*
X165394910Y-66703679D01*
X167364525Y-66356383D02*
X166668196Y-62407304D01*
%TO.C,D6*%
X111027091Y-44744698D02*
X111723420Y-40795619D01*
X112996706Y-45091994D02*
X111027091Y-44744698D01*
X112996706Y-45091994D02*
X113693035Y-41142915D01*
%TO.C,D9*%
X68634536Y-56613624D02*
X69330865Y-52664545D01*
X70604151Y-56960920D02*
X68634536Y-56613624D01*
X70604151Y-56960920D02*
X71300480Y-53011841D01*
%TO.C,U1*%
X108560748Y-56421315D02*
X108421829Y-57209161D01*
X108560748Y-56421315D02*
X108699666Y-55633469D01*
X111633348Y-56963097D02*
X111320781Y-58735751D01*
X111633348Y-56963097D02*
X111772267Y-56175251D01*
%TO.C,C4*%
X103243391Y-74462045D02*
X103455786Y-74499496D01*
X103118364Y-75171106D02*
X103330759Y-75208557D01*
%TO.C,D42*%
X120462234Y-110081961D02*
X121158563Y-106132882D01*
X122431849Y-110429257D02*
X120462234Y-110081961D01*
X122431849Y-110429257D02*
X123128178Y-106480178D01*
D10*
%TO.C,J3*%
X124627470Y-105399985D02*
X126627470Y-105399985D01*
X130627470Y-105399985D02*
X132627470Y-105399985D01*
X132627470Y-105399985D02*
X132627470Y-103399985D01*
X124627470Y-103399985D02*
X124627470Y-105399985D01*
X132627470Y-82399985D02*
X132627470Y-80399985D01*
X124627470Y-80399985D02*
X124627470Y-82399985D01*
X126627470Y-80399985D02*
X124627470Y-80399985D01*
X132627470Y-80399985D02*
X130627470Y-80399985D01*
X125077470Y-85399985D02*
X124077470Y-85799985D01*
X124077470Y-84999985D01*
X125077470Y-85399985D01*
G36*
X125077470Y-85399985D02*
G01*
X124077470Y-85799985D01*
X124077470Y-84999985D01*
X125077470Y-85399985D01*
G37*
D13*
%TO.C,U2*%
X100707996Y-71598272D02*
X101151160Y-71676414D01*
X107375145Y-72773870D02*
X107151138Y-74044272D01*
X107818308Y-72852012D02*
X107375145Y-72773870D01*
X100786138Y-71155109D02*
X100707996Y-71598272D01*
X107896450Y-72408848D02*
X107818308Y-72852012D01*
X101883594Y-64931124D02*
X101961736Y-64487960D01*
X108993906Y-66184863D02*
X109072048Y-65741700D01*
X101961736Y-64487960D02*
X102404899Y-64566102D01*
X109072048Y-65741700D02*
X108628884Y-65663558D01*
%TO.C,D34*%
X224433337Y-72413510D02*
X223737008Y-68464431D01*
X226402952Y-72066214D02*
X224433337Y-72413510D01*
X226402952Y-72066214D02*
X225706623Y-68117135D01*
%TO.C,D19*%
X162086909Y-47943093D02*
X161390580Y-43994014D01*
X164056524Y-47595797D02*
X162086909Y-47943093D01*
X164056524Y-47595797D02*
X163360195Y-43646718D01*
%TO.C,D36*%
X245308640Y-71956610D02*
X244612311Y-68007531D01*
X247278255Y-71609314D02*
X245308640Y-71956610D01*
X247278255Y-71609314D02*
X246581926Y-67660235D01*
%TO.C,D7*%
X29872861Y-57032848D02*
X30569190Y-53083769D01*
X31842476Y-57380144D02*
X29872861Y-57032848D01*
X31842476Y-57380144D02*
X32538805Y-53431065D01*
%TO.C,D30*%
X242000641Y-53196022D02*
X241304312Y-49246943D01*
X243970256Y-52848726D02*
X242000641Y-53196022D01*
X243970256Y-52848726D02*
X243273927Y-48899647D01*
%TO.C,D17*%
X86201842Y-75831111D02*
X86898171Y-71882032D01*
X88171457Y-76178407D02*
X86201842Y-75831111D01*
X88171457Y-76178407D02*
X88867786Y-72229328D01*
%TO.C,D12*%
X122801583Y-69388715D02*
X123497912Y-65439636D01*
X124771198Y-69736011D02*
X122801583Y-69388715D01*
X124771198Y-69736011D02*
X125467527Y-65786932D01*
%TO.C,D32*%
X186912162Y-79029505D02*
X186215833Y-75080426D01*
X188881777Y-78682209D02*
X186912162Y-79029505D01*
X188881777Y-78682209D02*
X188185448Y-74733130D01*
%TD*%
M02*
