%TF.GenerationSoftware,KiCad,Pcbnew,7.0.8*%
%TF.CreationDate,2023-11-01T12:08:13-07:00*%
%TF.ProjectId,Redwood,52656477-6f6f-4642-9e6b-696361645f70,rev?*%
%TF.SameCoordinates,Original*%
%TF.FileFunction,Soldermask,Top*%
%TF.FilePolarity,Negative*%
%FSLAX46Y46*%
G04 Gerber Fmt 4.6, Leading zero omitted, Abs format (unit mm)*
G04 Created by KiCad (PCBNEW 7.0.8) date 2023-11-01 12:08:13*
%MOMM*%
%LPD*%
G01*
G04 APERTURE LIST*
%ADD10C,1.750000*%
%ADD11C,3.987800*%
%ADD12C,2.250000*%
%ADD13C,2.032000*%
%ADD14O,2.799999X3.900000*%
%ADD15C,0.800000*%
%ADD16C,3.048000*%
G04 APERTURE END LIST*
D10*
%TO.C,SW5*%
X20192359Y-33585631D03*
D11*
X25195182Y-34467764D03*
D10*
X30198005Y-35349897D03*
D12*
X21884131Y-31304753D03*
X28578726Y-29906007D03*
%TD*%
D10*
%TO.C,SW28*%
X242770898Y-35349897D03*
D11*
X247773721Y-34467764D03*
D10*
X252776544Y-33585631D03*
D12*
X243580537Y-32627952D03*
X249393000Y-29023874D03*
%TD*%
D10*
%TO.C,SW18*%
X33026115Y-70506348D03*
D11*
X38028938Y-71388481D03*
D10*
X43031761Y-72270614D03*
D12*
X34717887Y-68225470D03*
X41412482Y-66826724D03*
%TD*%
D10*
%TO.C,SW6*%
X39642116Y-32985172D03*
D11*
X44644939Y-33867305D03*
D10*
X49647762Y-34749438D03*
D12*
X41333888Y-30704294D03*
X48028483Y-29305548D03*
%TD*%
D10*
%TO.C,SW17*%
X13576364Y-71106804D03*
D11*
X18579187Y-71988937D03*
D10*
X23582010Y-72871070D03*
D12*
X15268136Y-68825926D03*
X21962731Y-67427180D03*
%TD*%
D10*
%TO.C,SW26*%
X204009223Y-34930671D03*
D11*
X209012046Y-34048538D03*
D10*
X214014869Y-33166405D03*
D12*
X204818862Y-32208726D03*
X210631325Y-28604648D03*
%TD*%
D13*
%TO.C,SW3*%
X69511763Y-101000467D03*
X74511763Y-101000467D03*
X72011763Y-101000467D03*
D14*
X65761763Y-93500467D03*
X78261763Y-93500467D03*
D13*
X69511763Y-86500467D03*
X74511763Y-86500467D03*
%TD*%
D10*
%TO.C,SW40*%
X249386893Y-72871072D03*
D11*
X254389716Y-71988939D03*
D10*
X259392539Y-71106806D03*
D12*
X250196532Y-70149127D03*
X256008995Y-66545049D03*
%TD*%
D10*
%TO.C,SW23*%
X148278791Y-47981430D03*
D11*
X153281614Y-47099297D03*
D10*
X158284437Y-46217164D03*
D12*
X149088430Y-45259485D03*
X154900893Y-41655407D03*
%TD*%
D10*
%TO.C,SW12*%
X36334115Y-51745759D03*
D11*
X41336938Y-52627892D03*
D10*
X46339761Y-53510025D03*
D12*
X38025887Y-49464881D03*
X44720482Y-48066135D03*
%TD*%
D10*
%TO.C,SW19*%
X52338038Y-70687580D03*
D11*
X57340861Y-71569713D03*
D10*
X62343684Y-72451846D03*
D12*
X54029810Y-68406702D03*
X60724405Y-67007956D03*
%TD*%
D15*
%TO.C,H1*%
X137984451Y-114260000D03*
X137984451Y-113010000D03*
X137984451Y-111760000D03*
X137984451Y-110510000D03*
X137984451Y-109260000D03*
%TD*%
D11*
%TO.C,SW44*%
X93586053Y-94564214D03*
D16*
X90939655Y-109572685D03*
D10*
X98875132Y-103879168D03*
D11*
X103877955Y-104761301D03*
D10*
X108880778Y-105643434D03*
D11*
X117036788Y-98699212D03*
D16*
X114390390Y-113707682D03*
D12*
X100566904Y-101598290D03*
X107261499Y-100199544D03*
%TD*%
D15*
%TO.C,H2*%
X134984452Y-114010000D03*
X134984452Y-112760000D03*
X134984452Y-111510000D03*
X134984452Y-110260000D03*
X134984452Y-109010000D03*
%TD*%
D10*
%TO.C,SW30*%
X169796045Y-60307255D03*
D11*
X174798868Y-59425122D03*
D10*
X179801691Y-58542989D03*
D12*
X170605684Y-57585310D03*
X176418147Y-53981232D03*
%TD*%
D10*
%TO.C,SW27*%
X223321142Y-34749439D03*
D11*
X228323965Y-33867306D03*
D10*
X233326788Y-32985173D03*
D12*
X224130781Y-32027494D03*
X229943244Y-28423416D03*
%TD*%
D15*
%TO.C,H3*%
X137984452Y-52009999D03*
X137984452Y-50759999D03*
X137984452Y-49509999D03*
X137984452Y-48259999D03*
X137984452Y-47009999D03*
%TD*%
D10*
%TO.C,SW32*%
X207317219Y-53691259D03*
D11*
X212320042Y-52809126D03*
D10*
X217322865Y-51926993D03*
D12*
X208126858Y-50969314D03*
X213939321Y-47365236D03*
%TD*%
D10*
%TO.C,SW25*%
X184697303Y-35111905D03*
D11*
X189700126Y-34229772D03*
D10*
X194702949Y-33347639D03*
D12*
X185506942Y-32389960D03*
X191319405Y-28785882D03*
%TD*%
D10*
%TO.C,SW24*%
X166488046Y-41546668D03*
D11*
X171490869Y-40664535D03*
D10*
X176493692Y-39782402D03*
D12*
X167297685Y-38824723D03*
X173110148Y-35220645D03*
%TD*%
D11*
%TO.C,SW43*%
X155932113Y-98699212D03*
D16*
X158578511Y-113707682D03*
D10*
X164088123Y-105643434D03*
D11*
X169090946Y-104761301D03*
D10*
X174093769Y-103879168D03*
D11*
X179382848Y-94564214D03*
D16*
X182029246Y-109572685D03*
D12*
X164897762Y-102921489D03*
X170710225Y-99317411D03*
%TD*%
D10*
%TO.C,SW9*%
X96475212Y-39782402D03*
D11*
X101478035Y-40664535D03*
D10*
X106480858Y-41546668D03*
D12*
X98166984Y-37501524D03*
X104861579Y-36102778D03*
%TD*%
D10*
%TO.C,SW42*%
X108255426Y-105533167D03*
D11*
X113258249Y-106415300D03*
D10*
X118261072Y-107297433D03*
D12*
X109947198Y-103252289D03*
X116641793Y-101853543D03*
%TD*%
D10*
%TO.C,SW29*%
X151586789Y-66742018D03*
D11*
X156589612Y-65859885D03*
D10*
X161592435Y-64977752D03*
D12*
X152396428Y-64020073D03*
X158208891Y-60415995D03*
%TD*%
D10*
%TO.C,SW48*%
X87149764Y-101811669D03*
D11*
X92152587Y-102693802D03*
D10*
X97155410Y-103575935D03*
D12*
X88841536Y-99530791D03*
X95536131Y-98132045D03*
%TD*%
D10*
%TO.C,SW13*%
X55646039Y-51926993D03*
D11*
X60648862Y-52809126D03*
D10*
X65651685Y-53691259D03*
D12*
X57337811Y-49646115D03*
X64032406Y-48247369D03*
%TD*%
D10*
%TO.C,SW31*%
X188005299Y-53872493D03*
D11*
X193008122Y-52990360D03*
D10*
X198010945Y-52108227D03*
D12*
X188814938Y-51150548D03*
X194627401Y-47546470D03*
%TD*%
D10*
%TO.C,SW46*%
X195877141Y-93500467D03*
D11*
X200957141Y-93500467D03*
D10*
X206037141Y-93500467D03*
D12*
X197147141Y-90960467D03*
X203497141Y-88420467D03*
%TD*%
D10*
%TO.C,SW39*%
X229937140Y-72270614D03*
D11*
X234939963Y-71388481D03*
D10*
X239942786Y-70506348D03*
D12*
X230746779Y-69548669D03*
X236559242Y-65944591D03*
%TD*%
D15*
%TO.C,H4*%
X134984452Y-52010000D03*
X134984452Y-50760000D03*
X134984452Y-49510000D03*
X134984452Y-48260000D03*
X134984452Y-47010000D03*
%TD*%
D10*
%TO.C,SW10*%
X114684467Y-46217165D03*
D11*
X119687290Y-47099298D03*
D10*
X124690113Y-47981431D03*
D12*
X116376239Y-43936287D03*
X123070834Y-42537541D03*
%TD*%
D10*
%TO.C,SW47*%
X66931763Y-93500467D03*
D11*
X72011763Y-93500467D03*
D10*
X77091763Y-93500467D03*
D12*
X68201763Y-90960467D03*
X74551763Y-88420467D03*
%TD*%
D10*
%TO.C,SW20*%
X71649961Y-70868815D03*
D11*
X76652784Y-71750948D03*
D10*
X81655607Y-72633081D03*
D12*
X73341733Y-68587937D03*
X80036328Y-67189191D03*
%TD*%
D10*
%TO.C,SW11*%
X16884361Y-52346219D03*
D11*
X21887184Y-53228352D03*
D10*
X26890007Y-54110485D03*
D12*
X18576133Y-50065341D03*
X25270728Y-48666595D03*
%TD*%
D10*
%TO.C,SW38*%
X210625219Y-72451847D03*
D11*
X215628042Y-71569714D03*
D10*
X220630865Y-70687581D03*
D12*
X211434858Y-69729902D03*
X217247321Y-66125824D03*
%TD*%
D10*
%TO.C,SW7*%
X58954033Y-33166406D03*
D11*
X63956856Y-34048539D03*
D10*
X68959679Y-34930672D03*
D12*
X60645805Y-30885528D03*
X67340400Y-29486782D03*
%TD*%
D10*
%TO.C,SW34*%
X246078896Y-54110485D03*
D11*
X251081719Y-53228352D03*
D10*
X256084542Y-52346219D03*
D12*
X246888535Y-51388540D03*
X252700998Y-47784462D03*
%TD*%
D15*
%TO.C,H6*%
X134984452Y-81010000D03*
X134984452Y-79760000D03*
X134984452Y-78510000D03*
X134984452Y-77260000D03*
X134984452Y-76010000D03*
%TD*%
D10*
%TO.C,SW21*%
X89859213Y-77303577D03*
D11*
X94862036Y-78185710D03*
D10*
X99864859Y-79067843D03*
D12*
X91550985Y-75022699D03*
X98245580Y-73623953D03*
%TD*%
D10*
%TO.C,SW41*%
X154707830Y-107297433D03*
D11*
X159710653Y-106415300D03*
D10*
X164713476Y-105533167D03*
D12*
X155517469Y-104575488D03*
X161329932Y-100971410D03*
%TD*%
D10*
%TO.C,SW37*%
X191313295Y-72633081D03*
D11*
X196316118Y-71750948D03*
D10*
X201318941Y-70868815D03*
D12*
X192122934Y-69911136D03*
X197935397Y-66307058D03*
%TD*%
D15*
%TO.C,H5*%
X137984451Y-81010000D03*
X137984451Y-79760000D03*
X137984451Y-78510000D03*
X137984451Y-77260000D03*
X137984451Y-76010000D03*
%TD*%
D10*
%TO.C,SW14*%
X74957956Y-52108227D03*
D11*
X79960779Y-52990360D03*
D10*
X84963602Y-53872493D03*
D12*
X76649728Y-49827349D03*
X83344323Y-48428603D03*
%TD*%
D13*
%TO.C,SW4*%
X198457141Y-101000467D03*
X203457141Y-101000467D03*
X200957141Y-101000467D03*
D14*
X194707141Y-93500467D03*
X207207141Y-93500467D03*
D13*
X198457141Y-86500467D03*
X203457141Y-86500467D03*
%TD*%
D10*
%TO.C,SW33*%
X226629140Y-53510025D03*
D11*
X231631963Y-52627892D03*
D10*
X236634786Y-51745759D03*
D12*
X227438779Y-50788080D03*
X233251242Y-47184002D03*
%TD*%
D10*
%TO.C,SW36*%
X173104042Y-79067843D03*
D11*
X178106865Y-78185710D03*
D10*
X183109688Y-77303577D03*
D12*
X173913681Y-76345898D03*
X179726144Y-72741820D03*
%TD*%
D10*
%TO.C,SW16*%
X111376469Y-64977752D03*
D11*
X116379292Y-65859885D03*
D10*
X121382115Y-66742018D03*
D12*
X113068241Y-62696874D03*
X119762836Y-61298128D03*
%TD*%
D10*
%TO.C,SW45*%
X175813491Y-103575935D03*
D11*
X180816314Y-102693802D03*
D10*
X185819137Y-101811669D03*
D12*
X176623130Y-100853990D03*
X182435593Y-97249912D03*
%TD*%
D10*
%TO.C,SW15*%
X93167210Y-58542989D03*
D11*
X98170033Y-59425122D03*
D10*
X103172856Y-60307255D03*
D12*
X94858982Y-56262111D03*
X101553577Y-54863365D03*
%TD*%
D10*
%TO.C,SW35*%
X154894789Y-85502605D03*
D11*
X159897612Y-84620472D03*
D10*
X164900435Y-83738339D03*
D12*
X155704428Y-82780660D03*
X161516891Y-79176582D03*
%TD*%
D10*
%TO.C,SW22*%
X108068466Y-83738338D03*
D11*
X113071289Y-84620471D03*
D10*
X118074112Y-85502604D03*
D12*
X109760238Y-81457460D03*
X116454833Y-80058714D03*
%TD*%
D10*
%TO.C,SW8*%
X78265953Y-33347639D03*
D11*
X83268776Y-34229772D03*
D10*
X88271599Y-35111905D03*
D12*
X79957725Y-31066761D03*
X86652320Y-29668015D03*
%TD*%
M02*
