%TF.GenerationSoftware,KiCad,Pcbnew,7.0.8*%
%TF.CreationDate,2023-11-01T12:08:13-07:00*%
%TF.ProjectId,Redwood,52656477-6f6f-4642-9e6b-696361645f70,rev?*%
%TF.SameCoordinates,Original*%
%TF.FileFunction,Soldermask,Bot*%
%TF.FilePolarity,Negative*%
%FSLAX46Y46*%
G04 Gerber Fmt 4.6, Leading zero omitted, Abs format (unit mm)*
G04 Created by KiCad (PCBNEW 7.0.8) date 2023-11-01 12:08:13*
%MOMM*%
%LPD*%
G01*
G04 APERTURE LIST*
G04 Aperture macros list*
%AMRoundRect*
0 Rectangle with rounded corners*
0 $1 Rounding radius*
0 $2 $3 $4 $5 $6 $7 $8 $9 X,Y pos of 4 corners*
0 Add a 4 corners polygon primitive as box body*
4,1,4,$2,$3,$4,$5,$6,$7,$8,$9,$2,$3,0*
0 Add four circle primitives for the rounded corners*
1,1,$1+$1,$2,$3*
1,1,$1+$1,$4,$5*
1,1,$1+$1,$6,$7*
1,1,$1+$1,$8,$9*
0 Add four rect primitives between the rounded corners*
20,1,$1+$1,$2,$3,$4,$5,0*
20,1,$1+$1,$4,$5,$6,$7,0*
20,1,$1+$1,$6,$7,$8,$9,0*
20,1,$1+$1,$8,$9,$2,$3,0*%
G04 Aperture macros list end*
%ADD10C,1.750000*%
%ADD11C,3.987800*%
%ADD12C,2.250000*%
%ADD13O,1.651000X2.768600*%
%ADD14C,1.016000*%
%ADD15C,0.800000*%
%ADD16C,3.048000*%
%ADD17O,1.300000X0.600000*%
%ADD18R,1.300000X0.600000*%
%ADD19C,0.600000*%
%ADD20R,2.800000X2.550000*%
%ADD21RoundRect,0.225000X0.330232X-0.286700X0.408374X0.156464X-0.330232X0.286700X-0.408374X-0.156464X0*%
%ADD22R,1.100000X1.800000*%
%ADD23RoundRect,0.140000X-0.167393X-0.143107X0.108353X-0.191728X0.167393X0.143107X-0.108353X0.191728X0*%
%ADD24RoundRect,0.225000X0.408374X-0.156464X0.330232X0.286700X-0.408374X0.156464X-0.330232X-0.286700X0*%
%ADD25RoundRect,0.140000X-0.143107X0.167393X-0.191728X-0.108353X0.143107X-0.167393X0.191728X0.108353X0*%
%ADD26RoundRect,0.375000X0.000000X-0.125000X0.000000X0.125000X0.000000X0.125000X0.000000X-0.125000X0*%
%ADD27R,0.600000X0.850000*%
%ADD28C,0.400000*%
%ADD29R,1.000000X1.000000*%
%ADD30RoundRect,0.140000X0.167393X0.143107X-0.108353X0.191728X-0.167393X-0.143107X0.108353X-0.191728X0*%
%ADD31RoundRect,0.135000X0.158747X-0.165074X0.205632X0.100824X-0.158747X0.165074X-0.205632X-0.100824X0*%
%ADD32RoundRect,0.150000X0.058726X-0.530761X0.236716X0.478667X-0.058726X0.530761X-0.236716X-0.478667X0*%
%ADD33RoundRect,0.075000X-0.041181X-0.665459X0.188902X0.639412X0.041181X0.665459X-0.188902X-0.639412X0*%
%ADD34RoundRect,0.075000X0.639412X-0.188902X0.665459X-0.041181X-0.639412X0.188902X-0.665459X0.041181X0*%
G04 APERTURE END LIST*
D10*
%TO.C,SW5*%
X20192359Y-33585631D03*
D11*
X25195182Y-34467764D03*
D10*
X30198005Y-35349897D03*
D12*
X21884131Y-31304753D03*
X28578726Y-29906007D03*
%TD*%
D10*
%TO.C,SW28*%
X242770898Y-35349897D03*
D11*
X247773721Y-34467764D03*
D10*
X252776544Y-33585631D03*
D12*
X243580537Y-32627952D03*
X249393000Y-29023874D03*
%TD*%
D10*
%TO.C,SW18*%
X33026115Y-70506348D03*
D11*
X38028938Y-71388481D03*
D10*
X43031761Y-72270614D03*
D12*
X34717887Y-68225470D03*
X41412482Y-66826724D03*
%TD*%
D10*
%TO.C,SW6*%
X39642116Y-32985172D03*
D11*
X44644939Y-33867305D03*
D10*
X49647762Y-34749438D03*
D12*
X41333888Y-30704294D03*
X48028483Y-29305548D03*
%TD*%
D10*
%TO.C,SW17*%
X13576364Y-71106804D03*
D11*
X18579187Y-71988937D03*
D10*
X23582010Y-72871070D03*
D12*
X15268136Y-68825926D03*
X21962731Y-67427180D03*
%TD*%
D10*
%TO.C,SW26*%
X204009223Y-34930671D03*
D11*
X209012046Y-34048538D03*
D10*
X214014869Y-33166405D03*
D12*
X204818862Y-32208726D03*
X210631325Y-28604648D03*
%TD*%
D13*
%TO.C,SW3*%
X65761763Y-93500467D03*
D14*
X69511763Y-86500467D03*
X69511763Y-101000467D03*
X72011763Y-101000467D03*
X74511763Y-86500467D03*
X74511763Y-101000467D03*
D13*
X78261763Y-93500467D03*
%TD*%
D10*
%TO.C,SW40*%
X249386893Y-72871072D03*
D11*
X254389716Y-71988939D03*
D10*
X259392539Y-71106806D03*
D12*
X250196532Y-70149127D03*
X256008995Y-66545049D03*
%TD*%
D10*
%TO.C,SW23*%
X148278791Y-47981430D03*
D11*
X153281614Y-47099297D03*
D10*
X158284437Y-46217164D03*
D12*
X149088430Y-45259485D03*
X154900893Y-41655407D03*
%TD*%
D10*
%TO.C,SW12*%
X36334115Y-51745759D03*
D11*
X41336938Y-52627892D03*
D10*
X46339761Y-53510025D03*
D12*
X38025887Y-49464881D03*
X44720482Y-48066135D03*
%TD*%
D10*
%TO.C,SW19*%
X52338038Y-70687580D03*
D11*
X57340861Y-71569713D03*
D10*
X62343684Y-72451846D03*
D12*
X54029810Y-68406702D03*
X60724405Y-67007956D03*
%TD*%
D15*
%TO.C,H1*%
X137984451Y-114260000D03*
X137984451Y-113010000D03*
X137984451Y-111760000D03*
X137984451Y-110510000D03*
X137984451Y-109260000D03*
%TD*%
D11*
%TO.C,SW44*%
X93586053Y-94564214D03*
D16*
X90939655Y-109572685D03*
D10*
X98875132Y-103879168D03*
D11*
X103877955Y-104761301D03*
D10*
X108880778Y-105643434D03*
D11*
X117036788Y-98699212D03*
D16*
X114390390Y-113707682D03*
D12*
X100566904Y-101598290D03*
X107261499Y-100199544D03*
%TD*%
D15*
%TO.C,H2*%
X134984452Y-114010000D03*
X134984452Y-112760000D03*
X134984452Y-111510000D03*
X134984452Y-110260000D03*
X134984452Y-109010000D03*
%TD*%
D10*
%TO.C,SW30*%
X169796045Y-60307255D03*
D11*
X174798868Y-59425122D03*
D10*
X179801691Y-58542989D03*
D12*
X170605684Y-57585310D03*
X176418147Y-53981232D03*
%TD*%
D10*
%TO.C,SW27*%
X223321142Y-34749439D03*
D11*
X228323965Y-33867306D03*
D10*
X233326788Y-32985173D03*
D12*
X224130781Y-32027494D03*
X229943244Y-28423416D03*
%TD*%
D15*
%TO.C,H3*%
X137984452Y-52009999D03*
X137984452Y-50759999D03*
X137984452Y-49509999D03*
X137984452Y-48259999D03*
X137984452Y-47009999D03*
%TD*%
D10*
%TO.C,SW32*%
X207317219Y-53691259D03*
D11*
X212320042Y-52809126D03*
D10*
X217322865Y-51926993D03*
D12*
X208126858Y-50969314D03*
X213939321Y-47365236D03*
%TD*%
D10*
%TO.C,SW25*%
X184697303Y-35111905D03*
D11*
X189700126Y-34229772D03*
D10*
X194702949Y-33347639D03*
D12*
X185506942Y-32389960D03*
X191319405Y-28785882D03*
%TD*%
D10*
%TO.C,SW24*%
X166488046Y-41546668D03*
D11*
X171490869Y-40664535D03*
D10*
X176493692Y-39782402D03*
D12*
X167297685Y-38824723D03*
X173110148Y-35220645D03*
%TD*%
D11*
%TO.C,SW43*%
X155932113Y-98699212D03*
D16*
X158578511Y-113707682D03*
D10*
X164088123Y-105643434D03*
D11*
X169090946Y-104761301D03*
D10*
X174093769Y-103879168D03*
D11*
X179382848Y-94564214D03*
D16*
X182029246Y-109572685D03*
D12*
X164897762Y-102921489D03*
X170710225Y-99317411D03*
%TD*%
D10*
%TO.C,SW9*%
X96475212Y-39782402D03*
D11*
X101478035Y-40664535D03*
D10*
X106480858Y-41546668D03*
D12*
X98166984Y-37501524D03*
X104861579Y-36102778D03*
%TD*%
D10*
%TO.C,SW42*%
X108255426Y-105533167D03*
D11*
X113258249Y-106415300D03*
D10*
X118261072Y-107297433D03*
D12*
X109947198Y-103252289D03*
X116641793Y-101853543D03*
%TD*%
D10*
%TO.C,SW29*%
X151586789Y-66742018D03*
D11*
X156589612Y-65859885D03*
D10*
X161592435Y-64977752D03*
D12*
X152396428Y-64020073D03*
X158208891Y-60415995D03*
%TD*%
D10*
%TO.C,SW48*%
X87149764Y-101811669D03*
D11*
X92152587Y-102693802D03*
D10*
X97155410Y-103575935D03*
D12*
X88841536Y-99530791D03*
X95536131Y-98132045D03*
%TD*%
D10*
%TO.C,SW13*%
X55646039Y-51926993D03*
D11*
X60648862Y-52809126D03*
D10*
X65651685Y-53691259D03*
D12*
X57337811Y-49646115D03*
X64032406Y-48247369D03*
%TD*%
D10*
%TO.C,SW31*%
X188005299Y-53872493D03*
D11*
X193008122Y-52990360D03*
D10*
X198010945Y-52108227D03*
D12*
X188814938Y-51150548D03*
X194627401Y-47546470D03*
%TD*%
D10*
%TO.C,SW46*%
X195877141Y-93500467D03*
D11*
X200957141Y-93500467D03*
D10*
X206037141Y-93500467D03*
D12*
X197147141Y-90960467D03*
X203497141Y-88420467D03*
%TD*%
D10*
%TO.C,SW39*%
X229937140Y-72270614D03*
D11*
X234939963Y-71388481D03*
D10*
X239942786Y-70506348D03*
D12*
X230746779Y-69548669D03*
X236559242Y-65944591D03*
%TD*%
D15*
%TO.C,H4*%
X134984452Y-52010000D03*
X134984452Y-50760000D03*
X134984452Y-49510000D03*
X134984452Y-48260000D03*
X134984452Y-47010000D03*
%TD*%
D10*
%TO.C,SW10*%
X114684467Y-46217165D03*
D11*
X119687290Y-47099298D03*
D10*
X124690113Y-47981431D03*
D12*
X116376239Y-43936287D03*
X123070834Y-42537541D03*
%TD*%
D10*
%TO.C,SW47*%
X66931763Y-93500467D03*
D11*
X72011763Y-93500467D03*
D10*
X77091763Y-93500467D03*
D12*
X68201763Y-90960467D03*
X74551763Y-88420467D03*
%TD*%
D10*
%TO.C,SW20*%
X71649961Y-70868815D03*
D11*
X76652784Y-71750948D03*
D10*
X81655607Y-72633081D03*
D12*
X73341733Y-68587937D03*
X80036328Y-67189191D03*
%TD*%
D10*
%TO.C,SW11*%
X16884361Y-52346219D03*
D11*
X21887184Y-53228352D03*
D10*
X26890007Y-54110485D03*
D12*
X18576133Y-50065341D03*
X25270728Y-48666595D03*
%TD*%
D10*
%TO.C,SW38*%
X210625219Y-72451847D03*
D11*
X215628042Y-71569714D03*
D10*
X220630865Y-70687581D03*
D12*
X211434858Y-69729902D03*
X217247321Y-66125824D03*
%TD*%
D10*
%TO.C,SW7*%
X58954033Y-33166406D03*
D11*
X63956856Y-34048539D03*
D10*
X68959679Y-34930672D03*
D12*
X60645805Y-30885528D03*
X67340400Y-29486782D03*
%TD*%
D10*
%TO.C,SW34*%
X246078896Y-54110485D03*
D11*
X251081719Y-53228352D03*
D10*
X256084542Y-52346219D03*
D12*
X246888535Y-51388540D03*
X252700998Y-47784462D03*
%TD*%
D15*
%TO.C,H6*%
X134984452Y-81010000D03*
X134984452Y-79760000D03*
X134984452Y-78510000D03*
X134984452Y-77260000D03*
X134984452Y-76010000D03*
%TD*%
D10*
%TO.C,SW21*%
X89859213Y-77303577D03*
D11*
X94862036Y-78185710D03*
D10*
X99864859Y-79067843D03*
D12*
X91550985Y-75022699D03*
X98245580Y-73623953D03*
%TD*%
D10*
%TO.C,SW41*%
X154707830Y-107297433D03*
D11*
X159710653Y-106415300D03*
D10*
X164713476Y-105533167D03*
D12*
X155517469Y-104575488D03*
X161329932Y-100971410D03*
%TD*%
D10*
%TO.C,SW37*%
X191313295Y-72633081D03*
D11*
X196316118Y-71750948D03*
D10*
X201318941Y-70868815D03*
D12*
X192122934Y-69911136D03*
X197935397Y-66307058D03*
%TD*%
D15*
%TO.C,H5*%
X137984451Y-81010000D03*
X137984451Y-79760000D03*
X137984451Y-78510000D03*
X137984451Y-77260000D03*
X137984451Y-76010000D03*
%TD*%
D10*
%TO.C,SW14*%
X74957956Y-52108227D03*
D11*
X79960779Y-52990360D03*
D10*
X84963602Y-53872493D03*
D12*
X76649728Y-49827349D03*
X83344323Y-48428603D03*
%TD*%
D13*
%TO.C,SW4*%
X194707141Y-93500467D03*
D14*
X198457141Y-86500467D03*
X198457141Y-101000467D03*
X200957141Y-101000467D03*
X203457141Y-86500467D03*
X203457141Y-101000467D03*
D13*
X207207141Y-93500467D03*
%TD*%
D10*
%TO.C,SW33*%
X226629140Y-53510025D03*
D11*
X231631963Y-52627892D03*
D10*
X236634786Y-51745759D03*
D12*
X227438779Y-50788080D03*
X233251242Y-47184002D03*
%TD*%
D10*
%TO.C,SW36*%
X173104042Y-79067843D03*
D11*
X178106865Y-78185710D03*
D10*
X183109688Y-77303577D03*
D12*
X173913681Y-76345898D03*
X179726144Y-72741820D03*
%TD*%
D10*
%TO.C,SW16*%
X111376469Y-64977752D03*
D11*
X116379292Y-65859885D03*
D10*
X121382115Y-66742018D03*
D12*
X113068241Y-62696874D03*
X119762836Y-61298128D03*
%TD*%
D10*
%TO.C,SW45*%
X175813491Y-103575935D03*
D11*
X180816314Y-102693802D03*
D10*
X185819137Y-101811669D03*
D12*
X176623130Y-100853990D03*
X182435593Y-97249912D03*
%TD*%
D10*
%TO.C,SW15*%
X93167210Y-58542989D03*
D11*
X98170033Y-59425122D03*
D10*
X103172856Y-60307255D03*
D12*
X94858982Y-56262111D03*
X101553577Y-54863365D03*
%TD*%
D10*
%TO.C,SW35*%
X154894789Y-85502605D03*
D11*
X159897612Y-84620472D03*
D10*
X164900435Y-83738339D03*
D12*
X155704428Y-82780660D03*
X161516891Y-79176582D03*
%TD*%
D10*
%TO.C,SW22*%
X108068466Y-83738338D03*
D11*
X113071289Y-84620471D03*
D10*
X118074112Y-85502604D03*
D12*
X109760238Y-81457460D03*
X116454833Y-80058714D03*
%TD*%
D10*
%TO.C,SW8*%
X78265953Y-33347639D03*
D11*
X83268776Y-34229772D03*
D10*
X88271599Y-35111905D03*
D12*
X79957725Y-31066761D03*
X86652320Y-29668015D03*
%TD*%
D17*
%TO.C,J2*%
X146475893Y-100399984D03*
D18*
X146475893Y-99399984D03*
X146475893Y-98399984D03*
X146475893Y-97399984D03*
X146475893Y-96399984D03*
X146475893Y-95399984D03*
X146475893Y-94399984D03*
X146475893Y-93399984D03*
X146475893Y-92399984D03*
X146475893Y-91399984D03*
X146475893Y-90399984D03*
X146475893Y-89399984D03*
X146475893Y-88399984D03*
X146475893Y-87399984D03*
X146475893Y-86399984D03*
X146475893Y-85399984D03*
D19*
X144425893Y-81649984D03*
X143425893Y-81649984D03*
X142425893Y-81649984D03*
X144425893Y-82524984D03*
D20*
X143425893Y-82524984D03*
D19*
X142425893Y-82524984D03*
X144425893Y-103274984D03*
D20*
X143425893Y-103274984D03*
D19*
X142425893Y-103274984D03*
X144425893Y-104149984D03*
X143425893Y-104149984D03*
X142425893Y-104149984D03*
%TD*%
D21*
%TO.C,D40*%
X80140705Y-102251237D03*
X80713743Y-99001371D03*
%TD*%
D22*
%TO.C,SW1*%
X132218157Y-65582310D03*
X132218157Y-59382310D03*
X128518157Y-65582310D03*
X128518157Y-59382310D03*
%TD*%
D23*
%TO.C,C7*%
X109116157Y-59490897D03*
X110061573Y-59657599D03*
%TD*%
D24*
%TO.C,D27*%
X202674936Y-52961294D03*
X202101898Y-49711428D03*
%TD*%
D25*
%TO.C,C2*%
X99626809Y-64876406D03*
X99460107Y-65821822D03*
%TD*%
D21*
%TO.C,D15*%
X66434637Y-74848647D03*
X67007675Y-71598781D03*
%TD*%
D24*
%TO.C,D22*%
X218689710Y-34081024D03*
X218116672Y-30831158D03*
%TD*%
D26*
%TO.C,J1*%
X119547969Y-51854985D03*
D27*
X118347969Y-51854985D03*
X117147969Y-51854985D03*
X115947969Y-51854985D03*
D28*
X121197969Y-56004985D03*
X121197969Y-55204985D03*
X120847969Y-55604985D03*
D29*
X120847969Y-55604985D03*
D28*
X120497969Y-56004985D03*
X120497969Y-55204985D03*
X114997969Y-56004985D03*
X114997969Y-55204985D03*
X114647969Y-55604985D03*
D29*
X114647969Y-55604985D03*
D28*
X114297969Y-56004985D03*
X114297969Y-55204985D03*
%TD*%
D21*
%TO.C,D3*%
X73050631Y-37327471D03*
X73623669Y-34077605D03*
%TD*%
D30*
%TO.C,C5*%
X109128736Y-63485261D03*
X108183320Y-63318559D03*
%TD*%
D24*
%TO.C,D28*%
X221986855Y-52780060D03*
X221413817Y-49530194D03*
%TD*%
D21*
%TO.C,D2*%
X53738712Y-37146238D03*
X54311750Y-33896372D03*
%TD*%
%TO.C,D11*%
X90617937Y-56544956D03*
X91190975Y-53295090D03*
%TD*%
D24*
%TO.C,D29*%
X239735395Y-52874494D03*
X239162357Y-49624628D03*
%TD*%
D22*
%TO.C,SW2*%
X128518157Y-69034309D03*
X128518157Y-75234309D03*
X132218157Y-69034309D03*
X132218157Y-75234309D03*
%TD*%
D24*
%TO.C,D31*%
X169564425Y-84591407D03*
X168991387Y-81341541D03*
%TD*%
%TO.C,D38*%
X189701437Y-102802571D03*
X189128399Y-99552705D03*
%TD*%
%TO.C,D35*%
X243043392Y-71635082D03*
X242470354Y-68385216D03*
%TD*%
D23*
%TO.C,C6*%
X110582222Y-53940655D03*
X111527638Y-54107357D03*
%TD*%
D31*
%TO.C,R1*%
X126327491Y-67035735D03*
X126504613Y-66031231D03*
%TD*%
D21*
%TO.C,D4*%
X92362552Y-37508704D03*
X92935590Y-34258838D03*
%TD*%
D23*
%TO.C,C3*%
X107066767Y-75501764D03*
X108012183Y-75668466D03*
%TD*%
D24*
%TO.C,D39*%
X192828198Y-102251237D03*
X192255160Y-99001371D03*
%TD*%
D21*
%TO.C,D18*%
X120601685Y-87623738D03*
X121174723Y-84373872D03*
%TD*%
D24*
%TO.C,D20*%
X181157684Y-40635469D03*
X180584646Y-37385603D03*
%TD*%
D21*
%TO.C,D16*%
X84183173Y-74754213D03*
X84756211Y-71504347D03*
%TD*%
%TO.C,D8*%
X50430713Y-55906826D03*
X51003751Y-52656960D03*
%TD*%
D24*
%TO.C,D24*%
X239554161Y-33562574D03*
X238981123Y-30312708D03*
%TD*%
D21*
%TO.C,D14*%
X47122714Y-74667413D03*
X47695752Y-71417547D03*
%TD*%
D24*
%TO.C,D21*%
X199366938Y-34200706D03*
X198793900Y-30950840D03*
%TD*%
%TO.C,D23*%
X236427397Y-34113906D03*
X235854359Y-30864040D03*
%TD*%
D21*
%TO.C,D5*%
X109008424Y-43667800D03*
X109581462Y-40417934D03*
%TD*%
D25*
%TO.C,C8*%
X126324196Y-75830780D03*
X126157494Y-76776196D03*
%TD*%
D24*
%TO.C,D37*%
X151398569Y-109556397D03*
X150825531Y-106306531D03*
%TD*%
D21*
%TO.C,D13*%
X27672960Y-75267871D03*
X28245998Y-72018005D03*
%TD*%
%TO.C,D1*%
X34288958Y-37746696D03*
X34861996Y-34496830D03*
%TD*%
D25*
%TO.C,C1*%
X110065021Y-72963847D03*
X109898319Y-73909263D03*
%TD*%
D21*
%TO.C,D10*%
X87491172Y-55993624D03*
X88064210Y-52743758D03*
%TD*%
%TO.C,D41*%
X83267464Y-102802569D03*
X83840502Y-99552703D03*
%TD*%
D24*
%TO.C,D26*%
X184465682Y-59396056D03*
X183892644Y-56146190D03*
%TD*%
%TO.C,D33*%
X205982932Y-71721882D03*
X205409894Y-68472016D03*
%TD*%
%TO.C,D25*%
X166256427Y-65830818D03*
X165683389Y-62580952D03*
%TD*%
D21*
%TO.C,D6*%
X112135189Y-44219133D03*
X112708227Y-40969267D03*
%TD*%
%TO.C,D9*%
X69742634Y-56088059D03*
X70315672Y-52838193D03*
%TD*%
D32*
%TO.C,U1*%
X110835091Y-57977391D03*
X108963956Y-57647459D03*
X110294573Y-55571987D03*
%TD*%
D23*
%TO.C,C4*%
X102814367Y-74751950D03*
X103759783Y-74918652D03*
%TD*%
D21*
%TO.C,D42*%
X121570332Y-109556396D03*
X122143370Y-106306530D03*
%TD*%
D17*
%TO.C,J3*%
X126477470Y-85399985D03*
D18*
X126477470Y-86399985D03*
X126477470Y-87399985D03*
X126477470Y-88399985D03*
X126477470Y-89399985D03*
X126477470Y-90399985D03*
X126477470Y-91399985D03*
X126477470Y-92399985D03*
X126477470Y-93399985D03*
X126477470Y-94399985D03*
X126477470Y-95399985D03*
X126477470Y-96399985D03*
X126477470Y-97399985D03*
X126477470Y-98399985D03*
X126477470Y-99399985D03*
X126477470Y-100399985D03*
D19*
X128527470Y-104149985D03*
X129527470Y-104149985D03*
X130527470Y-104149985D03*
X128527470Y-103274985D03*
D20*
X129527470Y-103274985D03*
D19*
X130527470Y-103274985D03*
X128527470Y-82524985D03*
D20*
X129527470Y-82524985D03*
D19*
X130527470Y-82524985D03*
X128527470Y-81649985D03*
X129527470Y-81649985D03*
X130527470Y-81649985D03*
%TD*%
D33*
%TO.C,U2*%
X106875433Y-73246781D03*
X106383029Y-73159957D03*
X105890625Y-73073133D03*
X105398221Y-72986308D03*
X104905817Y-72899484D03*
X104413413Y-72812660D03*
X103921010Y-72725836D03*
X103428606Y-72639012D03*
X102936202Y-72552188D03*
X102443798Y-72465364D03*
X101951394Y-72378540D03*
X101458990Y-72291716D03*
D34*
X100313227Y-70655397D03*
X100400051Y-70162993D03*
X100486875Y-69670589D03*
X100573700Y-69178185D03*
X100660524Y-68685781D03*
X100747348Y-68193377D03*
X100834172Y-67700974D03*
X100920996Y-67208570D03*
X101007820Y-66716166D03*
X101094644Y-66223762D03*
X101181468Y-65731358D03*
X101268292Y-65238954D03*
D33*
X102904611Y-64093191D03*
X103397015Y-64180015D03*
X103889419Y-64266839D03*
X104381823Y-64353664D03*
X104874227Y-64440488D03*
X105366631Y-64527312D03*
X105859034Y-64614136D03*
X106351438Y-64700960D03*
X106843842Y-64787784D03*
X107336246Y-64874608D03*
X107828650Y-64961432D03*
X108321054Y-65048256D03*
D34*
X109466817Y-66684575D03*
X109379993Y-67176979D03*
X109293169Y-67669383D03*
X109206344Y-68161787D03*
X109119520Y-68654191D03*
X109032696Y-69146595D03*
X108945872Y-69638998D03*
X108859048Y-70131402D03*
X108772224Y-70623806D03*
X108685400Y-71116210D03*
X108598576Y-71608614D03*
X108511752Y-72101018D03*
%TD*%
D24*
%TO.C,D34*%
X225294854Y-71540649D03*
X224721816Y-68290783D03*
%TD*%
%TO.C,D19*%
X162948426Y-47070232D03*
X162375388Y-43820366D03*
%TD*%
%TO.C,D36*%
X246170157Y-71083749D03*
X245597119Y-67833883D03*
%TD*%
D21*
%TO.C,D7*%
X30980959Y-56507283D03*
X31553997Y-53257417D03*
%TD*%
D24*
%TO.C,D30*%
X242862158Y-52323161D03*
X242289120Y-49073295D03*
%TD*%
D21*
%TO.C,D17*%
X87309940Y-75305546D03*
X87882978Y-72055680D03*
%TD*%
%TO.C,D12*%
X123909681Y-68863150D03*
X124482719Y-65613284D03*
%TD*%
D24*
%TO.C,D32*%
X187773679Y-78156644D03*
X187200641Y-74906778D03*
%TD*%
M02*
