%TF.GenerationSoftware,KiCad,Pcbnew,7.0.8*%
%TF.CreationDate,2023-11-01T12:08:13-07:00*%
%TF.ProjectId,Redwood,52656477-6f6f-4642-9e6b-696361645f70,rev?*%
%TF.SameCoordinates,Original*%
%TF.FileFunction,Legend,Top*%
%TF.FilePolarity,Positive*%
%FSLAX46Y46*%
G04 Gerber Fmt 4.6, Leading zero omitted, Abs format (unit mm)*
G04 Created by KiCad (PCBNEW 7.0.8) date 2023-11-01 12:08:13*
%MOMM*%
%LPD*%
G01*
G04 APERTURE LIST*
%ADD10C,0.150000*%
G04 APERTURE END LIST*
D10*
X70448069Y-90643069D02*
X70590926Y-90690688D01*
X70590926Y-90690688D02*
X70829021Y-90690688D01*
X70829021Y-90690688D02*
X70924259Y-90643069D01*
X70924259Y-90643069D02*
X70971878Y-90595449D01*
X70971878Y-90595449D02*
X71019497Y-90500211D01*
X71019497Y-90500211D02*
X71019497Y-90404973D01*
X71019497Y-90404973D02*
X70971878Y-90309735D01*
X70971878Y-90309735D02*
X70924259Y-90262116D01*
X70924259Y-90262116D02*
X70829021Y-90214497D01*
X70829021Y-90214497D02*
X70638545Y-90166878D01*
X70638545Y-90166878D02*
X70543307Y-90119259D01*
X70543307Y-90119259D02*
X70495688Y-90071640D01*
X70495688Y-90071640D02*
X70448069Y-89976402D01*
X70448069Y-89976402D02*
X70448069Y-89881164D01*
X70448069Y-89881164D02*
X70495688Y-89785926D01*
X70495688Y-89785926D02*
X70543307Y-89738307D01*
X70543307Y-89738307D02*
X70638545Y-89690688D01*
X70638545Y-89690688D02*
X70876640Y-89690688D01*
X70876640Y-89690688D02*
X71019497Y-89738307D01*
X71352831Y-89690688D02*
X71590926Y-90690688D01*
X71590926Y-90690688D02*
X71781402Y-89976402D01*
X71781402Y-89976402D02*
X71971878Y-90690688D01*
X71971878Y-90690688D02*
X72209974Y-89690688D01*
X72495688Y-89690688D02*
X73114735Y-89690688D01*
X73114735Y-89690688D02*
X72781402Y-90071640D01*
X72781402Y-90071640D02*
X72924259Y-90071640D01*
X72924259Y-90071640D02*
X73019497Y-90119259D01*
X73019497Y-90119259D02*
X73067116Y-90166878D01*
X73067116Y-90166878D02*
X73114735Y-90262116D01*
X73114735Y-90262116D02*
X73114735Y-90500211D01*
X73114735Y-90500211D02*
X73067116Y-90595449D01*
X73067116Y-90595449D02*
X73019497Y-90643069D01*
X73019497Y-90643069D02*
X72924259Y-90690688D01*
X72924259Y-90690688D02*
X72638545Y-90690688D01*
X72638545Y-90690688D02*
X72543307Y-90643069D01*
X72543307Y-90643069D02*
X72495688Y-90595449D01*
X199854168Y-90643069D02*
X199997025Y-90690688D01*
X199997025Y-90690688D02*
X200235120Y-90690688D01*
X200235120Y-90690688D02*
X200330358Y-90643069D01*
X200330358Y-90643069D02*
X200377977Y-90595449D01*
X200377977Y-90595449D02*
X200425596Y-90500211D01*
X200425596Y-90500211D02*
X200425596Y-90404973D01*
X200425596Y-90404973D02*
X200377977Y-90309735D01*
X200377977Y-90309735D02*
X200330358Y-90262116D01*
X200330358Y-90262116D02*
X200235120Y-90214497D01*
X200235120Y-90214497D02*
X200044644Y-90166878D01*
X200044644Y-90166878D02*
X199949406Y-90119259D01*
X199949406Y-90119259D02*
X199901787Y-90071640D01*
X199901787Y-90071640D02*
X199854168Y-89976402D01*
X199854168Y-89976402D02*
X199854168Y-89881164D01*
X199854168Y-89881164D02*
X199901787Y-89785926D01*
X199901787Y-89785926D02*
X199949406Y-89738307D01*
X199949406Y-89738307D02*
X200044644Y-89690688D01*
X200044644Y-89690688D02*
X200282739Y-89690688D01*
X200282739Y-89690688D02*
X200425596Y-89738307D01*
X200758930Y-89690688D02*
X200997025Y-90690688D01*
X200997025Y-90690688D02*
X201187501Y-89976402D01*
X201187501Y-89976402D02*
X201377977Y-90690688D01*
X201377977Y-90690688D02*
X201616073Y-89690688D01*
X202425596Y-90024021D02*
X202425596Y-90690688D01*
X202187501Y-89643069D02*
X201949406Y-90357354D01*
X201949406Y-90357354D02*
X202568453Y-90357354D01*
%TO.C,SW3*%
X66011763Y-87500467D02*
X68611763Y-87500467D01*
X66011763Y-91100467D02*
X66011763Y-87500467D01*
X66011763Y-99500467D02*
X66011763Y-95900467D01*
X73011763Y-99500467D02*
X66011763Y-99500467D01*
X75211763Y-87500467D02*
X78011763Y-87500467D01*
X78011763Y-87500467D02*
X78011763Y-91100467D01*
X78011763Y-99500467D02*
X76211763Y-99500467D01*
X78011763Y-99500467D02*
X78011763Y-95900467D01*
%TO.C,SW4*%
X194957141Y-87500467D02*
X197557141Y-87500467D01*
X194957141Y-91100467D02*
X194957141Y-87500467D01*
X194957141Y-99500467D02*
X194957141Y-95900467D01*
X201957141Y-99500467D02*
X194957141Y-99500467D01*
X204157141Y-87500467D02*
X206957141Y-87500467D01*
X206957141Y-87500467D02*
X206957141Y-91100467D01*
X206957141Y-99500467D02*
X205157141Y-99500467D01*
X206957141Y-99500467D02*
X206957141Y-95900467D01*
%TD*%
M02*
