M48
; DRILL file {KiCad 7.0.8} date Wed Nov  1 12:08:11 2023
; FORMAT={-:-/ absolute / inch / decimal}
; #@! TF.CreationDate,2023-11-01T12:08:11-07:00
; #@! TF.GenerationSoftware,Kicad,Pcbnew,7.0.8
; #@! TF.FileFunction,NonPlated,1,2,NPTH
FMAT,2
INCH
; #@! TA.AperFunction,NonPlated,NPTH,ComponentDrill
T1C0.0315
; #@! TA.AperFunction,NonPlated,NPTH,ComponentDrill
T2C0.0689
; #@! TA.AperFunction,NonPlated,NPTH,ComponentDrill
T3C0.1200
; #@! TA.AperFunction,NonPlated,NPTH,ComponentDrill
T4C0.1570
%
G90
G05
T1
X5.3143Y-1.8508
X5.3143Y-1.9
X5.3143Y-1.9492
X5.3143Y-1.9984
X5.3143Y-2.0476
X5.3143Y-2.9925
X5.3143Y-3.0417
X5.3143Y-3.0909
X5.3143Y-3.1402
X5.3143Y-3.1894
X5.3143Y-4.2917
X5.3143Y-4.3409
X5.3143Y-4.3902
X5.3143Y-4.4394
X5.3143Y-4.4886
X5.4325Y-2.9925
X5.4325Y-3.0417
X5.4325Y-3.0909
X5.4325Y-3.1402
X5.4325Y-3.1894
X5.4325Y-4.3016
X5.4325Y-4.3508
X5.4325Y-4.4
X5.4325Y-4.4492
X5.4325Y-4.4984
X5.4325Y-1.8508
X5.4325Y-1.9
X5.4325Y-1.9492
X5.4325Y-1.9984
X5.4325Y-2.0476
T2
X0.5345Y-2.7995
X0.6647Y-2.0609
X0.795Y-1.3223
X0.9284Y-2.8689
X1.0587Y-2.1303
X1.1889Y-1.3917
X1.3002Y-2.7758
X1.4305Y-2.0372
X1.5607Y-1.2986
X1.6942Y-2.8453
X1.8244Y-2.1067
X1.9546Y-1.3681
X2.0606Y-2.783
X2.1908Y-2.0444
X2.321Y-1.3058
X2.4545Y-2.8524
X2.5847Y-2.1138
X2.6351Y-3.6811
X2.7149Y-1.3752
X2.8209Y-2.7901
X2.9511Y-2.0515
X3.0351Y-3.6811
X3.0813Y-1.3129
X3.2148Y-2.8596
X3.345Y-2.121
X3.4311Y-4.0083
X3.4753Y-1.3824
X3.5378Y-3.0434
X3.668Y-2.3048
X3.7982Y-1.5662
X3.825Y-4.0778
X3.8927Y-4.0897
X3.9317Y-3.1129
X4.0619Y-2.3743
X4.1922Y-1.6357
X4.2547Y-3.2968
X4.262Y-4.1548
X4.2866Y-4.1592
X4.3849Y-2.5582
X4.5151Y-1.8196
X4.6486Y-3.3662
X4.6559Y-4.2243
X4.7788Y-2.6276
X4.9091Y-1.889
X5.8377Y-1.889
X5.968Y-2.6276
X6.0909Y-4.2243
X6.0982Y-3.3662
X6.2317Y-1.8196
X6.3619Y-2.5582
X6.4602Y-4.1592
X6.4848Y-4.1548
X6.4921Y-3.2968
X6.5546Y-1.6357
X6.6849Y-2.3743
X6.8151Y-3.1129
X6.8541Y-4.0897
X6.9218Y-4.0778
X6.9486Y-1.5662
X7.0788Y-2.3048
X7.209Y-3.0434
X7.2715Y-1.3824
X7.3157Y-4.0083
X7.4018Y-2.121
X7.532Y-2.8596
X7.6655Y-1.3129
X7.7117Y-3.6811
X7.7957Y-2.0515
X7.9259Y-2.7901
X8.0319Y-1.3752
X8.1117Y-3.6811
X8.1621Y-2.1138
X8.2923Y-2.8524
X8.4258Y-1.3058
X8.556Y-2.0444
X8.6863Y-2.783
X8.7922Y-1.3681
X8.9224Y-2.1067
X9.0526Y-2.8453
X9.1861Y-1.2986
X9.3163Y-2.0372
X9.4466Y-2.7758
X9.5579Y-1.3917
X9.6881Y-2.1303
X9.8184Y-2.8689
X9.9518Y-1.3223
X10.0821Y-2.0609
X10.2123Y-2.7995
T3
X3.5803Y-4.3139
X4.5036Y-4.4767
X6.2432Y-4.4767
X7.1665Y-4.3139
T4
X0.7315Y-2.8342
X0.8617Y-2.0956
X0.9919Y-1.357
X1.4972Y-2.8106
X1.6274Y-2.072
X1.7577Y-1.3334
X2.2575Y-2.8177
X2.3878Y-2.0791
X2.518Y-1.3405
X2.8351Y-3.6811
X3.0178Y-2.8248
X3.1481Y-2.0862
X3.2783Y-1.3476
X3.6281Y-4.0431
X3.6845Y-3.723
X3.7347Y-3.0782
X3.865Y-2.3396
X3.9952Y-1.601
X4.0897Y-4.1245
X4.4516Y-3.3315
X4.459Y-4.1896
X4.5819Y-2.5929
X4.6077Y-3.8858
X4.7121Y-1.8543
X6.0347Y-1.8543
X6.1391Y-3.8858
X6.1649Y-2.5929
X6.2878Y-4.1896
X6.2952Y-3.3315
X6.6571Y-4.1245
X6.7516Y-1.601
X6.8818Y-2.3396
X7.0121Y-3.0782
X7.0623Y-3.723
X7.1188Y-4.0431
X7.4685Y-1.3476
X7.5987Y-2.0862
X7.729Y-2.8248
X7.9117Y-3.6811
X8.2288Y-1.3405
X8.3591Y-2.0791
X8.4893Y-2.8177
X8.9891Y-1.3334
X9.1194Y-2.072
X9.2496Y-2.8106
X9.7549Y-1.357
X9.8851Y-2.0956
X10.0153Y-2.8342
T0
M30
